STARTFONT 2.1
COMMENT
COMMENT Converted from OpenType font "DejaVuSansCondensed.ttf" by "otf2bdf 3.0".
COMMENT
FONT -FreeType-DejaVu Sans Condensed-Medium-R-Normal--26-190-100-100-P-134-ISO10646-1
SIZE 19 100 100
FONTBOUNDINGBOX 63 38 -24 -10
STARTPROPERTIES 19
FOUNDRY "FreeType"
FAMILY_NAME "DejaVu Sans Condensed"
WEIGHT_NAME "Medium"
SLANT "R"
SETWIDTH_NAME "Normal"
ADD_STYLE_NAME ""
PIXEL_SIZE 26
POINT_SIZE 190
RESOLUTION_X 100
RESOLUTION_Y 100
SPACING "P"
AVERAGE_WIDTH 134
CHARSET_REGISTRY "ISO10646"
CHARSET_ENCODING "1"
FONT_ASCENT 24
FONT_DESCENT 6
COPYRIGHT "Copyright (c) 2003 by Bitstream, Inc. All Rights Reserved.  Copyright (c) 2006 by Tavmjong Bah. All Rights Reserved.  DejaVu changes are in public domain  "
_OTF_FONTFILE "DejaVuSansCondensed.ttf"
_OTF_PSNAME "DejaVuSansCondensed"
ENDPROPERTIES
CHARS 5370
STARTCHAR 0020
ENCODING 32
SWIDTH 265 0
DWIDTH 7 0
BBX 0 0 0 0
BITMAP
ENDCHAR
STARTCHAR 0021
ENCODING 33
SWIDTH 341 0
DWIDTH 9 0
BBX 2 19 4 0
BITMAP
C0
C0
C0
C0
C0
C0
C0
C0
C0
C0
C0
C0
C0
00
00
00
C0
C0
C0
ENDCHAR
STARTCHAR 0022
ENCODING 34
SWIDTH 416 0
DWIDTH 11 0
BBX 7 7 2 12
BITMAP
C6
C6
C6
C6
C6
C6
C6
ENDCHAR
STARTCHAR 0023
ENCODING 35
SWIDTH 757 0
DWIDTH 20 0
BBX 16 19 2 0
BITMAP
0308
0318
0318
0318
0618
0630
7FFF
7FFF
0430
0C20
0C60
0C60
FFFE
FFFE
18C0
18C0
18C0
10C0
3080
ENDCHAR
STARTCHAR 0024
ENCODING 36
SWIDTH 568 0
DWIDTH 15 0
BBX 11 24 2 -4
BITMAP
0400
0400
0400
1F00
7FC0
E4C0
C400
C400
C400
E400
7C00
3F80
07C0
04E0
0460
0460
0460
C4C0
FFC0
3F00
0400
0400
0400
0400
ENDCHAR
STARTCHAR 0025
ENCODING 37
SWIDTH 833 0
DWIDTH 22 0
BBX 20 19 1 0
BITMAP
3E0300
760200
630600
C30C00
C30C00
C31800
C31800
633000
7E3000
3C63C0
0067E0
00C660
008C30
018C30
030C30
030C30
060C30
060660
0C03C0
ENDCHAR
STARTCHAR 0026
ENCODING 38
SWIDTH 682 0
DWIDTH 18 0
BBX 16 19 1 0
BITMAP
0FE0
1FE0
1820
3800
3800
1800
1C00
1C00
3E00
3703
6386
61C6
E0E6
E07C
603C
6018
703C
3FFE
1FC7
ENDCHAR
STARTCHAR 0027
ENCODING 39
SWIDTH 227 0
DWIDTH 6 0
BBX 2 7 2 12
BITMAP
C0
C0
C0
C0
C0
C0
C0
ENDCHAR
STARTCHAR 0028
ENCODING 40
SWIDTH 341 0
DWIDTH 9 0
BBX 5 23 2 -3
BITMAP
18
18
30
30
60
60
60
E0
C0
C0
C0
C0
C0
C0
C0
E0
60
60
60
70
30
30
18
ENDCHAR
STARTCHAR 0029
ENCODING 41
SWIDTH 341 0
DWIDTH 9 0
BBX 5 23 2 -3
BITMAP
C0
C0
60
60
30
30
30
38
18
18
18
18
18
18
18
18
38
30
30
30
60
60
C0
ENDCHAR
STARTCHAR 002A
ENCODING 42
SWIDTH 454 0
DWIDTH 12 0
BBX 10 12 1 7
BITMAP
0C00
0C00
8CC0
ED80
3F00
0C00
3E00
6D80
CCC0
0C00
0C00
0C00
ENDCHAR
STARTCHAR 002B
ENCODING 43
SWIDTH 757 0
DWIDTH 20 0
BBX 15 16 2 0
BITMAP
0180
0180
0180
0180
0180
0180
0180
FFFE
FFFE
0180
0180
0180
0180
0180
0180
0180
ENDCHAR
STARTCHAR 002C
ENCODING 44
SWIDTH 265 0
DWIDTH 7 0
BBX 3 6 2 -3
BITMAP
60
60
60
C0
C0
C0
ENDCHAR
STARTCHAR 002D
ENCODING 45
SWIDTH 303 0
DWIDTH 8 0
BBX 6 2 1 6
BITMAP
FC
FC
ENDCHAR
STARTCHAR 002E
ENCODING 46
SWIDTH 265 0
DWIDTH 7 0
BBX 3 3 2 0
BITMAP
E0
E0
E0
ENDCHAR
STARTCHAR 002F
ENCODING 47
SWIDTH 303 0
DWIDTH 8 0
BBX 8 21 0 -2
BITMAP
03
03
06
06
06
0C
0C
0C
0C
18
18
18
30
30
30
30
60
60
60
40
C0
ENDCHAR
STARTCHAR 0030
ENCODING 48
SWIDTH 568 0
DWIDTH 15 0
BBX 11 19 2 0
BITMAP
1F00
3F80
71C0
E0C0
C0E0
C060
C060
C060
C060
C060
C060
C060
C060
C060
C0E0
E0C0
61C0
7F80
1F00
ENDCHAR
STARTCHAR 0031
ENCODING 49
SWIDTH 568 0
DWIDTH 15 0
BBX 10 19 3 0
BITMAP
3C00
FC00
EC00
0C00
0C00
0C00
0C00
0C00
0C00
0C00
0C00
0C00
0C00
0C00
0C00
0C00
0C00
FFC0
FFC0
ENDCHAR
STARTCHAR 0032
ENCODING 50
SWIDTH 568 0
DWIDTH 15 0
BBX 11 19 2 0
BITMAP
7F00
FF80
C1C0
00C0
00C0
00C0
00C0
00C0
0180
0380
0700
0E00
0C00
1800
3800
7000
E000
FFE0
FFE0
ENDCHAR
STARTCHAR 0033
ENCODING 51
SWIDTH 568 0
DWIDTH 15 0
BBX 11 19 2 0
BITMAP
FF00
FFC0
81C0
00E0
00E0
00E0
00C0
01C0
1F00
1F80
01C0
00E0
0060
0060
0060
00E0
81C0
FFC0
FF00
ENDCHAR
STARTCHAR 0034
ENCODING 52
SWIDTH 568 0
DWIDTH 15 0
BBX 13 19 1 0
BITMAP
01C0
03C0
03C0
06C0
06C0
0CC0
18C0
18C0
30C0
30C0
60C0
E0C0
FFF8
FFF8
FFF8
00C0
00C0
00C0
00C0
ENDCHAR
STARTCHAR 0035
ENCODING 53
SWIDTH 568 0
DWIDTH 15 0
BBX 11 19 2 0
BITMAP
7FC0
7FC0
6000
6000
6000
6000
6800
7F00
7F80
01C0
00C0
00E0
0060
00E0
00E0
00C0
81C0
FF80
FF00
ENDCHAR
STARTCHAR 0036
ENCODING 54
SWIDTH 568 0
DWIDTH 15 0
BBX 11 19 2 0
BITMAP
0FC0
3FC0
7000
6000
E000
C000
C000
DF80
FFC0
E0E0
E060
C060
C060
C060
E060
6060
70E0
3FC0
1F80
ENDCHAR
STARTCHAR 0037
ENCODING 55
SWIDTH 568 0
DWIDTH 15 0
BBX 11 19 2 0
BITMAP
FFE0
FFE0
00C0
00C0
01C0
0180
0180
0380
0300
0300
0700
0600
0600
0E00
0C00
1C00
1C00
1800
3800
ENDCHAR
STARTCHAR 0038
ENCODING 56
SWIDTH 568 0
DWIDTH 15 0
BBX 11 19 2 0
BITMAP
3F80
7FC0
E0C0
E0E0
C060
C060
E0E0
71C0
3F80
3F80
61C0
C0E0
C060
C060
C060
C060
E0E0
7FC0
3F80
ENDCHAR
STARTCHAR 0039
ENCODING 57
SWIDTH 568 0
DWIDTH 15 0
BBX 12 19 1 0
BITMAP
1F80
3FC0
70E0
6060
6070
E070
E030
6070
6070
7070
3FF0
1FB0
0230
0070
0060
0060
00C0
3FC0
3F00
ENDCHAR
STARTCHAR 003A
ENCODING 58
SWIDTH 303 0
DWIDTH 8 0
BBX 2 13 3 0
BITMAP
C0
C0
C0
00
00
00
00
00
00
00
C0
C0
C0
ENDCHAR
STARTCHAR 003B
ENCODING 59
SWIDTH 303 0
DWIDTH 8 0
BBX 3 16 2 -3
BITMAP
60
60
60
00
00
00
00
00
00
00
60
60
60
C0
C0
C0
ENDCHAR
STARTCHAR 003C
ENCODING 60
SWIDTH 757 0
DWIDTH 20 0
BBX 15 14 2 1
BITMAP
0002
001E
007C
03F0
0F80
7E00
F000
F800
3E00
0FC0
01F8
007E
000E
0002
ENDCHAR
STARTCHAR 003D
ENCODING 61
SWIDTH 757 0
DWIDTH 20 0
BBX 15 8 2 4
BITMAP
FFFE
FFFE
0000
0000
0000
FFFE
FFFE
FFFE
ENDCHAR
STARTCHAR 003E
ENCODING 62
SWIDTH 757 0
DWIDTH 20 0
BBX 15 14 2 1
BITMAP
C000
F000
7E00
0F80
03F0
007C
001E
001E
00FC
03E0
1F80
FC00
F000
8000
ENDCHAR
STARTCHAR 003F
ENCODING 63
SWIDTH 454 0
DWIDTH 12 0
BBX 9 19 2 0
BITMAP
7E00
FF00
8380
0380
0380
0380
0300
0600
0C00
1C00
1800
1800
1800
1800
0000
0000
3800
3800
3800
ENDCHAR
STARTCHAR 0040
ENCODING 64
SWIDTH 871 0
DWIDTH 23 0
BBX 20 22 2 -5
BITMAP
03FC00
0FFF00
1C0380
3801C0
7000C0
600060
C1F620
C39E30
860E30
860630
860630
860630
860620
860E60
C31EC0
C3FF80
60E600
600000
300000
1C0300
0F0F00
07FC00
ENDCHAR
STARTCHAR 0041
ENCODING 65
SWIDTH 606 0
DWIDTH 16 0
BBX 16 19 0 0
BITMAP
0180
03C0
03C0
07C0
0660
0660
0E70
0C30
0C30
1C38
1818
1818
3FFC
3FFC
300C
700E
6006
6006
E007
ENDCHAR
STARTCHAR 0042
ENCODING 66
SWIDTH 606 0
DWIDTH 16 0
BBX 12 19 2 0
BITMAP
FF80
FFC0
E0E0
E070
E070
E070
E060
E0E0
FFC0
FFC0
E060
E030
E030
E030
E030
E070
E0F0
FFE0
FF80
ENDCHAR
STARTCHAR 0043
ENCODING 67
SWIDTH 606 0
DWIDTH 16 0
BBX 14 19 1 0
BITMAP
07F0
1FFC
3C0C
3804
7000
6000
6000
E000
E000
E000
E000
E000
6000
6000
7000
3004
3C0C
1FFC
07F0
ENDCHAR
STARTCHAR 0044
ENCODING 68
SWIDTH 682 0
DWIDTH 18 0
BBX 15 19 2 0
BITMAP
FF80
FFE0
E0F0
E038
E01C
E00C
E00C
E00E
E00E
E00E
E00E
E00E
E00C
E00C
E01C
E038
E0F0
FFE0
FF80
ENDCHAR
STARTCHAR 0045
ENCODING 69
SWIDTH 568 0
DWIDTH 15 0
BBX 11 19 2 0
BITMAP
FFE0
FFE0
E000
E000
E000
E000
E000
E000
FFE0
FFE0
E000
E000
E000
E000
E000
E000
E000
FFE0
FFE0
ENDCHAR
STARTCHAR 0046
ENCODING 70
SWIDTH 492 0
DWIDTH 13 0
BBX 10 19 2 0
BITMAP
FFC0
FFC0
E000
E000
E000
E000
E000
E000
FF80
FF80
E000
E000
E000
E000
E000
E000
E000
E000
E000
ENDCHAR
STARTCHAR 0047
ENCODING 71
SWIDTH 682 0
DWIDTH 18 0
BBX 15 19 1 0
BITMAP
07F8
1FFE
3C0E
3802
7000
6000
6000
E000
E000
E07E
E07E
E006
6006
6006
7006
3006
3C06
1FFE
07F8
ENDCHAR
STARTCHAR 0048
ENCODING 72
SWIDTH 682 0
DWIDTH 18 0
BBX 13 19 2 0
BITMAP
E018
E018
E018
E018
E018
E018
E018
E018
FFF8
FFF8
E018
E018
E018
E018
E018
E018
E018
E018
E018
ENDCHAR
STARTCHAR 0049
ENCODING 73
SWIDTH 265 0
DWIDTH 7 0
BBX 3 19 2 0
BITMAP
E0
E0
E0
E0
E0
E0
E0
E0
E0
E0
E0
E0
E0
E0
E0
E0
E0
E0
E0
ENDCHAR
STARTCHAR 004A
ENCODING 74
SWIDTH 265 0
DWIDTH 7 0
BBX 6 24 -1 -5
BITMAP
1C
1C
1C
1C
1C
1C
1C
1C
1C
1C
1C
1C
1C
1C
1C
1C
1C
1C
1C
1C
18
38
F8
E0
ENDCHAR
STARTCHAR 004B
ENCODING 75
SWIDTH 568 0
DWIDTH 15 0
BBX 13 19 2 0
BITMAP
E038
E070
E0E0
E1C0
E380
E700
EE00
FC00
F800
F800
FC00
EE00
E700
E380
E1C0
E0E0
E070
E070
E038
ENDCHAR
STARTCHAR 004C
ENCODING 76
SWIDTH 492 0
DWIDTH 13 0
BBX 11 19 2 0
BITMAP
E000
E000
E000
E000
E000
E000
E000
E000
E000
E000
E000
E000
E000
E000
E000
E000
E000
FFE0
FFE0
ENDCHAR
STARTCHAR 004D
ENCODING 77
SWIDTH 757 0
DWIDTH 20 0
BBX 16 19 2 0
BITMAP
F00F
F00F
F80F
F81B
F81B
EC1B
EC33
EC33
E633
E663
E663
E363
E3C3
E3C3
E1C3
E003
E003
E003
E003
ENDCHAR
STARTCHAR 004E
ENCODING 78
SWIDTH 682 0
DWIDTH 18 0
BBX 13 19 2 0
BITMAP
F018
F018
F818
F818
FC18
EC18
EC18
E618
E618
E318
E318
E198
E198
E1D8
E0D8
E0F8
E078
E078
E038
ENDCHAR
STARTCHAR 004F
ENCODING 79
SWIDTH 682 0
DWIDTH 18 0
BBX 16 19 1 0
BITMAP
07F0
1FF8
3C1C
380E
7006
6007
6007
E003
E003
E003
E003
E003
6007
6007
7006
300E
3C1C
1FF8
07F0
ENDCHAR
STARTCHAR 0050
ENCODING 80
SWIDTH 530 0
DWIDTH 14 0
BBX 11 19 2 0
BITMAP
FF00
FFC0
E1E0
E0E0
E060
E060
E060
E060
E0E0
FFC0
FF80
E000
E000
E000
E000
E000
E000
E000
E000
ENDCHAR
STARTCHAR 0051
ENCODING 81
SWIDTH 682 0
DWIDTH 18 0
BBX 16 22 1 -3
BITMAP
07F0
1FF8
3C1C
380E
7006
6007
6007
E003
E003
E003
E003
E003
6007
6007
7006
300E
3C1C
1FF8
07F0
0070
0038
001C
ENDCHAR
STARTCHAR 0052
ENCODING 82
SWIDTH 606 0
DWIDTH 16 0
BBX 13 19 2 0
BITMAP
FF00
FFC0
E1E0
E0E0
E060
E060
E060
E0E0
E1E0
FFC0
FF80
E1C0
E0E0
E060
E070
E030
E030
E038
E018
ENDCHAR
STARTCHAR 0053
ENCODING 83
SWIDTH 568 0
DWIDTH 15 0
BBX 12 19 2 0
BITMAP
3FC0
7FE0
E060
C000
C000
C000
C000
F000
7F00
3FC0
07E0
00E0
0060
0070
0070
0060
80E0
FFC0
FF80
ENDCHAR
STARTCHAR 0054
ENCODING 84
SWIDTH 530 0
DWIDTH 14 0
BBX 14 19 0 0
BITMAP
FFFC
FFFC
0300
0300
0300
0300
0300
0300
0300
0300
0300
0300
0300
0300
0300
0300
0300
0300
0300
ENDCHAR
STARTCHAR 0055
ENCODING 85
SWIDTH 644 0
DWIDTH 17 0
BBX 13 19 2 0
BITMAP
C018
C018
C018
C018
C018
C018
C018
C018
C018
C018
C018
C018
C018
C018
E038
6038
7070
3FE0
1FC0
ENDCHAR
STARTCHAR 0056
ENCODING 86
SWIDTH 606 0
DWIDTH 16 0
BBX 16 19 0 0
BITMAP
E007
6006
6006
700E
300C
300C
381C
1818
1818
1C38
0C30
0C30
0E70
0660
06E0
07E0
03C0
03C0
0180
ENDCHAR
STARTCHAR 0057
ENCODING 87
SWIDTH 871 0
DWIDTH 23 0
BBX 21 19 1 0
BITMAP
C07018
C07018
E07038
60D838
60D830
60D830
70D830
70CC70
318C60
318C60
318C60
3984E0
1B06E0
1B06C0
1B06C0
1F06C0
1F03C0
0E0380
0E0380
ENDCHAR
STARTCHAR 0058
ENCODING 88
SWIDTH 606 0
DWIDTH 16 0
BBX 14 19 1 0
BITMAP
601C
7018
3030
1870
1C60
0CE0
0EC0
0780
0380
0780
0780
0FC0
0CC0
1C60
3870
3030
7038
6018
C00C
ENDCHAR
STARTCHAR 0059
ENCODING 89
SWIDTH 530 0
DWIDTH 14 0
BBX 14 19 0 0
BITMAP
E00C
6018
7038
3830
1870
1C60
0CC0
07C0
0780
0380
0300
0300
0300
0300
0300
0300
0300
0300
0300
ENDCHAR
STARTCHAR 005A
ENCODING 90
SWIDTH 606 0
DWIDTH 16 0
BBX 14 19 1 0
BITMAP
FFFC
FFFC
0018
0038
0070
00E0
00C0
01C0
0380
0300
0700
0E00
1C00
1800
3800
7000
E000
FFFC
FFFC
ENDCHAR
STARTCHAR 005B
ENCODING 91
SWIDTH 341 0
DWIDTH 9 0
BBX 5 23 2 -3
BITMAP
F8
F8
C0
C0
C0
C0
C0
C0
C0
C0
C0
C0
C0
C0
C0
C0
C0
C0
C0
C0
C0
C0
F8
ENDCHAR
STARTCHAR 005C
ENCODING 92
SWIDTH 303 0
DWIDTH 8 0
BBX 8 21 0 -2
BITMAP
C0
C0
60
60
60
20
30
30
30
18
18
18
18
0C
0C
0C
06
06
06
06
03
ENDCHAR
STARTCHAR 005D
ENCODING 93
SWIDTH 341 0
DWIDTH 9 0
BBX 5 23 2 -3
BITMAP
F8
F8
18
18
18
18
18
18
18
18
18
18
18
18
18
18
18
18
18
18
18
18
F8
ENDCHAR
STARTCHAR 005E
ENCODING 94
SWIDTH 757 0
DWIDTH 20 0
BBX 14 7 3 12
BITMAP
0700
0F80
0DC0
18E0
3070
6038
C01C
ENDCHAR
STARTCHAR 005F
ENCODING 95
SWIDTH 454 0
DWIDTH 12 0
BBX 12 2 0 -6
BITMAP
FFF0
FFF0
ENDCHAR
STARTCHAR 0060
ENCODING 96
SWIDTH 454 0
DWIDTH 12 0
BBX 5 5 2 16
BITMAP
C0
60
30
10
18
ENDCHAR
STARTCHAR 0061
ENCODING 97
SWIDTH 530 0
DWIDTH 14 0
BBX 11 15 1 0
BITMAP
0400
7F80
7BC0
40E0
0060
0060
1FE0
3FE0
6060
6060
E060
E0E0
60E0
7FE0
3F60
ENDCHAR
STARTCHAR 0062
ENCODING 98
SWIDTH 568 0
DWIDTH 15 0
BBX 12 20 2 0
BITMAP
C000
C000
C000
C000
C000
C200
DF80
FBC0
E0E0
E060
E060
C070
C070
C070
C060
E060
E060
F0E0
DFC0
CF80
ENDCHAR
STARTCHAR 0063
ENCODING 99
SWIDTH 492 0
DWIDTH 13 0
BBX 10 15 1 0
BITMAP
0200
1FC0
3DC0
7000
6000
6000
E000
E000
E000
E000
6000
6000
7000
3FC0
1FC0
ENDCHAR
STARTCHAR 0064
ENCODING 100
SWIDTH 568 0
DWIDTH 15 0
BBX 12 20 1 0
BITMAP
0030
0030
0030
0030
0030
0430
1FB0
3FB0
70F0
6070
E070
E030
C030
C030
E070
6070
6070
70F0
3FB0
1F30
ENDCHAR
STARTCHAR 0065
ENCODING 101
SWIDTH 530 0
DWIDTH 14 0
BBX 12 15 1 0
BITMAP
0200
1FC0
3DE0
7060
6030
6030
E030
FFF0
C000
E000
6000
6000
7010
3FF0
1FE0
ENDCHAR
STARTCHAR 0066
ENCODING 102
SWIDTH 303 0
DWIDTH 8 0
BBX 8 20 1 0
BITMAP
0F
3F
30
30
30
30
FE
FE
30
30
30
30
30
30
30
30
30
30
30
30
ENDCHAR
STARTCHAR 0067
ENCODING 103
SWIDTH 568 0
DWIDTH 15 0
BBX 12 20 1 -5
BITMAP
0400
1FB0
3FB0
70F0
6070
E070
E030
C030
C030
E070
6070
6070
70F0
3FB0
1F30
0070
0060
00E0
3FC0
3F80
ENDCHAR
STARTCHAR 0068
ENCODING 104
SWIDTH 568 0
DWIDTH 15 0
BBX 11 20 2 0
BITMAP
C000
C000
C000
C000
C000
C200
DF80
DFC0
E0C0
E0E0
C060
C060
C060
C060
C060
C060
C060
C060
C060
C060
ENDCHAR
STARTCHAR 0069
ENCODING 105
SWIDTH 265 0
DWIDTH 7 0
BBX 2 20 2 0
BITMAP
C0
C0
C0
00
00
00
C0
C0
C0
C0
C0
C0
C0
C0
C0
C0
C0
C0
C0
C0
ENDCHAR
STARTCHAR 006A
ENCODING 106
SWIDTH 265 0
DWIDTH 7 0
BBX 4 25 0 -5
BITMAP
30
30
30
00
00
00
30
30
30
30
30
30
30
30
30
30
30
30
30
30
30
30
30
F0
E0
ENDCHAR
STARTCHAR 006B
ENCODING 107
SWIDTH 530 0
DWIDTH 14 0
BBX 11 20 2 0
BITMAP
C000
C000
C000
C000
C000
C000
C0E0
C180
C300
C600
CC00
D800
F000
D800
CC00
C600
C700
C380
C1C0
C0E0
ENDCHAR
STARTCHAR 006C
ENCODING 108
SWIDTH 265 0
DWIDTH 7 0
BBX 2 20 2 0
BITMAP
C0
C0
C0
C0
C0
C0
C0
C0
C0
C0
C0
C0
C0
C0
C0
C0
C0
C0
C0
C0
ENDCHAR
STARTCHAR 006D
ENCODING 109
SWIDTH 871 0
DWIDTH 23 0
BBX 19 15 2 0
BITMAP
020200
DF8F80
DFDFC0
E0F0C0
E0E0E0
C0E060
C0E060
C0E060
C0E060
C0E060
C0E060
C0E060
C0E060
C0E060
C0E060
ENDCHAR
STARTCHAR 006E
ENCODING 110
SWIDTH 568 0
DWIDTH 15 0
BBX 11 15 2 0
BITMAP
0200
DF80
DFC0
E0C0
E0E0
C060
C060
C060
C060
C060
C060
C060
C060
C060
C060
ENDCHAR
STARTCHAR 006F
ENCODING 111
SWIDTH 530 0
DWIDTH 14 0
BBX 12 15 1 0
BITMAP
0400
1FC0
3FE0
70E0
6070
E030
E030
E030
E030
E030
6070
6060
70E0
3FC0
1F80
ENDCHAR
STARTCHAR 0070
ENCODING 112
SWIDTH 568 0
DWIDTH 15 0
BBX 12 20 2 -5
BITMAP
0200
DF80
FBC0
E0E0
E060
E060
C070
C070
C070
C060
E060
E060
F0E0
DFC0
CF80
C000
C000
C000
C000
C000
ENDCHAR
STARTCHAR 0071
ENCODING 113
SWIDTH 568 0
DWIDTH 15 0
BBX 12 20 1 -5
BITMAP
0400
1FB0
3FB0
70F0
6070
E070
E030
C030
C030
E070
6070
6070
70F0
3FB0
1F30
0030
0030
0030
0030
0030
ENDCHAR
STARTCHAR 0072
ENCODING 114
SWIDTH 378 0
DWIDTH 10 0
BBX 8 15 2 0
BITMAP
02
DF
FF
E0
E0
C0
C0
C0
C0
C0
C0
C0
C0
C0
C0
ENDCHAR
STARTCHAR 0073
ENCODING 115
SWIDTH 454 0
DWIDTH 12 0
BBX 10 15 1 0
BITMAP
0400
3F80
7380
E000
C000
E000
7800
3F00
0F80
01C0
00C0
00C0
81C0
FF80
FF00
ENDCHAR
STARTCHAR 0074
ENCODING 116
SWIDTH 341 0
DWIDTH 9 0
BBX 8 18 1 0
BITMAP
60
60
60
60
FF
FF
60
60
60
60
60
60
60
60
60
70
3F
1F
ENDCHAR
STARTCHAR 0075
ENCODING 117
SWIDTH 568 0
DWIDTH 15 0
BBX 11 14 2 1
BITMAP
C060
C060
C060
C060
C060
C060
C060
C060
C060
C0E0
C0E0
E1E0
7F60
3E60
ENDCHAR
STARTCHAR 0076
ENCODING 118
SWIDTH 530 0
DWIDTH 14 0
BBX 12 14 1 0
BITMAP
C030
C070
6060
6060
60E0
30C0
30C0
39C0
1980
1980
1F80
0F00
0F00
0F00
ENDCHAR
STARTCHAR 0077
ENCODING 119
SWIDTH 720 0
DWIDTH 19 0
BBX 17 14 1 0
BITMAP
C1C180
C1C180
61C380
636300
636300
636300
332700
323600
363600
363600
3E3600
1C1C00
1C1C00
1C1C00
ENDCHAR
STARTCHAR 0078
ENCODING 120
SWIDTH 530 0
DWIDTH 14 0
BBX 12 14 1 0
BITMAP
6060
70E0
30C0
1980
1F80
0F00
0600
0F00
1F00
1980
31C0
70C0
6060
E070
ENDCHAR
STARTCHAR 0079
ENCODING 121
SWIDTH 530 0
DWIDTH 14 0
BBX 12 19 1 -5
BITMAP
C030
E070
6060
6060
70C0
30C0
31C0
1980
1980
1B80
0F00
0F00
0F00
0600
0600
0C00
0C00
7C00
7800
ENDCHAR
STARTCHAR 007A
ENCODING 122
SWIDTH 454 0
DWIDTH 12 0
BBX 10 14 1 0
BITMAP
FFC0
FFC0
01C0
0380
0300
0700
0E00
1C00
1800
3000
7000
E000
FFC0
FFC0
ENDCHAR
STARTCHAR 007B
ENCODING 123
SWIDTH 568 0
DWIDTH 15 0
BBX 9 24 3 -4
BITMAP
0380
0F80
0C00
0C00
1C00
1C00
1C00
1C00
1C00
1C00
1800
F800
F000
3800
1800
1C00
1C00
1C00
1C00
1C00
1C00
0C00
0F80
0780
ENDCHAR
STARTCHAR 007C
ENCODING 124
SWIDTH 303 0
DWIDTH 8 0
BBX 2 26 3 -6
BITMAP
C0
C0
C0
C0
C0
C0
C0
C0
C0
C0
C0
C0
C0
C0
C0
C0
C0
C0
C0
C0
C0
C0
C0
C0
C0
C0
ENDCHAR
STARTCHAR 007D
ENCODING 125
SWIDTH 568 0
DWIDTH 15 0
BBX 9 24 3 -4
BITMAP
E000
F800
1800
1800
1800
1800
1800
1800
1800
1C00
0C00
0F80
0780
0C00
1C00
1800
1800
1800
1800
1800
1800
1800
F800
F000
ENDCHAR
STARTCHAR 007E
ENCODING 126
SWIDTH 757 0
DWIDTH 20 0
BBX 15 4 2 6
BITMAP
3E02
7FCE
E1FC
8070
ENDCHAR
STARTCHAR 00A0
ENCODING 160
SWIDTH 265 0
DWIDTH 7 0
BBX 0 0 0 0
BITMAP
ENDCHAR
STARTCHAR 00A1
ENCODING 161
SWIDTH 341 0
DWIDTH 9 0
BBX 2 19 4 -5
BITMAP
C0
C0
C0
00
00
00
C0
C0
C0
C0
C0
C0
C0
C0
C0
C0
C0
C0
C0
ENDCHAR
STARTCHAR 00A2
ENCODING 162
SWIDTH 568 0
DWIDTH 15 0
BBX 10 22 2 -4
BITMAP
0200
0200
0200
0200
1FC0
3FC0
7200
E200
E200
C200
C200
C200
C200
E200
6200
7200
3FC0
1FC0
0200
0200
0200
0200
ENDCHAR
STARTCHAR 00A3
ENCODING 163
SWIDTH 568 0
DWIDTH 15 0
BBX 12 19 1 0
BITMAP
07F0
0FF0
0C10
1C00
1C00
1800
1800
1800
1800
7FC0
7FC0
1800
1800
1800
1800
1800
1800
FFF0
FFF0
ENDCHAR
STARTCHAR 00A4
ENCODING 164
SWIDTH 568 0
DWIDTH 15 0
BBX 13 14 1 1
BITMAP
4010
E238
7FF0
3DE0
3060
3060
2020
2060
3060
38E0
3FE0
7FF0
E038
4010
ENDCHAR
STARTCHAR 00A5
ENCODING 165
SWIDTH 568 0
DWIDTH 15 0
BBX 13 19 1 0
BITMAP
C018
6030
6030
3060
3060
18C0
18C0
7DF0
7DF0
0700
0700
0700
7FF0
0700
0700
0700
0700
0700
0700
ENDCHAR
STARTCHAR 00A6
ENCODING 166
SWIDTH 303 0
DWIDTH 8 0
BBX 2 22 3 -4
BITMAP
C0
C0
C0
C0
C0
C0
C0
C0
C0
00
00
00
00
C0
C0
C0
C0
C0
C0
C0
C0
C0
ENDCHAR
STARTCHAR 00A7
ENCODING 167
SWIDTH 454 0
DWIDTH 12 0
BBX 10 21 1 -2
BITMAP
3F00
7F00
6000
6000
6000
7000
3C00
6E00
C780
C180
C0C0
E0C0
7180
3D80
0F00
0700
0380
0180
0180
6700
7F00
ENDCHAR
STARTCHAR 00A8
ENCODING 168
SWIDTH 454 0
DWIDTH 12 0
BBX 7 3 2 17
BITMAP
E6
E6
E6
ENDCHAR
STARTCHAR 00A9
ENCODING 169
SWIDTH 871 0
DWIDTH 23 0
BBX 17 19 3 0
BITMAP
03E000
0F7800
180C00
300200
23F300
473100
4C0180
CC0080
8C0080
8C0080
8C0080
CC0080
4C0080
471100
63F300
300200
180400
0E3800
03E000
ENDCHAR
STARTCHAR 00AA
ENCODING 170
SWIDTH 416 0
DWIDTH 11 0
BBX 8 13 1 6
BITMAP
7E
43
01
01
7F
61
C1
C3
77
7D
00
7F
7F
ENDCHAR
STARTCHAR 00AB
ENCODING 171
SWIDTH 530 0
DWIDTH 14 0
BBX 10 11 2 2
BITMAP
0840
18C0
39C0
7380
E700
C600
E700
7380
39C0
18C0
0840
ENDCHAR
STARTCHAR 00AC
ENCODING 172
SWIDTH 757 0
DWIDTH 20 0
BBX 15 7 2 4
BITMAP
FFFE
FFFE
0006
0006
0006
0006
0006
ENDCHAR
STARTCHAR 00AD
ENCODING 173
SWIDTH 303 0
DWIDTH 8 0
BBX 6 2 1 6
BITMAP
FC
FC
ENDCHAR
STARTCHAR 00AE
ENCODING 174
SWIDTH 871 0
DWIDTH 23 0
BBX 17 19 3 0
BITMAP
03E000
0F7800
180C00
300200
27E300
467100
461180
C61080
863080
87E080
866080
C63080
463080
461900
661B00
300200
180400
0E3800
03E000
ENDCHAR
STARTCHAR 00AF
ENCODING 175
SWIDTH 454 0
DWIDTH 12 0
BBX 7 2 2 17
BITMAP
FE
FE
ENDCHAR
STARTCHAR 00B0
ENCODING 176
SWIDTH 454 0
DWIDTH 12 0
BBX 7 8 2 11
BITMAP
3C
66
C2
C2
C2
46
7E
38
ENDCHAR
STARTCHAR 00B1
ENCODING 177
SWIDTH 757 0
DWIDTH 20 0
BBX 15 16 2 0
BITMAP
0180
0180
0180
0180
0180
FFFE
FFFE
0180
0180
0180
0180
0180
0000
0000
FFFE
FFFE
ENDCHAR
STARTCHAR 00B2
ENCODING 178
SWIDTH 341 0
DWIDTH 9 0
BBX 7 11 1 8
BITMAP
FC
8E
06
06
0C
08
18
30
60
FE
FE
ENDCHAR
STARTCHAR 00B3
ENCODING 179
SWIDTH 341 0
DWIDTH 9 0
BBX 7 11 1 8
BITMAP
FC
86
06
06
3C
3C
06
06
06
FC
78
ENDCHAR
STARTCHAR 00B4
ENCODING 180
SWIDTH 454 0
DWIDTH 12 0
BBX 4 5 5 16
BITMAP
30
30
60
C0
80
ENDCHAR
STARTCHAR 00B5
ENCODING 181
SWIDTH 568 0
DWIDTH 15 0
BBX 12 19 2 -5
BITMAP
C060
C060
C060
C060
C060
C060
C060
C060
C060
C0E0
C0E0
E0E0
FFF0
DF70
C000
C000
C000
C000
C000
ENDCHAR
STARTCHAR 00B6
ENCODING 182
SWIDTH 568 0
DWIDTH 15 0
BBX 10 22 2 -3
BITMAP
1FC0
7FC0
FE40
FE40
FE40
FE40
FE40
FE40
7E40
3E40
0E40
0640
0640
0640
0640
0640
0640
0640
0640
0640
0640
0640
ENDCHAR
STARTCHAR 00B7
ENCODING 183
SWIDTH 265 0
DWIDTH 7 0
BBX 3 4 2 7
BITMAP
E0
E0
E0
E0
ENDCHAR
STARTCHAR 00B8
ENCODING 184
SWIDTH 454 0
DWIDTH 12 0
BBX 5 5 3 -5
BITMAP
10
18
18
F8
F0
ENDCHAR
STARTCHAR 00B9
ENCODING 185
SWIDTH 341 0
DWIDTH 9 0
BBX 6 11 2 8
BITMAP
F0
B0
30
30
30
30
30
30
30
FC
FC
ENDCHAR
STARTCHAR 00BA
ENCODING 186
SWIDTH 416 0
DWIDTH 11 0
BBX 9 13 1 6
BITMAP
3E00
6300
C180
C180
C180
C180
C180
6100
7700
3E00
0000
7F00
7F00
ENDCHAR
STARTCHAR 00BB
ENCODING 187
SWIDTH 530 0
DWIDTH 14 0
BBX 11 11 2 2
BITMAP
8400
C600
6300
3180
18C0
0CE0
39C0
7380
E700
C600
8400
ENDCHAR
STARTCHAR 00BC
ENCODING 188
SWIDTH 871 0
DWIDTH 23 0
BBX 20 19 2 0
BITMAP
F00600
B00600
300C00
300C00
301800
301000
303000
306000
3060C0
FCC1C0
FCC140
018240
018640
030440
030840
060FF0
040040
0C0040
080040
ENDCHAR
STARTCHAR 00BD
ENCODING 189
SWIDTH 871 0
DWIDTH 23 0
BBX 19 19 2 0
BITMAP
F00600
B00600
300C00
300C00
301800
301000
303000
306000
306FC0
FCC860
FCC060
018060
018040
0300C0
030180
060300
040600
0C0FE0
080FE0
ENDCHAR
STARTCHAR 00BE
ENCODING 190
SWIDTH 871 0
DWIDTH 23 0
BBX 21 19 1 0
BITMAP
FC0300
860300
060600
060600
3C0C00
3C0800
061800
063000
063060
FC60E0
7860A0
00C120
00C320
018220
018420
0307F8
020020
060020
040020
ENDCHAR
STARTCHAR 00BF
ENCODING 191
SWIDTH 454 0
DWIDTH 12 0
BBX 9 19 2 -5
BITMAP
0C00
0C00
0C00
0000
0000
0C00
0C00
0C00
1C00
1800
3800
7000
E000
C000
C000
C080
E180
7F80
3E00
ENDCHAR
STARTCHAR 00C0
ENCODING 192
SWIDTH 606 0
DWIDTH 16 0
BBX 16 24 0 0
BITMAP
0300
0180
0180
0000
0000
0180
03C0
03C0
07C0
0660
0660
0E70
0C30
0C30
1C38
1818
1818
3FFC
3FFC
300C
700E
6006
6006
E007
ENDCHAR
STARTCHAR 00C1
ENCODING 193
SWIDTH 606 0
DWIDTH 16 0
BBX 16 24 0 0
BITMAP
00C0
0180
0180
0000
0000
0180
03C0
03C0
07C0
0660
0660
0E70
0C30
0C30
1C38
1818
1818
3FFC
3FFC
300C
700E
6006
6006
E007
ENDCHAR
STARTCHAR 00C2
ENCODING 194
SWIDTH 606 0
DWIDTH 16 0
BBX 16 24 0 0
BITMAP
03C0
0240
0660
0000
0000
0180
03C0
03C0
07C0
0660
0660
0E70
0C30
0C30
1C38
1818
1818
3FFC
3FFC
300C
700E
6006
6006
E007
ENDCHAR
STARTCHAR 00C3
ENCODING 195
SWIDTH 606 0
DWIDTH 16 0
BBX 16 24 0 0
BITMAP
0730
0DE0
0C40
0000
0000
0180
03C0
03C0
07C0
0660
0660
0E70
0C30
0C30
1C38
1818
1818
3FFC
3FFC
300C
700E
6006
6006
E007
ENDCHAR
STARTCHAR 00C4
ENCODING 196
SWIDTH 606 0
DWIDTH 16 0
BBX 16 24 0 0
BITMAP
0660
0660
0660
0000
0000
0180
03C0
03C0
07C0
0660
0660
0E70
0C30
0C30
1C38
1818
1818
3FFC
3FFC
300C
700E
6006
6006
E007
ENDCHAR
STARTCHAR 00C5
ENCODING 197
SWIDTH 606 0
DWIDTH 16 0
BBX 16 24 0 0
BITMAP
03C0
07E0
0420
0420
0660
03C0
03C0
03C0
07C0
0660
0660
0E70
0C30
0C30
1C38
1818
1818
3FFC
3FFC
300C
700E
6006
6006
E007
ENDCHAR
STARTCHAR 00C6
ENCODING 198
SWIDTH 871 0
DWIDTH 23 0
BBX 21 19 0 0
BITMAP
01FFF8
01FFF8
03B800
033800
033800
073800
063800
0E3800
0C3FF8
0C3FF8
1C3800
183800
1FF800
3FF800
303800
703800
603800
603FF8
E03FF8
ENDCHAR
STARTCHAR 00C7
ENCODING 199
SWIDTH 606 0
DWIDTH 16 0
BBX 14 24 1 -5
BITMAP
07F0
1FFC
3C0C
3804
7000
6000
6000
E000
E000
E000
E000
E000
6000
6000
7000
3004
3C0C
1FFC
07F0
00C0
0040
0040
03C0
03C0
ENDCHAR
STARTCHAR 00C8
ENCODING 200
SWIDTH 568 0
DWIDTH 15 0
BBX 11 24 2 0
BITMAP
1C00
0C00
0600
0000
0000
FFE0
FFE0
E000
E000
E000
E000
E000
E000
FFE0
FFE0
E000
E000
E000
E000
E000
E000
E000
FFE0
FFE0
ENDCHAR
STARTCHAR 00C9
ENCODING 201
SWIDTH 568 0
DWIDTH 15 0
BBX 11 24 2 0
BITMAP
0300
0600
0C00
0000
0000
FFE0
FFE0
E000
E000
E000
E000
E000
E000
FFE0
FFE0
E000
E000
E000
E000
E000
E000
E000
FFE0
FFE0
ENDCHAR
STARTCHAR 00CA
ENCODING 202
SWIDTH 568 0
DWIDTH 15 0
BBX 11 24 2 0
BITMAP
0E00
1B00
1180
0000
0000
FFE0
FFE0
E000
E000
E000
E000
E000
E000
FFE0
FFE0
E000
E000
E000
E000
E000
E000
E000
FFE0
FFE0
ENDCHAR
STARTCHAR 00CB
ENCODING 203
SWIDTH 568 0
DWIDTH 15 0
BBX 11 24 2 0
BITMAP
3980
3980
3980
0000
0000
FFE0
FFE0
E000
E000
E000
E000
E000
E000
FFE0
FFE0
E000
E000
E000
E000
E000
E000
E000
FFE0
FFE0
ENDCHAR
STARTCHAR 00CC
ENCODING 204
SWIDTH 265 0
DWIDTH 7 0
BBX 4 24 1 0
BITMAP
C0
60
30
00
00
70
70
70
70
70
70
70
70
70
70
70
70
70
70
70
70
70
70
70
ENDCHAR
STARTCHAR 00CD
ENCODING 205
SWIDTH 265 0
DWIDTH 7 0
BBX 4 24 2 0
BITMAP
70
60
C0
00
00
E0
E0
E0
E0
E0
E0
E0
E0
E0
E0
E0
E0
E0
E0
E0
E0
E0
E0
E0
ENDCHAR
STARTCHAR 00CE
ENCODING 206
SWIDTH 265 0
DWIDTH 7 0
BBX 7 24 0 0
BITMAP
38
6C
C6
00
00
38
38
38
38
38
38
38
38
38
38
38
38
38
38
38
38
38
38
38
ENDCHAR
STARTCHAR 00CF
ENCODING 207
SWIDTH 265 0
DWIDTH 7 0
BBX 7 24 0 0
BITMAP
C6
C6
C6
00
00
38
38
38
38
38
38
38
38
38
38
38
38
38
38
38
38
38
38
38
ENDCHAR
STARTCHAR 00D0
ENCODING 208
SWIDTH 682 0
DWIDTH 18 0
BBX 17 19 0 0
BITMAP
3FE000
3FF800
383E00
380E00
380700
380300
380300
380380
FF8380
FF8380
380380
380380
380300
380300
380700
380E00
383E00
3FF800
3FE000
ENDCHAR
STARTCHAR 00D1
ENCODING 209
SWIDTH 682 0
DWIDTH 18 0
BBX 13 24 2 0
BITMAP
0E40
1BC0
1080
0000
0000
F018
F018
F818
F818
FC18
EC18
EC18
E618
E618
E318
E318
E198
E198
E1D8
E0D8
E0F8
E078
E078
E038
ENDCHAR
STARTCHAR 00D2
ENCODING 210
SWIDTH 682 0
DWIDTH 18 0
BBX 16 24 1 0
BITMAP
0300
0180
0080
0000
0000
07F0
1FF8
3C1C
380E
7006
6007
6007
E003
E003
E003
E003
E003
6007
6007
7006
300E
3C1C
1FF8
07F0
ENDCHAR
STARTCHAR 00D3
ENCODING 211
SWIDTH 682 0
DWIDTH 18 0
BBX 16 24 1 0
BITMAP
00C0
00C0
0180
0000
0000
07F0
1FF8
3C1C
380E
7006
6007
6007
E003
E003
E003
E003
E003
6007
6007
7006
300E
3C1C
1FF8
07F0
ENDCHAR
STARTCHAR 00D4
ENCODING 212
SWIDTH 682 0
DWIDTH 18 0
BBX 16 24 1 0
BITMAP
03C0
0360
0620
0000
0000
07F0
1FF8
3C1C
380E
7006
6007
6007
E003
E003
E003
E003
E003
6007
6007
7006
300E
3C1C
1FF8
07F0
ENDCHAR
STARTCHAR 00D5
ENCODING 213
SWIDTH 682 0
DWIDTH 18 0
BBX 16 24 1 0
BITMAP
07B0
05F0
0C40
0000
0000
07F0
1FF8
3C1C
380E
7006
6007
6007
E003
E003
E003
E003
E003
6007
6007
7006
300E
3C1C
1FF8
07F0
ENDCHAR
STARTCHAR 00D6
ENCODING 214
SWIDTH 682 0
DWIDTH 18 0
BBX 16 24 1 0
BITMAP
0670
0670
0670
0000
0000
07F0
1FF8
3C1C
380E
7006
6007
6007
E003
E003
E003
E003
E003
6007
6007
7006
300E
3C1C
1FF8
07F0
ENDCHAR
STARTCHAR 00D7
ENCODING 215
SWIDTH 757 0
DWIDTH 20 0
BBX 13 14 3 2
BITMAP
4018
6038
3070
38E0
1CC0
0F80
0780
0780
0FC0
1CE0
3860
7030
E018
4018
ENDCHAR
STARTCHAR 00D8
ENCODING 216
SWIDTH 682 0
DWIDTH 18 0
BBX 16 20 1 0
BITMAP
07F3
1FFE
3C1E
380E
701E
6037
6037
E063
E0C3
E183
E383
E303
6607
6C07
7806
380E
3C1C
7FF8
C7F0
4000
ENDCHAR
STARTCHAR 00D9
ENCODING 217
SWIDTH 644 0
DWIDTH 17 0
BBX 13 24 2 0
BITMAP
0E00
0600
0300
0000
0000
C018
C018
C018
C018
C018
C018
C018
C018
C018
C018
C018
C018
C018
C018
E038
6038
7070
3FE0
1FC0
ENDCHAR
STARTCHAR 00DA
ENCODING 218
SWIDTH 644 0
DWIDTH 17 0
BBX 13 24 2 0
BITMAP
0180
0300
0600
0000
0000
C018
C018
C018
C018
C018
C018
C018
C018
C018
C018
C018
C018
C018
C018
E038
6038
7070
3FE0
1FC0
ENDCHAR
STARTCHAR 00DB
ENCODING 219
SWIDTH 644 0
DWIDTH 17 0
BBX 13 24 2 0
BITMAP
0700
0D80
18C0
0000
0000
C018
C018
C018
C018
C018
C018
C018
C018
C018
C018
C018
C018
C018
C018
E038
6038
7070
3FE0
1FC0
ENDCHAR
STARTCHAR 00DC
ENCODING 220
SWIDTH 644 0
DWIDTH 17 0
BBX 13 24 2 0
BITMAP
1CC0
1CC0
1CC0
0000
0000
C018
C018
C018
C018
C018
C018
C018
C018
C018
C018
C018
C018
C018
C018
E038
6038
7070
3FE0
1FC0
ENDCHAR
STARTCHAR 00DD
ENCODING 221
SWIDTH 530 0
DWIDTH 14 0
BBX 14 24 0 0
BITMAP
0180
0100
0300
0000
0000
E00C
6018
7038
3830
1870
1C60
0CC0
07C0
0780
0380
0300
0300
0300
0300
0300
0300
0300
0300
0300
ENDCHAR
STARTCHAR 00DE
ENCODING 222
SWIDTH 530 0
DWIDTH 14 0
BBX 11 19 2 0
BITMAP
E000
E000
E000
FC00
FF80
E7C0
E0E0
E060
E060
E060
E060
E0E0
E3C0
FFC0
FE00
E000
E000
E000
E000
ENDCHAR
STARTCHAR 00DF
ENCODING 223
SWIDTH 568 0
DWIDTH 15 0
BBX 12 20 2 0
BITMAP
0E00
3F80
7180
E0C0
C0C0
C1C0
C700
C600
C600
C600
C600
C780
C3C0
C0E0
C060
C070
C070
C060
CFE0
CFC0
ENDCHAR
STARTCHAR 00E0
ENCODING 224
SWIDTH 530 0
DWIDTH 14 0
BBX 11 21 1 0
BITMAP
3000
1800
0C00
0C00
0600
0000
0400
7F80
7BC0
40E0
0060
0060
1FE0
3FE0
6060
6060
E060
E0E0
60E0
7FE0
3F60
ENDCHAR
STARTCHAR 00E1
ENCODING 225
SWIDTH 530 0
DWIDTH 14 0
BBX 11 21 1 0
BITMAP
0180
0380
0300
0600
0C00
0000
0400
7F80
7BC0
40E0
0060
0060
1FE0
3FE0
6060
6060
E060
E0E0
60E0
7FE0
3F60
ENDCHAR
STARTCHAR 00E2
ENCODING 226
SWIDTH 530 0
DWIDTH 14 0
BBX 11 21 1 0
BITMAP
0600
0E00
0B00
1980
3080
0000
0400
7F80
7BC0
40E0
0060
0060
1FE0
3FE0
6060
6060
E060
E0E0
60E0
7FE0
3F60
ENDCHAR
STARTCHAR 00E3
ENCODING 227
SWIDTH 530 0
DWIDTH 14 0
BBX 11 20 1 0
BITMAP
1CC0
3680
3380
0000
0000
0400
7F80
7BC0
40E0
0060
0060
1FE0
3FE0
6060
6060
E060
E0E0
60E0
7FE0
3F60
ENDCHAR
STARTCHAR 00E4
ENCODING 228
SWIDTH 530 0
DWIDTH 14 0
BBX 11 20 1 0
BITMAP
3980
3980
3980
0000
0000
0400
7F80
7BC0
40E0
0060
0060
1FE0
3FE0
6060
6060
E060
E0E0
60E0
7FE0
3F60
ENDCHAR
STARTCHAR 00E5
ENCODING 229
SWIDTH 530 0
DWIDTH 14 0
BBX 11 23 1 0
BITMAP
0E00
1F00
1180
1080
1180
1B00
0F00
0000
0400
7F80
7BC0
40E0
0060
0060
1FE0
3FE0
6060
6060
E060
E0E0
60E0
7FE0
3F60
ENDCHAR
STARTCHAR 00E6
ENCODING 230
SWIDTH 871 0
DWIDTH 23 0
BBX 21 15 1 0
BITMAP
040000
7F8FC0
7BDEE0
40F030
007030
006018
1FE018
3FFFF8
606000
606000
E06000
E0F000
60F810
7F9FF0
3F0FF0
ENDCHAR
STARTCHAR 00E7
ENCODING 231
SWIDTH 492 0
DWIDTH 13 0
BBX 10 20 1 -5
BITMAP
0200
1FC0
3DC0
7000
6000
6000
E000
E000
E000
E000
6000
6000
7000
3FC0
1FC0
0300
0100
0180
0F80
0F00
ENDCHAR
STARTCHAR 00E8
ENCODING 232
SWIDTH 530 0
DWIDTH 14 0
BBX 12 21 1 0
BITMAP
1800
0C00
0C00
0600
0300
0000
0200
1FC0
3DE0
7060
6030
6030
E030
FFF0
C000
E000
6000
6000
7010
3FF0
1FE0
ENDCHAR
STARTCHAR 00E9
ENCODING 233
SWIDTH 530 0
DWIDTH 14 0
BBX 12 21 1 0
BITMAP
00C0
0180
0380
0300
0600
0000
0200
1FC0
3DE0
7060
6030
6030
E030
FFF0
C000
E000
6000
6000
7010
3FF0
1FE0
ENDCHAR
STARTCHAR 00EA
ENCODING 234
SWIDTH 530 0
DWIDTH 14 0
BBX 12 21 1 0
BITMAP
0600
0700
0D80
0880
18C0
0000
0200
1FC0
3DE0
7060
6030
6030
E030
FFF0
C000
E000
6000
6000
7010
3FF0
1FE0
ENDCHAR
STARTCHAR 00EB
ENCODING 235
SWIDTH 530 0
DWIDTH 14 0
BBX 12 20 1 0
BITMAP
18C0
18C0
18C0
0000
0000
0200
1FC0
3DE0
7060
6030
6030
E030
FFF0
C000
E000
6000
6000
7010
3FF0
1FE0
ENDCHAR
STARTCHAR 00EC
ENCODING 236
SWIDTH 265 0
DWIDTH 7 0
BBX 5 21 0 0
BITMAP
C0
C0
60
30
18
00
00
30
30
30
30
30
30
30
30
30
30
30
30
30
30
ENDCHAR
STARTCHAR 00ED
ENCODING 237
SWIDTH 265 0
DWIDTH 7 0
BBX 5 21 2 0
BITMAP
18
30
60
60
C0
00
00
C0
C0
C0
C0
C0
C0
C0
C0
C0
C0
C0
C0
C0
C0
ENDCHAR
STARTCHAR 00EE
ENCODING 238
SWIDTH 265 0
DWIDTH 7 0
BBX 7 21 0 0
BITMAP
30
38
68
CC
C6
00
00
30
30
30
30
30
30
30
30
30
30
30
30
30
30
ENDCHAR
STARTCHAR 00EF
ENCODING 239
SWIDTH 265 0
DWIDTH 7 0
BBX 7 20 0 0
BITMAP
CE
CE
CE
00
00
00
30
30
30
30
30
30
30
30
30
30
30
30
30
30
ENDCHAR
STARTCHAR 00F0
ENCODING 240
SWIDTH 530 0
DWIDTH 14 0
BBX 12 20 1 0
BITMAP
1800
0CE0
0F80
1F00
3300
0180
0FC0
3FE0
3860
6060
6070
E030
E030
E030
E030
6070
6060
70E0
3FC0
1F80
ENDCHAR
STARTCHAR 00F1
ENCODING 241
SWIDTH 568 0
DWIDTH 15 0
BBX 11 20 2 0
BITMAP
1C80
3F80
2780
0000
0000
0200
DF80
DFC0
E0C0
E0E0
C060
C060
C060
C060
C060
C060
C060
C060
C060
C060
ENDCHAR
STARTCHAR 00F2
ENCODING 242
SWIDTH 530 0
DWIDTH 14 0
BBX 12 21 1 0
BITMAP
3800
1800
0C00
0600
0200
0000
0400
1FC0
3FE0
70E0
6070
E030
E030
E030
E030
E030
6070
6060
70E0
3FC0
1F80
ENDCHAR
STARTCHAR 00F3
ENCODING 243
SWIDTH 530 0
DWIDTH 14 0
BBX 12 21 1 0
BITMAP
00C0
0180
0300
0200
0600
0000
0400
1FC0
3FE0
70E0
6070
E030
E030
E030
E030
E030
6070
6060
70E0
3FC0
1F80
ENDCHAR
STARTCHAR 00F4
ENCODING 244
SWIDTH 530 0
DWIDTH 14 0
BBX 12 21 1 0
BITMAP
0600
0700
0D00
1980
10C0
0000
0400
1FC0
3FE0
70E0
6070
E030
E030
E030
E030
E030
6070
6060
70E0
3FC0
1F80
ENDCHAR
STARTCHAR 00F5
ENCODING 245
SWIDTH 530 0
DWIDTH 14 0
BBX 12 20 1 0
BITMAP
1CC0
1EC0
3380
0000
0000
0400
1FC0
3FE0
70E0
6070
E030
E030
E030
E030
E030
6070
6060
70E0
3FC0
1F80
ENDCHAR
STARTCHAR 00F6
ENCODING 246
SWIDTH 530 0
DWIDTH 14 0
BBX 12 20 1 0
BITMAP
19C0
19C0
19C0
0000
0000
0400
1FC0
3FE0
70E0
6070
E030
E030
E030
E030
E030
6070
6060
70E0
3FC0
1F80
ENDCHAR
STARTCHAR 00F7
ENCODING 247
SWIDTH 757 0
DWIDTH 20 0
BBX 15 12 2 2
BITMAP
0380
0380
0380
0000
0000
FFFE
FFFE
0000
0000
0380
0380
0380
ENDCHAR
STARTCHAR 00F8
ENCODING 248
SWIDTH 530 0
DWIDTH 14 0
BBX 12 16 1 -1
BITMAP
0610
1FB0
3DE0
70E0
60F0
E1B0
E330
E230
E630
EC30
7870
7060
70E0
7FC0
DF80
8000
ENDCHAR
STARTCHAR 00F9
ENCODING 249
SWIDTH 568 0
DWIDTH 15 0
BBX 11 21 2 0
BITMAP
3000
3000
1800
0C00
0600
0000
0000
C060
C060
C060
C060
C060
C060
C060
C060
C060
C0E0
C0E0
E1E0
7F60
3E60
ENDCHAR
STARTCHAR 00FA
ENCODING 250
SWIDTH 568 0
DWIDTH 15 0
BBX 11 21 2 0
BITMAP
0180
0300
0600
0600
0C00
0000
0000
C060
C060
C060
C060
C060
C060
C060
C060
C060
C0E0
C0E0
E1E0
7F60
3E60
ENDCHAR
STARTCHAR 00FB
ENCODING 251
SWIDTH 568 0
DWIDTH 15 0
BBX 11 21 2 0
BITMAP
0C00
0E00
1A00
3300
3180
0000
0000
C060
C060
C060
C060
C060
C060
C060
C060
C060
C0E0
C0E0
E1E0
7F60
3E60
ENDCHAR
STARTCHAR 00FC
ENCODING 252
SWIDTH 568 0
DWIDTH 15 0
BBX 11 20 2 0
BITMAP
3380
3380
3380
0000
0000
0000
C060
C060
C060
C060
C060
C060
C060
C060
C060
C0E0
C0E0
E1E0
7F60
3E60
ENDCHAR
STARTCHAR 00FD
ENCODING 253
SWIDTH 530 0
DWIDTH 14 0
BBX 12 26 1 -5
BITMAP
01C0
0180
0300
0600
0400
0000
0000
C030
E070
6060
6060
70C0
30C0
31C0
1980
1980
1B80
0F00
0F00
0F00
0600
0600
0C00
0C00
7C00
7800
ENDCHAR
STARTCHAR 00FE
ENCODING 254
SWIDTH 568 0
DWIDTH 15 0
BBX 12 25 2 -5
BITMAP
C000
C000
C000
C000
C000
C200
DF80
FBC0
E0E0
E060
E060
C070
C070
C070
C060
E060
E060
F0E0
DFC0
CF80
C000
C000
C000
C000
C000
ENDCHAR
STARTCHAR 00FF
ENCODING 255
SWIDTH 530 0
DWIDTH 14 0
BBX 12 25 1 -5
BITMAP
1980
1980
1980
0000
0000
0000
C030
E070
6060
6060
70C0
30C0
31C0
1980
1980
1B80
0F00
0F00
0F00
0600
0600
0C00
0C00
7C00
7800
ENDCHAR
STARTCHAR 0100
ENCODING 256
SWIDTH 606 0
DWIDTH 16 0
BBX 16 23 0 0
BITMAP
07E0
07E0
0000
0000
0180
03C0
03C0
07C0
0660
0660
0E70
0C30
0C30
1C38
1818
1818
3FFC
3FFC
300C
700E
6006
6006
E007
ENDCHAR
STARTCHAR 0101
ENCODING 257
SWIDTH 530 0
DWIDTH 14 0
BBX 11 19 1 0
BITMAP
3F80
3F80
0000
0000
0400
7F80
7BC0
40E0
0060
0060
1FE0
3FE0
6060
6060
E060
E0E0
60E0
7FE0
3F60
ENDCHAR
STARTCHAR 0102
ENCODING 258
SWIDTH 606 0
DWIDTH 16 0
BBX 16 24 0 0
BITMAP
0430
07E0
03E0
0000
0000
0180
03C0
03C0
07C0
0660
0660
0E70
0C30
0C30
1C38
1818
1818
3FFC
3FFC
300C
700E
6006
6006
E007
ENDCHAR
STARTCHAR 0103
ENCODING 259
SWIDTH 530 0
DWIDTH 14 0
BBX 11 19 1 0
BITMAP
3080
1F80
1F00
0000
0400
7F80
7BC0
40E0
0060
0060
1FE0
3FE0
6060
6060
E060
E0E0
60E0
7FE0
3F60
ENDCHAR
STARTCHAR 0104
ENCODING 260
SWIDTH 606 0
DWIDTH 16 0
BBX 17 24 0 -5
BITMAP
018000
03C000
03C000
07C000
066000
066000
0E7000
0C3000
0C3000
1C3800
181800
181800
3FFC00
3FFC00
300C00
700E00
600600
600600
E00700
000600
000400
000C00
000F80
000780
ENDCHAR
STARTCHAR 0105
ENCODING 261
SWIDTH 530 0
DWIDTH 14 0
BBX 12 20 1 -5
BITMAP
0400
7F80
7BC0
40E0
0060
0060
1FE0
3FE0
6060
6060
E060
E0E0
60E0
7FE0
3F60
0040
00C0
00C0
00F0
0070
ENDCHAR
STARTCHAR 0106
ENCODING 262
SWIDTH 606 0
DWIDTH 16 0
BBX 14 24 1 0
BITMAP
00E0
00C0
0180
0000
0000
07F0
1FFC
3C0C
3804
7000
6000
6000
E000
E000
E000
E000
E000
6000
6000
7000
3004
3C0C
1FFC
07F0
ENDCHAR
STARTCHAR 0107
ENCODING 263
SWIDTH 492 0
DWIDTH 13 0
BBX 10 21 1 0
BITMAP
00C0
0180
0380
0300
0600
0000
0200
1FC0
3DC0
7000
6000
6000
E000
E000
E000
E000
6000
6000
7000
3FC0
1FC0
ENDCHAR
STARTCHAR 0108
ENCODING 264
SWIDTH 606 0
DWIDTH 16 0
BBX 14 24 1 0
BITMAP
01C0
0360
0630
0000
0000
07F0
1FFC
3C0C
3804
7000
6000
6000
E000
E000
E000
E000
E000
6000
6000
7000
3004
3C0C
1FFC
07F0
ENDCHAR
STARTCHAR 0109
ENCODING 265
SWIDTH 492 0
DWIDTH 13 0
BBX 10 21 1 0
BITMAP
0300
0700
0580
0C80
18C0
0000
0200
1FC0
3DC0
7000
6000
6000
E000
E000
E000
E000
6000
6000
7000
3FC0
1FC0
ENDCHAR
STARTCHAR 010A
ENCODING 266
SWIDTH 606 0
DWIDTH 16 0
BBX 14 24 1 0
BITMAP
01C0
01C0
01C0
0000
0000
07F0
1FFC
3C0C
3804
7000
6000
6000
E000
E000
E000
E000
E000
6000
6000
7000
3004
3C0C
1FFC
07F0
ENDCHAR
STARTCHAR 010B
ENCODING 267
SWIDTH 492 0
DWIDTH 13 0
BBX 10 20 1 0
BITMAP
0300
0300
0300
0000
0000
0200
1FC0
3DC0
7000
6000
6000
E000
E000
E000
E000
6000
6000
7000
3FC0
1FC0
ENDCHAR
STARTCHAR 010C
ENCODING 268
SWIDTH 606 0
DWIDTH 16 0
BBX 14 24 1 0
BITMAP
0660
0340
01C0
0000
0000
07F0
1FFC
3C0C
3804
7000
6000
6000
E000
E000
E000
E000
E000
6000
6000
7000
3004
3C0C
1FFC
07F0
ENDCHAR
STARTCHAR 010D
ENCODING 269
SWIDTH 492 0
DWIDTH 13 0
BBX 10 21 1 0
BITMAP
18C0
0880
0D80
0700
0700
0000
0200
1FC0
3DC0
7000
6000
6000
E000
E000
E000
E000
6000
6000
7000
3FC0
1FC0
ENDCHAR
STARTCHAR 010E
ENCODING 270
SWIDTH 682 0
DWIDTH 18 0
BBX 15 24 2 0
BITMAP
08C0
0D80
0700
0000
0000
FF80
FFE0
E0F0
E038
E01C
E00C
E00C
E00E
E00E
E00E
E00E
E00E
E00C
E00C
E01C
E038
E0F0
FFE0
FF80
ENDCHAR
STARTCHAR 010F
ENCODING 271
SWIDTH 568 0
DWIDTH 15 0
BBX 16 20 1 0
BITMAP
0033
0033
0037
0036
0036
0430
1FB0
3FB0
70F0
6070
E070
E030
C030
C030
E070
6070
6070
70F0
3FB0
1F30
ENDCHAR
STARTCHAR 0110
ENCODING 272
SWIDTH 682 0
DWIDTH 18 0
BBX 17 19 0 0
BITMAP
3FE000
3FF800
383E00
380E00
380700
380300
380300
380380
FF8380
FF8380
380380
380380
380300
380300
380700
380E00
383E00
3FF800
3FE000
ENDCHAR
STARTCHAR 0111
ENCODING 273
SWIDTH 568 0
DWIDTH 15 0
BBX 13 20 1 0
BITMAP
0030
0030
03F8
03F8
0030
0430
1FB0
3FB0
70F0
6070
E070
E030
C030
C030
E070
6070
6070
70F0
3FB0
1F30
ENDCHAR
STARTCHAR 0112
ENCODING 274
SWIDTH 568 0
DWIDTH 15 0
BBX 11 23 2 0
BITMAP
3F80
3F80
0000
0000
FFE0
FFE0
E000
E000
E000
E000
E000
E000
FFE0
FFE0
E000
E000
E000
E000
E000
E000
E000
FFE0
FFE0
ENDCHAR
STARTCHAR 0113
ENCODING 275
SWIDTH 530 0
DWIDTH 14 0
BBX 12 19 1 0
BITMAP
1FC0
1FC0
0000
0000
0200
1FC0
3DE0
7060
6030
6030
E030
FFF0
C000
E000
6000
6000
7010
3FF0
1FE0
ENDCHAR
STARTCHAR 0114
ENCODING 276
SWIDTH 568 0
DWIDTH 15 0
BBX 11 24 2 0
BITMAP
3180
1F80
0E00
0000
0000
FFE0
FFE0
E000
E000
E000
E000
E000
E000
FFE0
FFE0
E000
E000
E000
E000
E000
E000
E000
FFE0
FFE0
ENDCHAR
STARTCHAR 0115
ENCODING 277
SWIDTH 530 0
DWIDTH 14 0
BBX 12 20 1 0
BITMAP
18C0
1FC0
0F80
0000
0000
0200
1FC0
3DE0
7060
6030
6030
E030
FFF0
C000
E000
6000
6000
7010
3FF0
1FE0
ENDCHAR
STARTCHAR 0116
ENCODING 278
SWIDTH 568 0
DWIDTH 15 0
BBX 11 24 2 0
BITMAP
0E00
0E00
0E00
0000
0000
FFE0
FFE0
E000
E000
E000
E000
E000
E000
FFE0
FFE0
E000
E000
E000
E000
E000
E000
E000
FFE0
FFE0
ENDCHAR
STARTCHAR 0117
ENCODING 279
SWIDTH 530 0
DWIDTH 14 0
BBX 12 20 1 0
BITMAP
0700
0700
0700
0000
0000
0200
1FC0
3DE0
7060
6030
6030
E030
FFF0
C000
E000
6000
6000
7010
3FF0
1FE0
ENDCHAR
STARTCHAR 0118
ENCODING 280
SWIDTH 568 0
DWIDTH 15 0
BBX 11 24 2 -5
BITMAP
FFE0
FFE0
E000
E000
E000
E000
E000
E000
FFE0
FFE0
E000
E000
E000
E000
E000
E000
E000
FFE0
FFE0
0080
0180
0180
01E0
00E0
ENDCHAR
STARTCHAR 0119
ENCODING 281
SWIDTH 530 0
DWIDTH 14 0
BBX 12 20 1 -5
BITMAP
0200
1FC0
3DE0
7060
6030
6030
E030
FFF0
C000
E000
6000
6000
7010
3FF0
1FE0
0080
0180
0180
01E0
00E0
ENDCHAR
STARTCHAR 011A
ENCODING 282
SWIDTH 568 0
DWIDTH 15 0
BBX 11 24 2 0
BITMAP
1980
0B00
0E00
0000
0000
FFE0
FFE0
E000
E000
E000
E000
E000
E000
FFE0
FFE0
E000
E000
E000
E000
E000
E000
E000
FFE0
FFE0
ENDCHAR
STARTCHAR 011B
ENCODING 283
SWIDTH 530 0
DWIDTH 14 0
BBX 12 21 1 0
BITMAP
18C0
0880
0D80
0700
0700
0000
0200
1FC0
3DE0
7060
6030
6030
E030
FFF0
C000
E000
6000
6000
7010
3FF0
1FE0
ENDCHAR
STARTCHAR 011C
ENCODING 284
SWIDTH 682 0
DWIDTH 18 0
BBX 15 24 1 0
BITMAP
01E0
0360
0230
0000
0000
07F8
1FFE
3C0E
3802
7000
6000
6000
E000
E000
E07E
E07E
E006
6006
6006
7006
3006
3C06
1FFE
07F8
ENDCHAR
STARTCHAR 011D
ENCODING 285
SWIDTH 568 0
DWIDTH 15 0
BBX 12 26 1 -5
BITMAP
0600
0F00
0F00
1980
1080
0000
0400
1FB0
3FB0
70F0
6070
E070
E030
C030
C030
E070
6070
6070
70F0
3FB0
1F30
0070
0060
00E0
3FC0
3F80
ENDCHAR
STARTCHAR 011E
ENCODING 286
SWIDTH 682 0
DWIDTH 18 0
BBX 15 24 1 0
BITMAP
0430
07E0
0180
0000
0000
07F8
1FFE
3C0E
3802
7000
6000
6000
E000
E000
E07E
E07E
E006
6006
6006
7006
3006
3C06
1FFE
07F8
ENDCHAR
STARTCHAR 011F
ENCODING 287
SWIDTH 568 0
DWIDTH 15 0
BBX 12 25 1 -5
BITMAP
10C0
1FC0
0F80
0000
0000
0400
1FB0
3FB0
70F0
6070
E070
E030
C030
C030
E070
6070
6070
70F0
3FB0
1F30
0070
0060
00E0
3FC0
3F80
ENDCHAR
STARTCHAR 0120
ENCODING 288
SWIDTH 682 0
DWIDTH 18 0
BBX 15 24 1 0
BITMAP
00C0
00C0
00C0
0000
0000
07F8
1FFE
3C0E
3802
7000
6000
6000
E000
E000
E07E
E07E
E006
6006
6006
7006
3006
3C06
1FFE
07F8
ENDCHAR
STARTCHAR 0121
ENCODING 289
SWIDTH 568 0
DWIDTH 15 0
BBX 12 25 1 -5
BITMAP
0600
0600
0600
0000
0000
0400
1FB0
3FB0
70F0
6070
E070
E030
C030
C030
E070
6070
6070
70F0
3FB0
1F30
0070
0060
00E0
3FC0
3F80
ENDCHAR
STARTCHAR 0122
ENCODING 290
SWIDTH 682 0
DWIDTH 18 0
BBX 15 25 1 -6
BITMAP
07F8
1FFE
3C0E
3802
7000
6000
6000
E000
E000
E07E
E07E
E006
6006
6006
7006
3006
3C06
1FFE
07F8
0000
0000
00C0
00C0
0080
0180
ENDCHAR
STARTCHAR 0123
ENCODING 291
SWIDTH 568 0
DWIDTH 15 0
BBX 12 25 1 -5
BITMAP
0100
0300
0300
0600
0000
0400
1FB0
3FB0
70F0
6070
E070
E030
C030
C030
E070
6070
6070
70F0
3FB0
1F30
0070
0060
00E0
3FC0
3F80
ENDCHAR
STARTCHAR 0124
ENCODING 292
SWIDTH 682 0
DWIDTH 18 0
BBX 13 24 2 0
BITMAP
0780
0D80
08C0
0000
0000
E018
E018
E018
E018
E018
E018
E018
E018
FFF8
FFF8
E018
E018
E018
E018
E018
E018
E018
E018
E018
ENDCHAR
STARTCHAR 0125
ENCODING 293
SWIDTH 568 0
DWIDTH 15 0
BBX 13 24 0 0
BITMAP
7800
6C00
C400
0000
3000
3000
3000
3000
3000
3080
37E0
37F0
3830
3838
3018
3018
3018
3018
3018
3018
3018
3018
3018
3018
ENDCHAR
STARTCHAR 0126
ENCODING 294
SWIDTH 795 0
DWIDTH 21 0
BBX 17 19 2 0
BITMAP
380600
380600
380600
FFFF80
FFFF80
380600
380600
380600
3FFE00
3FFE00
380600
380600
380600
380600
380600
380600
380600
380600
380600
ENDCHAR
STARTCHAR 0127
ENCODING 295
SWIDTH 606 0
DWIDTH 16 0
BBX 13 20 1 0
BITMAP
3000
3000
FF00
FF00
3000
3000
37E0
3EF0
3830
3030
3030
3038
3038
3038
3038
3038
3038
3038
3038
3038
ENDCHAR
STARTCHAR 0128
ENCODING 296
SWIDTH 265 0
DWIDTH 7 0
BBX 7 24 0 0
BITMAP
F2
DE
88
00
00
38
38
38
38
38
38
38
38
38
38
38
38
38
38
38
38
38
38
38
ENDCHAR
STARTCHAR 0129
ENCODING 297
SWIDTH 265 0
DWIDTH 7 0
BBX 7 20 0 0
BITMAP
E2
F6
9C
00
00
00
30
30
30
30
30
30
30
30
30
30
30
30
30
30
ENDCHAR
STARTCHAR 012A
ENCODING 298
SWIDTH 265 0
DWIDTH 7 0
BBX 7 23 0 0
BITMAP
FE
FE
00
00
38
38
38
38
38
38
38
38
38
38
38
38
38
38
38
38
38
38
38
ENDCHAR
STARTCHAR 012B
ENCODING 299
SWIDTH 265 0
DWIDTH 7 0
BBX 7 19 0 0
BITMAP
FE
FE
00
00
00
30
30
30
30
30
30
30
30
30
30
30
30
30
30
ENDCHAR
STARTCHAR 012C
ENCODING 300
SWIDTH 265 0
DWIDTH 7 0
BBX 7 24 0 0
BITMAP
C6
7C
38
00
00
38
38
38
38
38
38
38
38
38
38
38
38
38
38
38
38
38
38
38
ENDCHAR
STARTCHAR 012D
ENCODING 301
SWIDTH 265 0
DWIDTH 7 0
BBX 7 20 0 0
BITMAP
86
FC
7C
00
00
00
30
30
30
30
30
30
30
30
30
30
30
30
30
30
ENDCHAR
STARTCHAR 012E
ENCODING 302
SWIDTH 265 0
DWIDTH 7 0
BBX 4 24 2 -5
BITMAP
E0
E0
E0
E0
E0
E0
E0
E0
E0
E0
E0
E0
E0
E0
E0
E0
E0
E0
E0
40
C0
C0
F0
70
ENDCHAR
STARTCHAR 012F
ENCODING 303
SWIDTH 265 0
DWIDTH 7 0
BBX 4 25 2 -5
BITMAP
C0
C0
C0
00
00
00
C0
C0
C0
C0
C0
C0
C0
C0
C0
C0
C0
C0
C0
C0
40
80
80
F0
F0
ENDCHAR
STARTCHAR 0130
ENCODING 304
SWIDTH 265 0
DWIDTH 7 0
BBX 3 24 2 0
BITMAP
E0
E0
E0
00
00
E0
E0
E0
E0
E0
E0
E0
E0
E0
E0
E0
E0
E0
E0
E0
E0
E0
E0
E0
ENDCHAR
STARTCHAR 0131
ENCODING 305
SWIDTH 265 0
DWIDTH 7 0
BBX 2 14 2 1
BITMAP
C0
C0
C0
C0
C0
C0
C0
C0
C0
C0
C0
C0
C0
C0
ENDCHAR
STARTCHAR 0132
ENCODING 306
SWIDTH 530 0
DWIDTH 14 0
BBX 10 24 2 -5
BITMAP
E1C0
E1C0
E1C0
E1C0
E1C0
E1C0
E1C0
E1C0
E1C0
E1C0
E1C0
E1C0
E1C0
E1C0
E1C0
E1C0
E1C0
E1C0
E180
0180
0180
0380
0F00
0E00
ENDCHAR
STARTCHAR 0133
ENCODING 307
SWIDTH 492 0
DWIDTH 13 0
BBX 9 25 2 -5
BITMAP
C180
C180
C180
0000
0000
0000
C180
C180
C180
C180
C180
C180
C180
C180
C180
C180
C180
C180
C180
C180
0180
0180
0380
0F00
0F00
ENDCHAR
STARTCHAR 0134
ENCODING 308
SWIDTH 265 0
DWIDTH 7 0
BBX 8 29 -1 -5
BITMAP
1C
36
63
00
00
1C
1C
1C
1C
1C
1C
1C
1C
1C
1C
1C
1C
1C
1C
1C
1C
1C
1C
1C
1C
18
38
F8
E0
ENDCHAR
STARTCHAR 0135
ENCODING 309
SWIDTH 265 0
DWIDTH 7 0
BBX 7 26 0 -5
BITMAP
30
38
68
CC
C6
00
00
30
30
30
30
30
30
30
30
30
30
30
30
30
30
30
30
30
F0
E0
ENDCHAR
STARTCHAR 0136
ENCODING 310
SWIDTH 568 0
DWIDTH 15 0
BBX 13 25 2 -6
BITMAP
E038
E070
E0E0
E1C0
E380
E700
EE00
FC00
F800
F800
FC00
EE00
E700
E380
E1C0
E0E0
E070
E070
E038
0000
0000
0380
0300
0300
0200
ENDCHAR
STARTCHAR 0137
ENCODING 311
SWIDTH 530 0
DWIDTH 14 0
BBX 11 26 2 -6
BITMAP
C000
C000
C000
C000
C000
C000
C0E0
C180
C300
C600
CC00
D800
F000
D800
CC00
C600
C700
C380
C1C0
C0E0
0000
0000
0600
0600
0C00
0C00
ENDCHAR
STARTCHAR 0138
ENCODING 312
SWIDTH 530 0
DWIDTH 14 0
BBX 11 14 2 0
BITMAP
C0E0
C180
C300
C600
CC00
D800
F000
D800
CC00
C600
C700
C380
C1C0
C0E0
ENDCHAR
STARTCHAR 0139
ENCODING 313
SWIDTH 492 0
DWIDTH 13 0
BBX 11 24 2 0
BITMAP
3000
2000
6000
0000
0000
E000
E000
E000
E000
E000
E000
E000
E000
E000
E000
E000
E000
E000
E000
E000
E000
E000
FFE0
FFE0
ENDCHAR
STARTCHAR 013A
ENCODING 314
SWIDTH 265 0
DWIDTH 7 0
BBX 4 24 2 0
BITMAP
30
60
40
00
C0
C0
C0
C0
C0
C0
C0
C0
C0
C0
C0
C0
C0
C0
C0
C0
C0
C0
C0
C0
ENDCHAR
STARTCHAR 013B
ENCODING 315
SWIDTH 492 0
DWIDTH 13 0
BBX 11 25 2 -6
BITMAP
E000
E000
E000
E000
E000
E000
E000
E000
E000
E000
E000
E000
E000
E000
E000
E000
E000
FFE0
FFE0
0000
0000
0600
0600
0C00
0C00
ENDCHAR
STARTCHAR 013C
ENCODING 316
SWIDTH 265 0
DWIDTH 7 0
BBX 3 26 2 -6
BITMAP
C0
C0
C0
C0
C0
C0
C0
C0
C0
C0
C0
C0
C0
C0
C0
C0
C0
C0
C0
C0
00
00
E0
C0
C0
80
ENDCHAR
STARTCHAR 013D
ENCODING 317
SWIDTH 492 0
DWIDTH 13 0
BBX 11 19 2 0
BITMAP
E300
E700
E600
E600
E600
E000
E000
E000
E000
E000
E000
E000
E000
E000
E000
E000
E000
FFE0
FFE0
ENDCHAR
STARTCHAR 013E
ENCODING 318
SWIDTH 341 0
DWIDTH 9 0
BBX 7 20 2 0
BITMAP
CE
CC
CC
CC
CC
C0
C0
C0
C0
C0
C0
C0
C0
C0
C0
C0
C0
C0
C0
C0
ENDCHAR
STARTCHAR 013F
ENCODING 319
SWIDTH 492 0
DWIDTH 13 0
BBX 11 19 2 0
BITMAP
E000
E000
E000
E000
E000
E000
E180
E180
E180
E180
E000
E000
E000
E000
E000
E000
E000
FFE0
FFE0
ENDCHAR
STARTCHAR 0140
ENCODING 320
SWIDTH 303 0
DWIDTH 8 0
BBX 5 20 2 0
BITMAP
C0
C0
C0
C0
C0
C0
C0
C0
D8
D8
D8
D8
C0
C0
C0
C0
C0
C0
C0
C0
ENDCHAR
STARTCHAR 0141
ENCODING 321
SWIDTH 492 0
DWIDTH 13 0
BBX 13 19 0 0
BITMAP
3800
3800
3800
3800
3800
3880
3B80
3F00
3E00
3800
7800
F800
B800
3800
3800
3800
3800
3FF8
3FF8
ENDCHAR
STARTCHAR 0142
ENCODING 322
SWIDTH 265 0
DWIDTH 7 0
BBX 6 20 0 0
BITMAP
30
30
30
30
30
30
30
34
3C
38
70
F0
30
30
30
30
30
30
30
30
ENDCHAR
STARTCHAR 0143
ENCODING 323
SWIDTH 682 0
DWIDTH 18 0
BBX 13 24 2 0
BITMAP
0300
0600
0600
0000
0000
F018
F018
F818
F818
FC18
EC18
EC18
E618
E618
E318
E318
E198
E198
E1D8
E0D8
E0F8
E078
E078
E038
ENDCHAR
STARTCHAR 0144
ENCODING 324
SWIDTH 568 0
DWIDTH 15 0
BBX 11 21 2 0
BITMAP
0300
0600
0600
0C00
1800
0000
0200
DF80
DFC0
E0C0
E0E0
C060
C060
C060
C060
C060
C060
C060
C060
C060
C060
ENDCHAR
STARTCHAR 0145
ENCODING 325
SWIDTH 682 0
DWIDTH 18 0
BBX 13 25 2 -6
BITMAP
F018
F018
F818
F818
FC18
EC18
EC18
E618
E618
E318
E318
E198
E198
E1D8
E0D8
E0F8
E078
E078
E038
0000
0000
0300
0300
0600
0600
ENDCHAR
STARTCHAR 0146
ENCODING 326
SWIDTH 568 0
DWIDTH 15 0
BBX 11 21 2 -6
BITMAP
0200
DF80
DFC0
E0C0
E0E0
C060
C060
C060
C060
C060
C060
C060
C060
C060
C060
0000
0000
0600
0E00
0C00
0C00
ENDCHAR
STARTCHAR 0147
ENCODING 327
SWIDTH 682 0
DWIDTH 18 0
BBX 13 24 2 0
BITMAP
0CC0
0580
0700
0000
0000
F018
F018
F818
F818
FC18
EC18
EC18
E618
E618
E318
E318
E198
E198
E1D8
E0D8
E0F8
E078
E078
E038
ENDCHAR
STARTCHAR 0148
ENCODING 328
SWIDTH 568 0
DWIDTH 15 0
BBX 11 21 2 0
BITMAP
3180
1100
1B00
0E00
0E00
0000
0200
DF80
DFC0
E0C0
E0E0
C060
C060
C060
C060
C060
C060
C060
C060
C060
C060
ENDCHAR
STARTCHAR 0149
ENCODING 329
SWIDTH 720 0
DWIDTH 19 0
BBX 15 19 2 0
BITMAP
7000
7000
6000
6000
6020
CDF8
0FFC
0E0C
0E0E
0C06
0C06
0C06
0C06
0C06
0C06
0C06
0C06
0C06
0C06
ENDCHAR
STARTCHAR 014A
ENCODING 330
SWIDTH 682 0
DWIDTH 18 0
BBX 13 24 2 -5
BITMAP
E7C0
EFE0
FCF0
F030
E038
E038
E018
E018
E018
E018
E018
E018
E018
E018
E018
E018
E018
E018
E018
0018
0018
0038
00F0
00F0
ENDCHAR
STARTCHAR 014B
ENCODING 331
SWIDTH 568 0
DWIDTH 15 0
BBX 11 20 2 -5
BITMAP
0200
DF80
DFC0
E0C0
E0E0
C060
C060
C060
C060
C060
C060
C060
C060
C060
C060
0060
0060
00E0
0FC0
0FC0
ENDCHAR
STARTCHAR 014C
ENCODING 332
SWIDTH 682 0
DWIDTH 18 0
BBX 16 23 1 0
BITMAP
07F0
07F0
0000
0000
07F0
1FF8
3C1C
380E
7006
6007
6007
E003
E003
E003
E003
E003
6007
6007
7006
300E
3C1C
1FF8
07F0
ENDCHAR
STARTCHAR 014D
ENCODING 333
SWIDTH 530 0
DWIDTH 14 0
BBX 12 19 1 0
BITMAP
1FC0
1FC0
0000
0000
0400
1FC0
3FE0
70E0
6070
E030
E030
E030
E030
E030
6070
6060
70E0
3FC0
1F80
ENDCHAR
STARTCHAR 014E
ENCODING 334
SWIDTH 682 0
DWIDTH 18 0
BBX 16 24 1 0
BITMAP
0630
07E0
0180
0000
0000
07F0
1FF8
3C1C
380E
7006
6007
6007
E003
E003
E003
E003
E003
6007
6007
7006
300E
3C1C
1FF8
07F0
ENDCHAR
STARTCHAR 014F
ENCODING 335
SWIDTH 530 0
DWIDTH 14 0
BBX 12 20 1 0
BITMAP
10C0
1F80
0F80
0000
0000
0400
1FC0
3FE0
70E0
6070
E030
E030
E030
E030
E030
6070
6060
70E0
3FC0
1F80
ENDCHAR
STARTCHAR 0150
ENCODING 336
SWIDTH 682 0
DWIDTH 18 0
BBX 16 24 1 0
BITMAP
01B8
0330
0660
0000
0000
07F0
1FF8
3C1C
380E
7006
6007
6007
E003
E003
E003
E003
E003
6007
6007
7006
300E
3C1C
1FF8
07F0
ENDCHAR
STARTCHAR 0151
ENCODING 337
SWIDTH 530 0
DWIDTH 14 0
BBX 12 21 1 0
BITMAP
0360
0660
04C0
0CC0
0980
0000
0400
1FC0
3FE0
70E0
6070
E030
E030
E030
E030
E030
6070
6060
70E0
3FC0
1F80
ENDCHAR
STARTCHAR 0152
ENCODING 338
SWIDTH 947 0
DWIDTH 25 0
BBX 23 19 1 0
BITMAP
01FFFC
0FFFFC
1F0C00
380C00
700C00
700C00
600C00
E00C00
E00FFC
E00FFC
E00C00
E00C00
600C00
700C00
700C00
380C00
1F0C00
0FFFFE
03FFFE
ENDCHAR
STARTCHAR 0153
ENCODING 339
SWIDTH 909 0
DWIDTH 24 0
BBX 22 15 1 0
BITMAP
060000
1FC7E0
3FDFF0
70F818
607818
E0301C
E0300C
E03FFC
E03000
E03000
607000
607800
70FC08
3FCFF8
1F87F8
ENDCHAR
STARTCHAR 0154
ENCODING 340
SWIDTH 606 0
DWIDTH 16 0
BBX 13 24 2 0
BITMAP
0300
0600
0C00
0000
0000
FF00
FFC0
E1E0
E0E0
E060
E060
E060
E0E0
E1E0
FFC0
FF80
E1C0
E0E0
E060
E070
E030
E030
E038
E018
ENDCHAR
STARTCHAR 0155
ENCODING 341
SWIDTH 378 0
DWIDTH 10 0
BBX 8 21 2 0
BITMAP
03
06
06
0C
18
00
02
DF
FF
E0
E0
C0
C0
C0
C0
C0
C0
C0
C0
C0
C0
ENDCHAR
STARTCHAR 0156
ENCODING 342
SWIDTH 606 0
DWIDTH 16 0
BBX 13 25 2 -6
BITMAP
FF00
FFC0
E1E0
E0E0
E060
E060
E060
E0E0
E1E0
FFC0
FF80
E1C0
E0E0
E060
E070
E030
E030
E038
E018
0000
0000
0300
0300
0300
0600
ENDCHAR
STARTCHAR 0157
ENCODING 343
SWIDTH 378 0
DWIDTH 10 0
BBX 8 21 2 -6
BITMAP
02
DF
FF
E0
E0
C0
C0
C0
C0
C0
C0
C0
C0
C0
C0
00
00
E0
C0
C0
80
ENDCHAR
STARTCHAR 0158
ENCODING 344
SWIDTH 606 0
DWIDTH 16 0
BBX 13 24 2 0
BITMAP
3300
1A00
0E00
0000
0000
FF00
FFC0
E1E0
E0E0
E060
E060
E060
E0E0
E1E0
FFC0
FF80
E1C0
E0E0
E060
E070
E030
E030
E038
E018
ENDCHAR
STARTCHAR 0159
ENCODING 345
SWIDTH 378 0
DWIDTH 10 0
BBX 8 21 2 0
BITMAP
43
66
34
3C
18
00
02
DF
FF
E0
E0
C0
C0
C0
C0
C0
C0
C0
C0
C0
C0
ENDCHAR
STARTCHAR 015A
ENCODING 346
SWIDTH 568 0
DWIDTH 15 0
BBX 12 24 2 0
BITMAP
0300
0600
0C00
0000
0000
3FC0
7FE0
E060
C000
C000
C000
C000
F000
7F00
3FC0
07E0
00E0
0060
0070
0070
0060
80E0
FFC0
FF80
ENDCHAR
STARTCHAR 015B
ENCODING 347
SWIDTH 454 0
DWIDTH 12 0
BBX 10 21 1 0
BITMAP
0180
0300
0300
0600
0C00
0000
0400
3F80
7380
E000
C000
E000
7800
3F00
0F80
01C0
00C0
00C0
81C0
FF80
FF00
ENDCHAR
STARTCHAR 015C
ENCODING 348
SWIDTH 568 0
DWIDTH 15 0
BBX 12 24 2 0
BITMAP
0E00
1B00
3180
0000
0000
3FC0
7FE0
E060
C000
C000
C000
C000
F000
7F00
3FC0
07E0
00E0
0060
0070
0070
0060
80E0
FFC0
FF80
ENDCHAR
STARTCHAR 015D
ENCODING 349
SWIDTH 454 0
DWIDTH 12 0
BBX 10 21 1 0
BITMAP
0C00
0E00
1A00
3300
3180
0000
0400
3F80
7380
E000
C000
E000
7800
3F00
0F80
01C0
00C0
00C0
81C0
FF80
FF00
ENDCHAR
STARTCHAR 015E
ENCODING 350
SWIDTH 568 0
DWIDTH 15 0
BBX 12 24 2 -5
BITMAP
3FC0
7FE0
E060
C000
C000
C000
C000
F000
7F00
3FC0
07E0
00E0
0060
0070
0070
0060
80E0
FFC0
FF80
0600
0200
0300
1F00
1E00
ENDCHAR
STARTCHAR 015F
ENCODING 351
SWIDTH 454 0
DWIDTH 12 0
BBX 10 20 1 -5
BITMAP
0400
3F80
7380
E000
C000
E000
7800
3F00
0F80
01C0
00C0
00C0
81C0
FF80
FF00
0400
0200
0200
1E00
1E00
ENDCHAR
STARTCHAR 0160
ENCODING 352
SWIDTH 568 0
DWIDTH 15 0
BBX 12 24 2 0
BITMAP
3100
1B00
0E00
0000
0000
3FC0
7FE0
E060
C000
C000
C000
C000
F000
7F00
3FC0
07E0
00E0
0060
0070
0070
0060
80E0
FFC0
FF80
ENDCHAR
STARTCHAR 0161
ENCODING 353
SWIDTH 454 0
DWIDTH 12 0
BBX 10 21 1 0
BITMAP
3180
3100
1B00
0E00
0C00
0000
0400
3F80
7380
E000
C000
E000
7800
3F00
0F80
01C0
00C0
00C0
81C0
FF80
FF00
ENDCHAR
STARTCHAR 0162
ENCODING 354
SWIDTH 530 0
DWIDTH 14 0
BBX 14 24 0 -5
BITMAP
FFFC
FFFC
0300
0300
0300
0300
0300
0300
0300
0300
0300
0300
0300
0300
0300
0300
0300
0300
0300
0100
0180
0180
0F80
0F00
ENDCHAR
STARTCHAR 0163
ENCODING 355
SWIDTH 341 0
DWIDTH 9 0
BBX 8 23 1 -5
BITMAP
60
60
60
60
FF
FF
60
60
60
60
60
60
60
60
60
70
3F
1F
0C
04
06
3E
3C
ENDCHAR
STARTCHAR 0164
ENCODING 356
SWIDTH 530 0
DWIDTH 14 0
BBX 14 24 0 0
BITMAP
0CC0
0780
0380
0000
0000
FFFC
FFFC
0300
0300
0300
0300
0300
0300
0300
0300
0300
0300
0300
0300
0300
0300
0300
0300
0300
ENDCHAR
STARTCHAR 0165
ENCODING 357
SWIDTH 341 0
DWIDTH 9 0
BBX 8 21 1 0
BITMAP
07
06
06
66
66
60
60
FF
FF
60
60
60
60
60
60
60
60
60
70
3F
1F
ENDCHAR
STARTCHAR 0166
ENCODING 358
SWIDTH 530 0
DWIDTH 14 0
BBX 14 19 0 0
BITMAP
FFFC
FFFC
0300
0300
0300
0300
0300
0300
0300
0300
1FE0
1FE0
0300
0300
0300
0300
0300
0300
0300
ENDCHAR
STARTCHAR 0167
ENCODING 359
SWIDTH 341 0
DWIDTH 9 0
BBX 8 18 1 0
BITMAP
60
60
60
60
FF
FF
60
60
60
FF
60
60
60
60
60
70
3F
1F
ENDCHAR
STARTCHAR 0168
ENCODING 360
SWIDTH 644 0
DWIDTH 17 0
BBX 13 24 2 0
BITMAP
1E40
1BC0
1080
0000
0000
C018
C018
C018
C018
C018
C018
C018
C018
C018
C018
C018
C018
C018
C018
E038
6038
7070
3FE0
1FC0
ENDCHAR
STARTCHAR 0169
ENCODING 361
SWIDTH 568 0
DWIDTH 15 0
BBX 11 20 2 0
BITMAP
3880
3D80
2700
0000
0000
0000
C060
C060
C060
C060
C060
C060
C060
C060
C060
C0E0
C0E0
E1E0
7F60
3E60
ENDCHAR
STARTCHAR 016A
ENCODING 362
SWIDTH 644 0
DWIDTH 17 0
BBX 13 23 2 0
BITMAP
1FC0
1FC0
0000
0000
C018
C018
C018
C018
C018
C018
C018
C018
C018
C018
C018
C018
C018
C018
E038
6038
7070
3FE0
1FC0
ENDCHAR
STARTCHAR 016B
ENCODING 363
SWIDTH 568 0
DWIDTH 15 0
BBX 11 19 2 0
BITMAP
3F80
3F80
0000
0000
0000
C060
C060
C060
C060
C060
C060
C060
C060
C060
C0E0
C0E0
E1E0
7F60
3E60
ENDCHAR
STARTCHAR 016C
ENCODING 364
SWIDTH 644 0
DWIDTH 17 0
BBX 13 24 2 0
BITMAP
18C0
0F80
0700
0000
0000
C018
C018
C018
C018
C018
C018
C018
C018
C018
C018
C018
C018
C018
C018
E038
6038
7070
3FE0
1FC0
ENDCHAR
STARTCHAR 016D
ENCODING 365
SWIDTH 568 0
DWIDTH 15 0
BBX 11 20 2 0
BITMAP
2180
3F00
1F00
0000
0000
0000
C060
C060
C060
C060
C060
C060
C060
C060
C060
C0E0
C0E0
E1E0
7F60
3E60
ENDCHAR
STARTCHAR 016E
ENCODING 366
SWIDTH 644 0
DWIDTH 17 0
BBX 13 24 2 0
BITMAP
0700
0F80
08C0
18C0
08C0
CD98
C718
C018
C018
C018
C018
C018
C018
C018
C018
C018
C018
C018
C018
E038
6038
7070
3FE0
1FC0
ENDCHAR
STARTCHAR 016F
ENCODING 367
SWIDTH 568 0
DWIDTH 15 0
BBX 11 22 2 0
BITMAP
0E00
1F00
3100
3100
3100
1B00
1E00
0000
C060
C060
C060
C060
C060
C060
C060
C060
C060
C0E0
C0E0
E1E0
7F60
3E60
ENDCHAR
STARTCHAR 0170
ENCODING 368
SWIDTH 644 0
DWIDTH 17 0
BBX 13 24 2 0
BITMAP
0660
0CC0
0980
0000
0000
C018
C018
C018
C018
C018
C018
C018
C018
C018
C018
C018
C018
C018
C018
E038
6038
7070
3FE0
1FC0
ENDCHAR
STARTCHAR 0171
ENCODING 369
SWIDTH 568 0
DWIDTH 15 0
BBX 11 21 2 0
BITMAP
0660
0CC0
0C80
1980
1900
0000
0000
C060
C060
C060
C060
C060
C060
C060
C060
C060
C0E0
C0E0
E1E0
7F60
3E60
ENDCHAR
STARTCHAR 0172
ENCODING 370
SWIDTH 644 0
DWIDTH 17 0
BBX 13 24 2 -5
BITMAP
C018
C018
C018
C018
C018
C018
C018
C018
C018
C018
C018
C018
C018
C018
E038
6038
7070
3FE0
1FC0
0600
0400
0400
0780
0780
ENDCHAR
STARTCHAR 0173
ENCODING 371
SWIDTH 568 0
DWIDTH 15 0
BBX 12 19 2 -4
BITMAP
C060
C060
C060
C060
C060
C060
C060
C060
C060
C0E0
C0E0
E1E0
7F60
3E60
0040
00C0
00C0
00F0
0070
ENDCHAR
STARTCHAR 0174
ENCODING 372
SWIDTH 871 0
DWIDTH 23 0
BBX 21 24 1 0
BITMAP
007000
00D800
018C00
000000
000000
C07018
C07018
E07038
60D838
60D830
60D830
70D830
70CC70
318C60
318C60
318C60
3984E0
1B06E0
1B06C0
1B06C0
1F06C0
1F03C0
0E0380
0E0380
ENDCHAR
STARTCHAR 0175
ENCODING 373
SWIDTH 720 0
DWIDTH 19 0
BBX 17 21 1 0
BITMAP
00C000
01C000
036000
022000
063000
000000
000000
C1C180
C1C180
61C380
636300
636300
636300
332700
323600
363600
363600
3E3600
1C1C00
1C1C00
1C1C00
ENDCHAR
STARTCHAR 0176
ENCODING 374
SWIDTH 530 0
DWIDTH 14 0
BBX 14 24 0 0
BITMAP
0780
06C0
0C40
0000
0000
E00C
6018
7038
3830
1870
1C60
0CC0
07C0
0780
0380
0300
0300
0300
0300
0300
0300
0300
0300
0300
ENDCHAR
STARTCHAR 0177
ENCODING 375
SWIDTH 530 0
DWIDTH 14 0
BBX 12 26 1 -5
BITMAP
0600
0F00
0F00
1980
1080
0000
0000
C030
E070
6060
6060
70C0
30C0
31C0
1980
1980
1B80
0F00
0F00
0F00
0600
0600
0C00
0C00
7C00
7800
ENDCHAR
STARTCHAR 0178
ENCODING 376
SWIDTH 530 0
DWIDTH 14 0
BBX 14 24 0 0
BITMAP
0CE0
0CE0
0CE0
0000
0000
E00C
6018
7038
3830
1870
1C60
0CC0
07C0
0780
0380
0300
0300
0300
0300
0300
0300
0300
0300
0300
ENDCHAR
STARTCHAR 0179
ENCODING 377
SWIDTH 606 0
DWIDTH 16 0
BBX 14 24 1 0
BITMAP
0180
0300
0600
0000
0000
FFFC
FFFC
0018
0038
0070
00E0
00C0
01C0
0380
0300
0700
0E00
1C00
1800
3800
7000
E000
FFFC
FFFC
ENDCHAR
STARTCHAR 017A
ENCODING 378
SWIDTH 454 0
DWIDTH 12 0
BBX 10 21 1 0
BITMAP
0180
0300
0300
0600
0C00
0000
0000
FFC0
FFC0
01C0
0380
0300
0700
0E00
1C00
1800
3000
7000
E000
FFC0
FFC0
ENDCHAR
STARTCHAR 017B
ENCODING 379
SWIDTH 606 0
DWIDTH 16 0
BBX 14 24 1 0
BITMAP
0300
0300
0300
0000
0000
FFFC
FFFC
0018
0038
0070
00E0
00C0
01C0
0380
0300
0700
0E00
1C00
1800
3800
7000
E000
FFFC
FFFC
ENDCHAR
STARTCHAR 017C
ENCODING 380
SWIDTH 454 0
DWIDTH 12 0
BBX 10 20 1 0
BITMAP
0C00
0C00
0C00
0000
0000
0000
FFC0
FFC0
01C0
0380
0300
0700
0E00
1C00
1800
3000
7000
E000
FFC0
FFC0
ENDCHAR
STARTCHAR 017D
ENCODING 381
SWIDTH 606 0
DWIDTH 16 0
BBX 14 24 1 0
BITMAP
0CC0
0780
0300
0000
0000
FFFC
FFFC
0018
0038
0070
00E0
00C0
01C0
0380
0300
0700
0E00
1C00
1800
3800
7000
E000
FFFC
FFFC
ENDCHAR
STARTCHAR 017E
ENCODING 382
SWIDTH 454 0
DWIDTH 12 0
BBX 10 21 1 0
BITMAP
2180
3300
1A00
1E00
0C00
0000
0000
FFC0
FFC0
01C0
0380
0300
0700
0E00
1C00
1800
3000
7000
E000
FFC0
FFC0
ENDCHAR
STARTCHAR 017F
ENCODING 383
SWIDTH 303 0
DWIDTH 8 0
BBX 8 20 1 0
BITMAP
0F
3F
30
30
30
30
F0
F0
30
30
30
30
30
30
30
30
30
30
30
30
ENDCHAR
STARTCHAR 0180
ENCODING 384
SWIDTH 568 0
DWIDTH 15 0
BBX 14 20 0 0
BITMAP
3000
3000
FF00
FF00
3000
3080
37E0
3EF0
3838
3818
3818
301C
301C
301C
3018
3818
3818
3C38
37F0
33E0
ENDCHAR
STARTCHAR 0181
ENCODING 385
SWIDTH 644 0
DWIDTH 17 0
BBX 17 19 -1 0
BITMAP
3FF800
7FFE00
EE0E00
CE0700
CE0700
0E0700
0E0700
0E0E00
0FFC00
0FFE00
0E0700
0E0300
0E0300
0E0380
0E0380
0E0300
0E0700
0FFE00
0FF800
ENDCHAR
STARTCHAR 0182
ENCODING 386
SWIDTH 606 0
DWIDTH 16 0
BBX 12 19 2 0
BITMAP
FFE0
FFE0
E000
E000
E000
E000
E000
E000
FFC0
FFE0
E070
E030
E030
E030
E030
E070
E0F0
FFE0
FF80
ENDCHAR
STARTCHAR 0183
ENCODING 387
SWIDTH 568 0
DWIDTH 15 0
BBX 12 20 2 0
BITMAP
FFC0
FFC0
C000
C000
C000
C200
DF80
FBC0
E0E0
E060
E060
C070
C070
C070
C060
E060
E060
F0E0
DFC0
CF80
ENDCHAR
STARTCHAR 0184
ENCODING 388
SWIDTH 606 0
DWIDTH 16 0
BBX 14 19 0 0
BITMAP
1800
1800
3800
7800
F800
3800
3800
3800
3FF0
3FF8
381C
380C
380C
380C
380C
381C
383C
3FF8
3FE0
ENDCHAR
STARTCHAR 0185
ENCODING 389
SWIDTH 568 0
DWIDTH 15 0
BBX 14 20 0 0
BITMAP
1000
1000
3000
7000
7000
F080
37E0
3EF0
3838
3818
3818
301C
301C
301C
3018
3818
3818
3C38
37F0
33E0
ENDCHAR
STARTCHAR 0186
ENCODING 390
SWIDTH 606 0
DWIDTH 16 0
BBX 14 19 1 0
BITMAP
3F80
FFE0
E070
8038
0018
001C
001C
001C
000C
000C
000C
001C
001C
001C
0018
8038
C070
FFE0
3FC0
ENDCHAR
STARTCHAR 0187
ENCODING 391
SWIDTH 606 0
DWIDTH 16 0
BBX 18 24 1 0
BITMAP
0003C0
0007C0
000E00
000C00
000C00
07FC00
1FFC00
3C0C00
380400
700000
600000
600000
E00000
E00000
E00000
E00000
E00000
600000
600000
700000
300400
3C0C00
1FFC00
07F000
ENDCHAR
STARTCHAR 0188
ENCODING 392
SWIDTH 492 0
DWIDTH 13 0
BBX 13 20 1 0
BITMAP
0018
0078
0060
00E0
00C0
02C0
1FC0
3DC0
7000
6000
6000
E000
E000
E000
E000
6000
6000
7000
3FC0
1FC0
ENDCHAR
STARTCHAR 0189
ENCODING 393
SWIDTH 682 0
DWIDTH 18 0
BBX 17 19 0 0
BITMAP
3FE000
3FF800
383E00
380E00
380700
380300
380300
380380
FF8380
FF8380
380380
380380
380300
380300
380700
380E00
383E00
3FF800
3FE000
ENDCHAR
STARTCHAR 018A
ENCODING 394
SWIDTH 720 0
DWIDTH 19 0
BBX 19 19 -1 0
BITMAP
3FF800
7FFE00
EE0F80
CE0380
CE01C0
0E00C0
0E00E0
0E00E0
0E00E0
0E00E0
0E00E0
0E00E0
0E00E0
0E00C0
0E01C0
0E0380
0E0F80
0FFE00
0FF800
ENDCHAR
STARTCHAR 018B
ENCODING 395
SWIDTH 606 0
DWIDTH 16 0
BBX 12 19 2 0
BITMAP
1FF0
1FF0
0030
0030
0030
0030
0030
0030
1FF0
3FF0
7030
E030
E030
E030
E030
6030
7030
3FF0
1FF0
ENDCHAR
STARTCHAR 018C
ENCODING 396
SWIDTH 568 0
DWIDTH 15 0
BBX 12 20 1 0
BITMAP
3FF0
3FF0
0030
0030
0030
0430
1FB0
3FB0
70F0
6070
E070
E030
C030
C030
E070
6070
6070
70F0
3FB0
1F30
ENDCHAR
STARTCHAR 018D
ENCODING 397
SWIDTH 530 0
DWIDTH 14 0
BBX 12 19 1 -5
BITMAP
1F80
3FC0
70E0
6060
6070
E030
E030
E030
E030
6030
6060
7060
3FC0
1FC0
01C0
00E0
0060
3FC0
3FC0
ENDCHAR
STARTCHAR 018E
ENCODING 398
SWIDTH 568 0
DWIDTH 15 0
BBX 12 19 1 0
BITMAP
7FF0
7FF0
0070
0070
0070
0070
0070
0070
7FF0
7FF0
0070
0070
0070
0070
0070
0070
0070
FFF0
FFF0
ENDCHAR
STARTCHAR 018F
ENCODING 399
SWIDTH 682 0
DWIDTH 18 0
BBX 16 19 1 0
BITMAP
1FE0
3FF8
301C
200E
0006
0007
0007
0003
0003
FFFF
FFFF
E003
6007
6007
7006
300E
3C1C
1FF8
07F0
ENDCHAR
STARTCHAR 0190
ENCODING 400
SWIDTH 530 0
DWIDTH 14 0
BBX 11 19 2 0
BITMAP
1FE0
7FE0
7020
E000
E000
E000
6000
7000
1F00
3F00
7000
E000
C000
C000
C000
E000
7020
7FE0
1FE0
ENDCHAR
STARTCHAR 0191
ENCODING 401
SWIDTH 492 0
DWIDTH 13 0
BBX 13 24 -1 -5
BITMAP
1FF8
1FF8
1C00
1C00
1C00
1C00
1C00
1C00
1FF0
1FF0
1C00
1C00
1C00
1C00
1C00
1C00
1C00
1C00
1C00
1C00
1800
3800
F800
E000
ENDCHAR
STARTCHAR 0192
ENCODING 402
SWIDTH 303 0
DWIDTH 8 0
BBX 10 25 -1 -5
BITMAP
03C0
0FC0
0C00
0C00
0C00
0C00
3F80
3F80
0C00
0C00
0C00
0C00
0C00
0C00
0C00
0C00
0C00
0C00
0C00
0C00
0C00
0C00
1C00
F800
F000
ENDCHAR
STARTCHAR 0193
ENCODING 403
SWIDTH 682 0
DWIDTH 18 0
BBX 18 24 1 0
BITMAP
0001C0
0003C0
000700
000600
000600
07FE00
1FFE00
3C0E00
380200
700000
600000
600000
E00000
E00000
E07E00
E07E00
E00600
600600
600600
700600
300600
3C0600
1FFE00
07F800
ENDCHAR
STARTCHAR 0194
ENCODING 404
SWIDTH 606 0
DWIDTH 16 0
BBX 16 24 0 -5
BITMAP
E007
6006
700E
300C
381C
1818
1C38
0C30
0E70
0660
07E0
03C0
03C0
0180
03C0
03C0
07E0
07E0
0660
0E70
0E70
0E70
07F0
07E0
ENDCHAR
STARTCHAR 0195
ENCODING 405
SWIDTH 871 0
DWIDTH 23 0
BBX 19 20 2 0
BITMAP
C00000
C00000
C00000
C00000
C00000
C20000
DF8300
DFC3C0
E0C0C0
E0E0E0
C06060
C06060
C06060
C06060
C06060
C06060
C060E0
C061C0
C07F80
C03F00
ENDCHAR
STARTCHAR 0196
ENCODING 406
SWIDTH 303 0
DWIDTH 8 0
BBX 6 19 2 0
BITMAP
E0
E0
E0
E0
E0
E0
E0
E0
E0
E0
E0
E0
E0
E0
E0
60
70
3C
1C
ENDCHAR
STARTCHAR 0197
ENCODING 407
SWIDTH 265 0
DWIDTH 7 0
BBX 7 19 0 0
BITMAP
38
38
38
38
38
38
38
38
38
38
FE
FE
38
38
38
38
38
38
38
ENDCHAR
STARTCHAR 0198
ENCODING 408
SWIDTH 644 0
DWIDTH 17 0
BBX 15 19 2 0
BITMAP
E03C
E07E
E0E6
E1C6
E386
E700
EE00
FC00
F800
F800
FC00
EE00
E700
E380
E1C0
E0E0
E070
E070
E038
ENDCHAR
STARTCHAR 0199
ENCODING 409
SWIDTH 530 0
DWIDTH 14 0
BBX 11 20 2 0
BITMAP
1C00
7C00
E000
C000
C000
C000
C0E0
C180
C300
C600
CC00
D800
F000
D800
CC00
C600
C700
C380
C1C0
C0E0
ENDCHAR
STARTCHAR 019A
ENCODING 410
SWIDTH 265 0
DWIDTH 7 0
BBX 6 20 0 0
BITMAP
30
30
30
30
30
30
30
30
30
FC
FC
30
30
30
30
30
30
30
30
30
ENDCHAR
STARTCHAR 019B
ENCODING 411
SWIDTH 530 0
DWIDTH 14 0
BBX 12 20 1 0
BITMAP
1C00
0DC0
0F00
3E00
6600
0600
0700
0700
0F00
0F80
0D80
1D80
19C0
38C0
30C0
30E0
6060
6060
E070
C030
ENDCHAR
STARTCHAR 019C
ENCODING 412
SWIDTH 871 0
DWIDTH 23 0
BBX 19 19 2 0
BITMAP
C0E060
C0E060
C0E060
C0E060
C0E060
C0E060
C0E060
C0E060
C0E060
C0E060
C0E060
C0E060
C0E060
C0E060
C0E0E0
E0E0E0
E1E1E0
7F7F60
3E3E60
ENDCHAR
STARTCHAR 019D
ENCODING 413
SWIDTH 682 0
DWIDTH 18 0
BBX 16 24 -1 -5
BITMAP
1E03
1E03
1F03
1F03
1F83
1D83
1DC3
1CC3
1CC3
1C63
1C63
1C33
1C33
1C3B
1C1B
1C1F
1C0F
1C0F
1C07
1800
1800
3800
F000
E000
ENDCHAR
STARTCHAR 019E
ENCODING 414
SWIDTH 568 0
DWIDTH 15 0
BBX 11 20 2 -5
BITMAP
0200
DF80
DFC0
E0C0
E0E0
C060
C060
C060
C060
C060
C060
C060
C060
C060
C060
0060
0060
0060
0060
0060
ENDCHAR
STARTCHAR 019F
ENCODING 415
SWIDTH 682 0
DWIDTH 18 0
BBX 16 19 1 0
BITMAP
07F0
1FF8
3C1C
380E
7006
6007
6007
E003
FFFF
FFFF
E003
E003
6007
6007
7006
300E
3C1C
1FF8
07F0
ENDCHAR
STARTCHAR 01A0
ENCODING 416
SWIDTH 795 0
DWIDTH 21 0
BBX 17 20 1 0
BITMAP
000180
07F180
1FF980
381F80
300F00
700E00
600600
E00700
E00700
E00700
E00300
E00700
E00700
E00700
600600
700E00
700E00
381C00
1FF800
0FF000
ENDCHAR
STARTCHAR 01A1
ENCODING 417
SWIDTH 530 0
DWIDTH 14 0
BBX 13 16 1 0
BITMAP
0018
0208
1FC8
3DF8
7070
6070
6030
E030
E030
E030
E030
6070
6070
70E0
3FC0
1F80
ENDCHAR
STARTCHAR 01A2
ENCODING 418
SWIDTH 833 0
DWIDTH 22 0
BBX 19 19 1 0
BITMAP
07FF00
1FFFC0
3C1DC0
380CE0
700CE0
600C60
600C60
E00C60
E00C60
E00C60
E00C60
E00C60
600C60
600C60
700C60
300C60
3C1C60
1FF860
07F060
ENDCHAR
STARTCHAR 01A3
ENCODING 419
SWIDTH 682 0
DWIDTH 18 0
BBX 15 20 1 -5
BITMAP
0600
1FF8
3DFC
70CC
60CE
E0C6
E0C6
E0C6
E0C6
E0C6
60C6
60C6
70C6
3FC6
1F86
0006
0006
0006
0006
0006
ENDCHAR
STARTCHAR 01A4
ENCODING 420
SWIDTH 568 0
DWIDTH 15 0
BBX 15 19 -1 0
BITMAP
3FF0
7FFC
EE1E
CE0E
CE06
0E06
0E06
0E06
0E0E
0FFC
0FF8
0E00
0E00
0E00
0E00
0E00
0E00
0E00
0E00
ENDCHAR
STARTCHAR 01A5
ENCODING 421
SWIDTH 568 0
DWIDTH 15 0
BBX 12 25 2 -5
BITMAP
1E00
7E00
E000
C000
C000
C200
DF80
FBC0
E0E0
E060
E060
C070
C070
C070
C060
E060
E060
F0E0
DFC0
CF80
C000
C000
C000
C000
C000
ENDCHAR
STARTCHAR 01A6
ENCODING 422
SWIDTH 606 0
DWIDTH 16 0
BBX 13 22 2 -3
BITMAP
E000
E000
E000
FC00
FFC0
E7E0
E0E0
E060
E060
E060
E060
E0E0
E3C0
FF00
E3C0
E0C0
E0E0
E060
E070
0030
0038
0018
ENDCHAR
STARTCHAR 01A7
ENCODING 423
SWIDTH 568 0
DWIDTH 15 0
BBX 12 19 1 0
BITMAP
3FC0
7FE0
6070
0030
0030
0030
0030
00F0
0FE0
3FC0
7C00
7000
E000
E000
E000
E000
7030
7FF0
1FE0
ENDCHAR
STARTCHAR 01A8
ENCODING 424
SWIDTH 454 0
DWIDTH 12 0
BBX 10 15 1 0
BITMAP
0800
7F80
7380
00C0
00C0
01C0
0380
3F80
7E00
E000
C000
C000
E040
7FC0
3FC0
ENDCHAR
STARTCHAR 01A9
ENCODING 425
SWIDTH 568 0
DWIDTH 15 0
BBX 11 19 2 0
BITMAP
FFE0
FFE0
6000
7000
3800
1C00
0C00
0600
0700
0700
0600
0E00
1C00
1800
3800
7000
6000
FFE0
FFE0
ENDCHAR
STARTCHAR 01AA
ENCODING 426
SWIDTH 303 0
DWIDTH 8 0
BBX 11 25 -3 -5
BITMAP
3800
FC00
CE00
C600
FF80
3F80
0600
0600
0600
0600
0600
0600
0600
0600
0600
0600
0600
0600
0600
0600
0600
0600
0600
03E0
03E0
ENDCHAR
STARTCHAR 01AB
ENCODING 427
SWIDTH 341 0
DWIDTH 9 0
BBX 8 23 1 -5
BITMAP
60
60
60
60
FF
FF
60
60
60
60
60
60
60
60
60
70
3F
1F
07
07
06
1E
1C
ENDCHAR
STARTCHAR 01AC
ENCODING 428
SWIDTH 530 0
DWIDTH 14 0
BBX 14 19 0 0
BITMAP
3FFC
7FFC
6300
C300
C300
0300
0300
0300
0300
0300
0300
0300
0300
0300
0300
0300
0300
0300
0300
ENDCHAR
STARTCHAR 01AD
ENCODING 429
SWIDTH 341 0
DWIDTH 9 0
BBX 8 20 1 0
BITMAP
0E
3E
70
60
60
60
FF
FF
60
60
60
60
60
60
60
60
60
70
3F
1F
ENDCHAR
STARTCHAR 01AE
ENCODING 430
SWIDTH 530 0
DWIDTH 14 0
BBX 14 24 0 -5
BITMAP
FFFC
FFFC
0300
0300
0300
0300
0300
0300
0300
0300
0300
0300
0300
0300
0300
0300
0300
0300
0300
0300
0380
0180
01F0
00F0
ENDCHAR
STARTCHAR 01AF
ENCODING 431
SWIDTH 757 0
DWIDTH 20 0
BBX 17 20 2 0
BITMAP
000100
C01980
C01980
C01F00
C01F00
C01800
C01800
C01800
C01800
C01800
C01800
C01800
C01800
C01800
C01800
E03800
E03800
707000
3FE000
1FC000
ENDCHAR
STARTCHAR 01B0
ENCODING 432
SWIDTH 568 0
DWIDTH 15 0
BBX 14 16 2 0
BITMAP
000C
000C
C06C
C07C
C078
C060
C060
C060
C060
C060
C060
C0E0
C0E0
E1E0
7F60
3E60
ENDCHAR
STARTCHAR 01B1
ENCODING 433
SWIDTH 682 0
DWIDTH 18 0
BBX 16 19 1 0
BITMAP
FE7F
FE7F
1E70
1818
301C
700E
6006
E006
E007
C007
C007
C007
E007
E006
600E
700E
381C
1FF8
0FF0
ENDCHAR
STARTCHAR 01B2
ENCODING 434
SWIDTH 644 0
DWIDTH 17 0
BBX 14 19 2 0
BITMAP
E000
E000
E0E0
E060
E030
E038
E018
E01C
E01C
E00C
E00C
E00C
E01C
E01C
E018
6038
6070
7FE0
3FC0
ENDCHAR
STARTCHAR 01B3
ENCODING 435
SWIDTH 644 0
DWIDTH 17 0
BBX 17 19 0 0
BITMAP
E00F00
601F80
703980
383180
187180
1C6000
0CC000
07C000
078000
038000
030000
030000
030000
030000
030000
030000
030000
030000
030000
ENDCHAR
STARTCHAR 01B4
ENCODING 436
SWIDTH 644 0
DWIDTH 17 0
BBX 16 20 1 -5
BITMAP
0008
C03E
E07F
6063
6063
70C3
30C0
31C0
1980
1980
1B80
0F00
0F00
0F00
0600
0600
0C00
0C00
7C00
7800
ENDCHAR
STARTCHAR 01B5
ENCODING 437
SWIDTH 606 0
DWIDTH 16 0
BBX 14 19 1 0
BITMAP
FFFC
FFFC
0018
0038
0070
00E0
00C0
01C0
3FF0
3FF0
0700
0E00
1C00
1800
3800
7000
E000
FFFC
FFFC
ENDCHAR
STARTCHAR 01B6
ENCODING 438
SWIDTH 454 0
DWIDTH 12 0
BBX 10 14 1 0
BITMAP
FFC0
FFC0
01C0
0380
0300
0700
7FC0
1C00
1800
3000
7000
E000
FFC0
FFC0
ENDCHAR
STARTCHAR 01B7
ENCODING 439
SWIDTH 606 0
DWIDTH 16 0
BBX 13 20 2 -1
BITMAP
FFF0
FFF0
00E0
00C0
01C0
0380
0300
0600
0F00
0FC0
01E0
0070
0030
0038
0038
0030
0070
F1E0
FFC0
1F00
ENDCHAR
STARTCHAR 01B8
ENCODING 440
SWIDTH 606 0
DWIDTH 16 0
BBX 13 20 1 -1
BITMAP
7FF8
7FF8
7000
3800
1C00
0C00
0E00
0700
0F00
3F00
7800
6000
E000
C000
C000
E000
6000
7CF0
3FF0
0FC0
ENDCHAR
STARTCHAR 01B9
ENCODING 441
SWIDTH 530 0
DWIDTH 14 0
BBX 11 19 1 -6
BITMAP
7FE0
7FE0
3000
3800
1C00
0E00
0600
0300
0F00
3F00
7000
6000
E000
E000
E000
E000
7000
7FE0
1FE0
ENDCHAR
STARTCHAR 01BA
ENCODING 442
SWIDTH 454 0
DWIDTH 12 0
BBX 10 19 1 -5
BITMAP
FFC0
FFC0
01C0
0380
0300
0700
0E00
1F80
1FC0
00C0
00C0
00C0
0F80
3F00
7000
E000
6000
7FC0
3FC0
ENDCHAR
STARTCHAR 01BB
ENCODING 443
SWIDTH 568 0
DWIDTH 15 0
BBX 11 19 2 0
BITMAP
7F00
FF80
C1C0
00C0
00C0
00C0
00C0
01C0
0180
7FC0
7FC0
0E00
0C00
1800
3800
7000
E000
FFE0
FFE0
ENDCHAR
STARTCHAR 01BC
ENCODING 444
SWIDTH 606 0
DWIDTH 16 0
BBX 14 20 1 -1
BITMAP
7FF0
7FF0
7000
7000
7000
7000
7000
7000
7FC0
7FE0
00F0
0038
0018
001C
C01C
E018
6038
7CF8
3FF0
0780
ENDCHAR
STARTCHAR 01BD
ENCODING 445
SWIDTH 530 0
DWIDTH 14 0
BBX 11 20 1 -6
BITMAP
7FC0
7FC0
6000
6000
6000
6000
6000
6000
7F00
7FC0
01C0
00E0
0060
0060
0060
0060
80E0
FFC0
FF80
0800
ENDCHAR
STARTCHAR 01BE
ENCODING 446
SWIDTH 454 0
DWIDTH 12 0
BBX 10 18 1 0
BITMAP
1800
1800
1800
FF00
FF00
1800
1800
1E00
1F00
0380
0180
01C0
01C0
01C0
0180
0380
FF00
FE00
ENDCHAR
STARTCHAR 01BF
ENCODING 447
SWIDTH 568 0
DWIDTH 15 0
BBX 12 20 2 -5
BITMAP
0100
CFC0
DFE0
F060
E070
C070
C060
C060
C0E0
C0C0
C180
C380
C700
DC00
F800
F000
C000
C000
C000
C000
ENDCHAR
STARTCHAR 01C0
ENCODING 448
SWIDTH 265 0
DWIDTH 7 0
BBX 3 24 2 -5
BITMAP
E0
E0
E0
E0
E0
E0
E0
E0
E0
E0
E0
E0
E0
E0
E0
E0
E0
E0
E0
E0
E0
E0
E0
E0
ENDCHAR
STARTCHAR 01C1
ENCODING 449
SWIDTH 454 0
DWIDTH 12 0
BBX 7 24 2 -5
BITMAP
E6
E6
E6
E6
E6
E6
E6
E6
E6
E6
E6
E6
E6
E6
E6
E6
E6
E6
E6
E6
E6
E6
E6
E6
ENDCHAR
STARTCHAR 01C2
ENCODING 450
SWIDTH 416 0
DWIDTH 11 0
BBX 11 24 0 -5
BITMAP
0E00
0E00
0E00
0E00
0E00
0E00
0E00
0E00
FFE0
FFE0
0E00
0E00
0E00
FFE0
FFE0
0E00
0E00
0E00
0E00
0E00
0E00
0E00
0E00
0E00
ENDCHAR
STARTCHAR 01C3
ENCODING 451
SWIDTH 265 0
DWIDTH 7 0
BBX 3 19 2 0
BITMAP
E0
E0
E0
E0
E0
E0
E0
E0
E0
E0
E0
C0
40
00
00
00
E0
E0
E0
ENDCHAR
STARTCHAR 01C4
ENCODING 452
SWIDTH 1250 0
DWIDTH 33 0
BBX 30 24 2 0
BITMAP
00000CC0
00000580
00000700
00000000
00000000
FF80FFF8
FFE0FFF8
E0F00038
E0380030
E01C0070
E00C00E0
E00C01C0
E00E0180
E00E0380
E00E0700
E00E0E00
E00E0C00
E00C1C00
E00C3800
E01C3000
E0387000
E0F0E000
FFE0FFFC
FF80FFFC
ENDCHAR
STARTCHAR 01C5
ENCODING 453
SWIDTH 1136 0
DWIDTH 30 0
BBX 26 21 2 0
BITMAP
00002180
00003300
FF801B00
FFE00E00
E0F00C00
E0380000
E01C0000
E00CFFC0
E00CFFC0
E00E01C0
E00E0180
E00E0300
E00E0700
E00E0E00
E00C1C00
E00C1800
E01C3000
E0387000
E0F0E000
FFE0FFC0
FF80FFC0
ENDCHAR
STARTCHAR 01C6
ENCODING 454
SWIDTH 1023 0
DWIDTH 27 0
BBX 24 21 1 0
BITMAP
000184
0030CC
003058
003078
003030
003000
043000
1FB3FF
3FB3FF
70F007
60700E
E0701C
E03018
C03038
C03070
E070E0
6070C0
607180
70F380
3FB3FF
1F33FF
ENDCHAR
STARTCHAR 01C7
ENCODING 455
SWIDTH 757 0
DWIDTH 20 0
BBX 16 24 2 -5
BITMAP
E003
E003
E003
E003
E003
E003
E003
E003
E003
E003
E003
E003
E003
E003
E003
E003
E003
FFE3
FFE3
0003
0007
0006
003E
003C
ENDCHAR
STARTCHAR 01C8
ENCODING 456
SWIDTH 682 0
DWIDTH 18 0
BBX 15 25 2 -5
BITMAP
0006
E006
E006
E000
E000
E000
E006
E006
E006
E006
E006
E006
E006
E006
E006
E006
E006
E006
FFE6
FFE6
0006
0006
0006
003E
003C
ENDCHAR
STARTCHAR 01C9
ENCODING 457
SWIDTH 416 0
DWIDTH 11 0
BBX 7 25 2 -5
BITMAP
CE
CE
CE
C0
C0
C0
CE
CE
CE
CE
CE
CE
CE
CE
CE
CE
CE
CE
CE
CE
0E
0E
0C
3C
38
ENDCHAR
STARTCHAR 01CA
ENCODING 458
SWIDTH 833 0
DWIDTH 22 0
BBX 18 24 2 -5
BITMAP
F018C0
F018C0
F818C0
F818C0
FC18C0
EC18C0
EC18C0
E618C0
E618C0
E318C0
E318C0
E198C0
E198C0
E1D8C0
E0D8C0
E0F8C0
E078C0
E078C0
E038C0
0000C0
0000C0
0001C0
000780
000700
ENDCHAR
STARTCHAR 01CB
ENCODING 459
SWIDTH 833 0
DWIDTH 22 0
BBX 18 25 2 -5
BITMAP
0000C0
F018C0
F018C0
F81800
F81800
FC1800
EC18C0
EC18C0
E618C0
E618C0
E318C0
E318C0
E198C0
E198C0
E1D8C0
E0D8C0
E0F8C0
E078C0
E078C0
E038C0
0000C0
0001C0
000180
000780
000700
ENDCHAR
STARTCHAR 01CC
ENCODING 460
SWIDTH 720 0
DWIDTH 19 0
BBX 15 25 2 -5
BITMAP
0006
0006
0006
0000
0000
0200
DF86
DFC6
E0C6
E0E6
C066
C066
C066
C066
C066
C066
C066
C066
C066
C066
0006
0006
0006
003E
003C
ENDCHAR
STARTCHAR 01CD
ENCODING 461
SWIDTH 606 0
DWIDTH 16 0
BBX 16 24 0 0
BITMAP
0660
03C0
0180
0000
0000
0180
03C0
03C0
07C0
0660
0660
0E70
0C30
0C30
1C38
1818
1818
3FFC
3FFC
300C
700E
6006
6006
E007
ENDCHAR
STARTCHAR 01CE
ENCODING 462
SWIDTH 530 0
DWIDTH 14 0
BBX 11 21 1 0
BITMAP
3080
1980
0B00
0F00
0600
0000
0400
7F80
7BC0
40E0
0060
0060
1FE0
3FE0
6060
6060
E060
E0E0
60E0
7FE0
3F60
ENDCHAR
STARTCHAR 01CF
ENCODING 463
SWIDTH 265 0
DWIDTH 7 0
BBX 6 24 0 0
BITMAP
C4
6C
38
00
00
38
38
38
38
38
38
38
38
38
38
38
38
38
38
38
38
38
38
38
ENDCHAR
STARTCHAR 01D0
ENCODING 464
SWIDTH 265 0
DWIDTH 7 0
BBX 7 21 0 0
BITMAP
86
CC
6C
38
30
00
00
30
30
30
30
30
30
30
30
30
30
30
30
30
30
ENDCHAR
STARTCHAR 01D1
ENCODING 465
SWIDTH 682 0
DWIDTH 18 0
BBX 16 24 1 0
BITMAP
0660
03C0
01C0
0000
0000
07F0
1FF8
3C1C
380E
7006
6007
6007
E003
E003
E003
E003
E003
6007
6007
7006
300E
3C1C
1FF8
07F0
ENDCHAR
STARTCHAR 01D2
ENCODING 466
SWIDTH 530 0
DWIDTH 14 0
BBX 12 21 1 0
BITMAP
10C0
1980
0D80
0F00
0600
0000
0400
1FC0
3FE0
70E0
6070
E030
E030
E030
E030
E030
6070
6060
70E0
3FC0
1F80
ENDCHAR
STARTCHAR 01D3
ENCODING 467
SWIDTH 644 0
DWIDTH 17 0
BBX 13 24 2 0
BITMAP
0CC0
0580
0700
0000
0000
C018
C018
C018
C018
C018
C018
C018
C018
C018
C018
C018
C018
C018
C018
E038
6038
7070
3FE0
1FC0
ENDCHAR
STARTCHAR 01D4
ENCODING 468
SWIDTH 568 0
DWIDTH 15 0
BBX 11 21 2 0
BITMAP
2180
3300
1B00
1E00
0C00
0000
0000
C060
C060
C060
C060
C060
C060
C060
C060
C060
C0E0
C0E0
E1E0
7F60
3E60
ENDCHAR
STARTCHAR 01D5
ENCODING 469
SWIDTH 644 0
DWIDTH 17 0
BBX 13 26 2 0
BITMAP
1FC0
1FC0
0000
18C0
18C0
18C0
0000
C018
C018
C018
C018
C018
C018
C018
C018
C018
C018
C018
C018
C018
C018
E038
6038
7070
3FE0
1FC0
ENDCHAR
STARTCHAR 01D6
ENCODING 470
SWIDTH 568 0
DWIDTH 15 0
BBX 11 23 2 0
BITMAP
3F80
3F80
0000
3380
3380
3380
0000
0000
0000
C060
C060
C060
C060
C060
C060
C060
C060
C060
C0E0
C0E0
E1E0
7F60
3E60
ENDCHAR
STARTCHAR 01D7
ENCODING 471
SWIDTH 644 0
DWIDTH 17 0
BBX 13 27 2 0
BITMAP
0180
0180
0300
0000
1CC0
1CC0
1CC0
0000
C018
C018
C018
C018
C018
C018
C018
C018
C018
C018
C018
C018
C018
C018
E038
6038
7070
3FE0
1FC0
ENDCHAR
STARTCHAR 01D8
ENCODING 472
SWIDTH 568 0
DWIDTH 15 0
BBX 11 23 2 0
BITMAP
0300
0600
0400
0000
3380
3380
3380
0000
0000
C060
C060
C060
C060
C060
C060
C060
C060
C060
C0E0
C0E0
E1E0
7F60
3E60
ENDCHAR
STARTCHAR 01D9
ENCODING 473
SWIDTH 644 0
DWIDTH 17 0
BBX 13 27 2 0
BITMAP
08C0
0D80
0700
0000
18C0
18C0
18C0
0000
C018
C018
C018
C018
C018
C018
C018
C018
C018
C018
C018
C018
C018
C018
E038
6038
7070
3FE0
1FC0
ENDCHAR
STARTCHAR 01DA
ENCODING 474
SWIDTH 568 0
DWIDTH 15 0
BBX 11 23 2 0
BITMAP
3300
1A00
0E00
0000
3380
3380
3380
0000
0000
C060
C060
C060
C060
C060
C060
C060
C060
C060
C0E0
C0E0
E1E0
7F60
3E60
ENDCHAR
STARTCHAR 01DB
ENCODING 475
SWIDTH 644 0
DWIDTH 17 0
BBX 13 27 2 0
BITMAP
0C00
0600
0600
0000
18C0
18C0
18C0
0000
C018
C018
C018
C018
C018
C018
C018
C018
C018
C018
C018
C018
C018
C018
E038
6038
7070
3FE0
1FC0
ENDCHAR
STARTCHAR 01DC
ENCODING 476
SWIDTH 568 0
DWIDTH 15 0
BBX 11 23 2 0
BITMAP
3800
1800
0C00
0000
3380
3380
3380
0000
0000
C060
C060
C060
C060
C060
C060
C060
C060
C060
C0E0
C0E0
E1E0
7F60
3E60
ENDCHAR
STARTCHAR 01DD
ENCODING 477
SWIDTH 530 0
DWIDTH 14 0
BBX 12 15 1 0
BITMAP
0400
7F80
7BC0
00E0
0070
0030
0030
FFF0
FFF0
C030
E030
6070
70E0
3FC0
1F80
ENDCHAR
STARTCHAR 01DE
ENCODING 478
SWIDTH 606 0
DWIDTH 16 0
BBX 16 26 0 0
BITMAP
07E0
07E0
0000
0660
0660
0660
0000
0180
03C0
03C0
07C0
0660
0660
0E70
0C30
0C30
1C38
1818
1818
3FFC
3FFC
300C
700E
6006
6006
E007
ENDCHAR
STARTCHAR 01DF
ENCODING 479
SWIDTH 530 0
DWIDTH 14 0
BBX 11 23 1 0
BITMAP
3F80
3F80
0000
3980
3980
3980
0000
0000
0400
7F80
7BC0
40E0
0060
0060
1FE0
3FE0
6060
6060
E060
E0E0
60E0
7FE0
3F60
ENDCHAR
STARTCHAR 01E0
ENCODING 480
SWIDTH 606 0
DWIDTH 16 0
BBX 16 26 0 0
BITMAP
07E0
07E0
0000
0180
0180
0180
0000
0180
03C0
03C0
07C0
0660
0660
0E70
0C30
0C30
1C38
1818
1818
3FFC
3FFC
300C
700E
6006
6006
E007
ENDCHAR
STARTCHAR 01E1
ENCODING 481
SWIDTH 530 0
DWIDTH 14 0
BBX 11 22 1 0
BITMAP
3F80
3F80
0000
0600
0600
0600
0000
0400
7F80
7BC0
40E0
0060
0060
1FE0
3FE0
6060
6060
E060
E0E0
60E0
7FE0
3F60
ENDCHAR
STARTCHAR 01E2
ENCODING 482
SWIDTH 871 0
DWIDTH 23 0
BBX 21 23 0 0
BITMAP
001FC0
001FC0
000000
000000
01FFF8
01FFF8
03B800
033800
033800
073800
063800
0E3800
0C3FF8
0C3FF8
1C3800
183800
1FF800
3FF800
303800
703800
603800
603FF8
E03FF8
ENDCHAR
STARTCHAR 01E3
ENCODING 483
SWIDTH 871 0
DWIDTH 23 0
BBX 21 19 1 0
BITMAP
01FC00
01FC00
000000
000000
040000
7F8FC0
7BDEE0
40F030
007030
006018
1FE018
3FFFF8
606000
606000
E06000
E0F000
60F810
7F9FF0
3F0FF0
ENDCHAR
STARTCHAR 01E4
ENCODING 484
SWIDTH 682 0
DWIDTH 18 0
BBX 17 19 1 0
BITMAP
07F800
1FFE00
3C0E00
380200
700000
600000
600000
E00000
E00000
E07E00
E07E00
E00600
600600
603F80
700600
300600
3C0600
1FFE00
07F800
ENDCHAR
STARTCHAR 01E5
ENCODING 485
SWIDTH 568 0
DWIDTH 15 0
BBX 14 20 1 -5
BITMAP
0400
1FB0
3FB0
70F0
6070
E070
E030
C030
C030
E070
6070
6070
70F0
3FB0
1F30
0070
3FFC
00E0
3FC0
3F80
ENDCHAR
STARTCHAR 01E6
ENCODING 486
SWIDTH 682 0
DWIDTH 18 0
BBX 15 24 1 0
BITMAP
0230
0360
01C0
0000
0000
07F8
1FFE
3C0E
3802
7000
6000
6000
E000
E000
E07E
E07E
E006
6006
6006
7006
3006
3C06
1FFE
07F8
ENDCHAR
STARTCHAR 01E7
ENCODING 487
SWIDTH 568 0
DWIDTH 15 0
BBX 12 26 1 -5
BITMAP
3080
1980
1B00
0E00
0600
0000
0400
1FB0
3FB0
70F0
6070
E070
E030
C030
C030
E070
6070
6070
70F0
3FB0
1F30
0070
0060
00E0
3FC0
3F80
ENDCHAR
STARTCHAR 01E8
ENCODING 488
SWIDTH 568 0
DWIDTH 15 0
BBX 13 24 2 0
BITMAP
1980
0B00
0E00
0000
0000
E038
E070
E0E0
E1C0
E380
E700
EE00
FC00
F800
F800
FC00
EE00
E700
E380
E1C0
E0E0
E070
E070
E038
ENDCHAR
STARTCHAR 01E9
ENCODING 489
SWIDTH 530 0
DWIDTH 14 0
BBX 13 24 0 0
BITMAP
CC00
6800
3800
0000
3000
3000
3000
3000
3000
3000
3038
3060
30C0
3180
3300
3600
3C00
3600
3300
3180
31C0
30E0
3070
3038
ENDCHAR
STARTCHAR 01EA
ENCODING 490
SWIDTH 682 0
DWIDTH 18 0
BBX 16 24 1 -5
BITMAP
07F0
1FF8
3C1C
380E
7006
6007
6007
E003
E003
E003
E003
E003
6007
6007
7006
300E
3C1C
1FF8
07F0
0180
0100
0300
03E0
01E0
ENDCHAR
STARTCHAR 01EB
ENCODING 491
SWIDTH 530 0
DWIDTH 14 0
BBX 12 20 1 -5
BITMAP
0400
1FC0
3FE0
70E0
6070
E030
E030
E030
E030
E030
6070
6060
70E0
3FC0
1F80
0600
0400
0C00
0F80
0780
ENDCHAR
STARTCHAR 01EC
ENCODING 492
SWIDTH 682 0
DWIDTH 18 0
BBX 16 28 1 -5
BITMAP
07F0
07F0
0000
0000
07F0
1FF8
3C1C
380E
7006
6007
6007
E003
E003
E003
E003
E003
6007
6007
7006
300E
3C1C
1FF8
07F0
0180
0100
0300
03E0
01E0
ENDCHAR
STARTCHAR 01ED
ENCODING 493
SWIDTH 530 0
DWIDTH 14 0
BBX 12 24 1 -5
BITMAP
1FC0
1FC0
0000
0000
0400
1FC0
3FE0
70E0
6070
E030
E030
E030
E030
E030
6070
6060
70E0
3FC0
1F80
0600
0400
0C00
0F80
0780
ENDCHAR
STARTCHAR 01EE
ENCODING 494
SWIDTH 606 0
DWIDTH 16 0
BBX 13 25 2 -1
BITMAP
1980
0F00
0600
0000
0000
FFF0
FFF0
00E0
00C0
01C0
0380
0300
0600
0F00
0FC0
01E0
0070
0030
0038
0038
0030
0070
F1E0
FFC0
1F00
ENDCHAR
STARTCHAR 01EF
ENCODING 495
SWIDTH 530 0
DWIDTH 14 0
BBX 11 27 1 -6
BITMAP
2180
3300
1A00
1E00
0C00
0000
0000
FFC0
FFC0
01C0
0380
0300
0600
0E00
1C00
1F00
1F80
01C0
00E0
0060
0060
0060
0060
80E0
FFC0
FF80
0800
ENDCHAR
STARTCHAR 01F0
ENCODING 496
SWIDTH 265 0
DWIDTH 7 0
BBX 7 26 0 -5
BITMAP
C6
C4
6C
38
38
00
00
30
30
30
30
30
30
30
30
30
30
30
30
30
30
30
30
30
F0
E0
ENDCHAR
STARTCHAR 01F1
ENCODING 497
SWIDTH 1250 0
DWIDTH 33 0
BBX 30 19 2 0
BITMAP
FF80FFF8
FFE0FFF8
E0F00038
E0380030
E01C0070
E00C00E0
E00C01C0
E00E0180
E00E0380
E00E0700
E00E0E00
E00E0C00
E00C1C00
E00C3800
E01C3000
E0387000
E0F0E000
FFE0FFFC
FF80FFFC
ENDCHAR
STARTCHAR 01F2
ENCODING 498
SWIDTH 1136 0
DWIDTH 30 0
BBX 26 19 2 0
BITMAP
FF800000
FFE00000
E0F00000
E0380000
E01C0000
E00CFFC0
E00CFFC0
E00E01C0
E00E0180
E00E0300
E00E0700
E00E0E00
E00C1C00
E00C1800
E01C3000
E0387000
E0F0E000
FFE0FFC0
FF80FFC0
ENDCHAR
STARTCHAR 01F3
ENCODING 499
SWIDTH 1023 0
DWIDTH 27 0
BBX 24 20 1 0
BITMAP
003000
003000
003000
003000
003000
043000
1FB3FF
3FB3FF
70F007
60700E
E0701C
E03018
C03038
C03070
E070E0
6070C0
607180
70F380
3FB3FF
1F33FF
ENDCHAR
STARTCHAR 01F4
ENCODING 500
SWIDTH 682 0
DWIDTH 18 0
BBX 15 24 1 0
BITMAP
00C0
0180
0180
0000
0000
07F8
1FFE
3C0E
3802
7000
6000
6000
E000
E000
E07E
E07E
E006
6006
6006
7006
3006
3C06
1FFE
07F8
ENDCHAR
STARTCHAR 01F5
ENCODING 501
SWIDTH 568 0
DWIDTH 15 0
BBX 12 26 1 -5
BITMAP
0180
0300
0600
0400
0C00
0000
0400
1FB0
3FB0
70F0
6070
E070
E030
C030
C030
E070
6070
6070
70F0
3FB0
1F30
0070
0060
00E0
3FC0
3F80
ENDCHAR
STARTCHAR 01F6
ENCODING 502
SWIDTH 985 0
DWIDTH 26 0
BBX 22 19 2 0
BITMAP
E01800
E01800
E01800
E01800
E01800
E0180C
E0180C
E0180C
FFF80C
FFF80C
E0180C
E0180C
E0180C
E0180C
E0180C
E01C1C
E01C18
E00FF8
E007F0
ENDCHAR
STARTCHAR 01F7
ENCODING 503
SWIDTH 606 0
DWIDTH 16 0
BBX 13 24 2 -5
BITMAP
E7E0
FFF0
FC70
F038
E038
E038
E030
E030
E070
E0E0
E0C0
E3C0
E780
EE00
FC00
F800
E000
E000
E000
E000
E000
E000
E000
E000
ENDCHAR
STARTCHAR 01F8
ENCODING 504
SWIDTH 682 0
DWIDTH 18 0
BBX 13 24 2 0
BITMAP
0600
0300
0100
0000
0000
F018
F018
F818
F818
FC18
EC18
EC18
E618
E618
E318
E318
E198
E198
E1D8
E0D8
E0F8
E078
E078
E038
ENDCHAR
STARTCHAR 01F9
ENCODING 505
SWIDTH 568 0
DWIDTH 15 0
BBX 11 21 2 0
BITMAP
1C00
0C00
0600
0300
0300
0000
0200
DF80
DFC0
E0C0
E0E0
C060
C060
C060
C060
C060
C060
C060
C060
C060
C060
ENDCHAR
STARTCHAR 01FA
ENCODING 506
SWIDTH 606 0
DWIDTH 16 0
BBX 16 24 0 0
BITMAP
03C6
07EC
0438
0420
0660
03C0
03C0
03C0
07C0
0660
0660
0E70
0C30
0C30
1C38
1818
1818
3FFC
3FFC
300C
700E
6006
6006
E007
ENDCHAR
STARTCHAR 01FB
ENCODING 507
SWIDTH 530 0
DWIDTH 14 0
BBX 13 24 1 0
BITMAP
0038
0E30
1F60
1180
1080
1180
1B00
0F00
0000
0400
7F80
7BC0
40E0
0060
0060
1FE0
3FE0
6060
6060
E060
E0E0
60E0
7FE0
3F60
ENDCHAR
STARTCHAR 01FC
ENCODING 508
SWIDTH 871 0
DWIDTH 23 0
BBX 21 24 0 0
BITMAP
000600
000C00
001800
000000
000000
01FFF8
01FFF8
03B800
033800
033800
073800
063800
0E3800
0C3FF8
0C3FF8
1C3800
183800
1FF800
3FF800
303800
703800
603800
603FF8
E03FF8
ENDCHAR
STARTCHAR 01FD
ENCODING 509
SWIDTH 871 0
DWIDTH 23 0
BBX 21 21 1 0
BITMAP
003800
003000
006000
00C000
008000
000000
040000
7F8FC0
7BDEE0
40F030
007030
006018
1FE018
3FFFF8
606000
606000
E06000
E0F000
60F810
7F9FF0
3F0FF0
ENDCHAR
STARTCHAR 01FE
ENCODING 510
SWIDTH 682 0
DWIDTH 18 0
BBX 16 25 1 -1
BITMAP
00C0
0180
0300
0000
0000
07F3
1FFE
3C1E
380E
701E
6037
6037
E063
E0C3
E183
E383
E303
6607
6C07
7806
380E
3C1C
7FF8
C7F0
4000
ENDCHAR
STARTCHAR 01FF
ENCODING 511
SWIDTH 530 0
DWIDTH 14 0
BBX 12 22 1 -1
BITMAP
0180
0300
0600
0400
0C00
0000
0610
1FB0
3DE0
70E0
60F0
E1B0
E330
E230
E630
EC30
7870
7060
70E0
7FC0
DF80
8000
ENDCHAR
STARTCHAR 0200
ENCODING 512
SWIDTH 606 0
DWIDTH 16 0
BBX 16 24 0 0
BITMAP
0CC0
0660
0320
0000
0000
0180
03C0
03C0
07C0
0660
0660
0E70
0C30
0C30
1C38
1818
1818
3FFC
3FFC
300C
700E
6006
6006
E007
ENDCHAR
STARTCHAR 0201
ENCODING 513
SWIDTH 530 0
DWIDTH 14 0
BBX 11 21 1 0
BITMAP
3300
1300
1980
0980
0CC0
0000
0400
7F80
7BC0
40E0
0060
0060
1FE0
3FE0
6060
6060
E060
E0E0
60E0
7FE0
3F60
ENDCHAR
STARTCHAR 0202
ENCODING 514
SWIDTH 606 0
DWIDTH 16 0
BBX 16 23 0 0
BITMAP
07E0
0660
0C30
0000
0180
03C0
03C0
07C0
0660
0660
0E70
0C30
0C30
1C38
1818
1818
3FFC
3FFC
300C
700E
6006
6006
E007
ENDCHAR
STARTCHAR 0203
ENCODING 515
SWIDTH 530 0
DWIDTH 14 0
BBX 11 20 1 0
BITMAP
1F00
1B80
3080
0000
0000
0400
7F80
7BC0
40E0
0060
0060
1FE0
3FE0
6060
6060
E060
E0E0
60E0
7FE0
3F60
ENDCHAR
STARTCHAR 0204
ENCODING 516
SWIDTH 568 0
DWIDTH 15 0
BBX 11 24 2 0
BITMAP
6600
3300
1980
0000
0000
FFE0
FFE0
E000
E000
E000
E000
E000
E000
FFE0
FFE0
E000
E000
E000
E000
E000
E000
E000
FFE0
FFE0
ENDCHAR
STARTCHAR 0205
ENCODING 517
SWIDTH 530 0
DWIDTH 14 0
BBX 12 21 1 0
BITMAP
3300
1980
0980
0CC0
04C0
0000
0200
1FC0
3DE0
7060
6030
6030
E030
FFF0
C000
E000
6000
6000
7010
3FF0
1FE0
ENDCHAR
STARTCHAR 0206
ENCODING 518
SWIDTH 568 0
DWIDTH 15 0
BBX 11 23 2 0
BITMAP
1F00
3980
3080
0000
FFE0
FFE0
E000
E000
E000
E000
E000
E000
FFE0
FFE0
E000
E000
E000
E000
E000
E000
E000
FFE0
FFE0
ENDCHAR
STARTCHAR 0207
ENCODING 519
SWIDTH 530 0
DWIDTH 14 0
BBX 12 20 1 0
BITMAP
0F80
1DC0
1840
0000
0000
0200
1FC0
3DE0
7060
6030
6030
E030
FFF0
C000
E000
6000
6000
7010
3FF0
1FE0
ENDCHAR
STARTCHAR 0208
ENCODING 520
SWIDTH 265 0
DWIDTH 7 0
BBX 8 24 -1 0
BITMAP
EE
66
33
00
00
1C
1C
1C
1C
1C
1C
1C
1C
1C
1C
1C
1C
1C
1C
1C
1C
1C
1C
1C
ENDCHAR
STARTCHAR 0209
ENCODING 521
SWIDTH 265 0
DWIDTH 7 0
BBX 8 21 -1 0
BITMAP
CC
66
26
33
13
00
00
18
18
18
18
18
18
18
18
18
18
18
18
18
18
ENDCHAR
STARTCHAR 020A
ENCODING 522
SWIDTH 265 0
DWIDTH 7 0
BBX 7 23 0 0
BITMAP
7C
E6
82
00
38
38
38
38
38
38
38
38
38
38
38
38
38
38
38
38
38
38
38
ENDCHAR
STARTCHAR 020B
ENCODING 523
SWIDTH 265 0
DWIDTH 7 0
BBX 7 20 0 0
BITMAP
7C
EC
86
00
00
00
30
30
30
30
30
30
30
30
30
30
30
30
30
30
ENDCHAR
STARTCHAR 020C
ENCODING 524
SWIDTH 682 0
DWIDTH 18 0
BBX 16 24 1 0
BITMAP
0CC0
0660
0320
0000
0000
07F0
1FF8
3C1C
380E
7006
6007
6007
E003
E003
E003
E003
E003
6007
6007
7006
300E
3C1C
1FF8
07F0
ENDCHAR
STARTCHAR 020D
ENCODING 525
SWIDTH 530 0
DWIDTH 14 0
BBX 12 21 1 0
BITMAP
3300
1B00
1980
0C80
0CC0
0000
0400
1FC0
3FE0
70E0
6070
E030
E030
E030
E030
E030
6070
6060
70E0
3FC0
1F80
ENDCHAR
STARTCHAR 020E
ENCODING 526
SWIDTH 682 0
DWIDTH 18 0
BBX 16 23 1 0
BITMAP
07E0
0660
0430
0000
07F0
1FF8
3C1C
380E
7006
6007
6007
E003
E003
E003
E003
E003
6007
6007
7006
300E
3C1C
1FF8
07F0
ENDCHAR
STARTCHAR 020F
ENCODING 527
SWIDTH 530 0
DWIDTH 14 0
BBX 12 20 1 0
BITMAP
0F80
1DC0
1040
0000
0000
0400
1FC0
3FE0
70E0
6070
E030
E030
E030
E030
E030
6070
6060
70E0
3FC0
1F80
ENDCHAR
STARTCHAR 0210
ENCODING 528
SWIDTH 606 0
DWIDTH 16 0
BBX 13 24 2 0
BITMAP
6600
3200
3300
0000
0000
FF00
FFC0
E1E0
E0E0
E060
E060
E060
E0E0
E1E0
FFC0
FF80
E1C0
E0E0
E060
E070
E030
E030
E038
E018
ENDCHAR
STARTCHAR 0211
ENCODING 529
SWIDTH 378 0
DWIDTH 10 0
BBX 8 21 2 0
BITMAP
C8
CC
64
66
32
00
02
DF
FF
E0
E0
C0
C0
C0
C0
C0
C0
C0
C0
C0
C0
ENDCHAR
STARTCHAR 0212
ENCODING 530
SWIDTH 606 0
DWIDTH 16 0
BBX 13 23 2 0
BITMAP
1F00
3380
2180
0000
FF00
FFC0
E1E0
E0E0
E060
E060
E060
E0E0
E1E0
FFC0
FF80
E1C0
E0E0
E060
E070
E030
E030
E038
E018
ENDCHAR
STARTCHAR 0213
ENCODING 531
SWIDTH 378 0
DWIDTH 10 0
BBX 8 20 2 0
BITMAP
3E
76
43
00
00
02
DF
FF
E0
E0
C0
C0
C0
C0
C0
C0
C0
C0
C0
C0
ENDCHAR
STARTCHAR 0214
ENCODING 532
SWIDTH 644 0
DWIDTH 17 0
BBX 13 24 2 0
BITMAP
1B80
0980
0CC0
0000
0000
C018
C018
C018
C018
C018
C018
C018
C018
C018
C018
C018
C018
C018
C018
E038
6038
7070
3FE0
1FC0
ENDCHAR
STARTCHAR 0215
ENCODING 533
SWIDTH 568 0
DWIDTH 15 0
BBX 11 21 2 0
BITMAP
3200
3300
1900
1980
0C80
0000
0000
C060
C060
C060
C060
C060
C060
C060
C060
C060
C0E0
C0E0
E1E0
7F60
3E60
ENDCHAR
STARTCHAR 0216
ENCODING 534
SWIDTH 644 0
DWIDTH 17 0
BBX 13 23 2 0
BITMAP
0F80
1CC0
1040
0000
C018
C018
C018
C018
C018
C018
C018
C018
C018
C018
C018
C018
C018
C018
E038
6038
7070
3FE0
1FC0
ENDCHAR
STARTCHAR 0217
ENCODING 535
SWIDTH 568 0
DWIDTH 15 0
BBX 11 20 2 0
BITMAP
1F00
3B80
3080
0000
0000
0000
C060
C060
C060
C060
C060
C060
C060
C060
C060
C0E0
C0E0
E1E0
7F60
3E60
ENDCHAR
STARTCHAR 0218
ENCODING 536
SWIDTH 568 0
DWIDTH 15 0
BBX 12 25 2 -6
BITMAP
3FC0
7FE0
E060
C000
C000
C000
C000
F000
7F00
3FC0
07E0
00E0
0060
0070
0070
0060
80E0
FFC0
FF80
0000
0000
0E00
0C00
0C00
0800
ENDCHAR
STARTCHAR 0219
ENCODING 537
SWIDTH 454 0
DWIDTH 12 0
BBX 10 21 1 -6
BITMAP
0400
3F80
7380
E000
C000
E000
7800
3F00
0F80
01C0
00C0
00C0
81C0
FF80
FF00
0000
0000
0E00
0C00
0C00
0800
ENDCHAR
STARTCHAR 021A
ENCODING 538
SWIDTH 530 0
DWIDTH 14 0
BBX 14 25 0 -6
BITMAP
FFFC
FFFC
0300
0300
0300
0300
0300
0300
0300
0300
0300
0300
0300
0300
0300
0300
0300
0300
0300
0000
0000
0300
0300
0600
0600
ENDCHAR
STARTCHAR 021B
ENCODING 539
SWIDTH 341 0
DWIDTH 9 0
BBX 8 24 1 -6
BITMAP
60
60
60
60
FF
FF
60
60
60
60
60
60
60
60
60
70
3F
1F
00
00
0C
0C
08
18
ENDCHAR
STARTCHAR 021C
ENCODING 540
SWIDTH 568 0
DWIDTH 15 0
BBX 11 24 2 -5
BITMAP
3F00
7FC0
E1C0
80E0
00E0
00E0
00C0
00C0
0180
0380
0F00
3FC0
30C0
00E0
0060
0060
00E0
00C0
01C0
0380
0F00
3E00
F800
E000
ENDCHAR
STARTCHAR 021D
ENCODING 541
SWIDTH 454 0
DWIDTH 12 0
BBX 10 19 1 -5
BITMAP
7F00
E380
8180
01C0
0180
0180
0300
0600
1F00
3B80
00C0
00C0
00C0
01C0
0180
0700
1E00
7800
E000
ENDCHAR
STARTCHAR 021E
ENCODING 542
SWIDTH 682 0
DWIDTH 18 0
BBX 13 24 2 0
BITMAP
0CC0
0780
0700
0000
0000
E018
E018
E018
E018
E018
E018
E018
E018
FFF8
FFF8
E018
E018
E018
E018
E018
E018
E018
E018
E018
ENDCHAR
STARTCHAR 021F
ENCODING 543
SWIDTH 568 0
DWIDTH 15 0
BBX 13 24 0 0
BITMAP
CC00
6800
3800
0000
3000
3000
3000
3000
3000
3080
37E0
37F0
3830
3838
3018
3018
3018
3018
3018
3018
3018
3018
3018
3018
ENDCHAR
STARTCHAR 0220
ENCODING 544
SWIDTH 644 0
DWIDTH 17 0
BBX 13 24 2 -5
BITMAP
E7C0
EFE0
FCF0
F030
E038
E038
E018
E018
E018
E018
E018
E018
E018
E018
E018
E018
E018
E018
E018
0018
0018
0018
0018
0018
ENDCHAR
STARTCHAR 0221
ENCODING 545
SWIDTH 757 0
DWIDTH 20 0
BBX 17 22 1 -2
BITMAP
003000
003000
003000
003000
003000
043000
1FB000
3FB000
70F000
607000
E07000
E03000
C03000
C03000
E07780
607F80
607D80
70F980
3FBF80
1F3F00
003000
006000
ENDCHAR
STARTCHAR 0222
ENCODING 546
SWIDTH 606 0
DWIDTH 16 0
BBX 14 19 1 0
BITMAP
00E0
0038
1E18
7818
601C
601C
6018
3030
1FE0
1FF0
7838
601C
E00C
E00C
E00C
601C
7038
3FF8
1FE0
ENDCHAR
STARTCHAR 0223
ENCODING 547
SWIDTH 530 0
DWIDTH 14 0
BBX 12 16 1 0
BITMAP
6060
6060
6060
6060
30E0
1F80
3FC0
70E0
6070
E030
E030
E030
E070
7060
7FE0
1FC0
ENDCHAR
STARTCHAR 0224
ENCODING 548
SWIDTH 606 0
DWIDTH 16 0
BBX 14 24 1 -5
BITMAP
FFFC
FFFC
0018
0038
0070
00E0
00C0
01C0
0380
0300
0700
0E00
1C00
1800
3800
7000
E000
FFFC
FFFC
000C
000C
000C
01F8
01F8
ENDCHAR
STARTCHAR 0225
ENCODING 549
SWIDTH 454 0
DWIDTH 12 0
BBX 10 19 1 -5
BITMAP
FFC0
FFC0
01C0
0380
0300
0700
0E00
1C00
1800
3000
7000
E000
FFC0
FFC0
00C0
00C0
00C0
1FC0
1F80
ENDCHAR
STARTCHAR 0226
ENCODING 550
SWIDTH 606 0
DWIDTH 16 0
BBX 16 24 0 0
BITMAP
0180
0180
0180
0000
0000
0180
03C0
03C0
07C0
0660
0660
0E70
0C30
0C30
1C38
1818
1818
3FFC
3FFC
300C
700E
6006
6006
E007
ENDCHAR
STARTCHAR 0227
ENCODING 551
SWIDTH 530 0
DWIDTH 14 0
BBX 11 20 1 0
BITMAP
0600
0600
0600
0000
0000
0400
7F80
7BC0
40E0
0060
0060
1FE0
3FE0
6060
6060
E060
E0E0
60E0
7FE0
3F60
ENDCHAR
STARTCHAR 0228
ENCODING 552
SWIDTH 568 0
DWIDTH 15 0
BBX 11 24 2 -5
BITMAP
FFE0
FFE0
E000
E000
E000
E000
E000
E000
FFE0
FFE0
E000
E000
E000
E000
E000
E000
E000
FFE0
FFE0
0200
0300
0300
1F00
1E00
ENDCHAR
STARTCHAR 0229
ENCODING 553
SWIDTH 530 0
DWIDTH 14 0
BBX 12 20 1 -5
BITMAP
0200
1FC0
3DE0
7060
6030
6030
E030
FFF0
C000
E000
6000
6000
7010
3FF0
1FE0
0300
0100
0100
0F00
0F00
ENDCHAR
STARTCHAR 022A
ENCODING 554
SWIDTH 682 0
DWIDTH 18 0
BBX 16 26 1 0
BITMAP
07F0
07F0
0000
0670
0670
0670
0000
07F0
1FF8
3C1C
380E
7006
6007
6007
E003
E003
E003
E003
E003
6007
6007
7006
300E
3C1C
1FF8
07F0
ENDCHAR
STARTCHAR 022B
ENCODING 555
SWIDTH 530 0
DWIDTH 14 0
BBX 12 23 1 0
BITMAP
1FC0
1FC0
0000
19C0
19C0
19C0
0000
0000
0400
1FC0
3FE0
70E0
6070
E030
E030
E030
E030
E030
6070
6060
70E0
3FC0
1F80
ENDCHAR
STARTCHAR 022C
ENCODING 556
SWIDTH 682 0
DWIDTH 18 0
BBX 16 26 1 0
BITMAP
07F0
07F0
0000
07B0
05F0
0C40
0000
07F0
1FF8
3C1C
380E
7006
6007
6007
E003
E003
E003
E003
E003
6007
6007
7006
300E
3C1C
1FF8
07F0
ENDCHAR
STARTCHAR 022D
ENCODING 557
SWIDTH 530 0
DWIDTH 14 0
BBX 12 22 1 0
BITMAP
1FC0
1FC0
0000
1EC0
17C0
3100
0000
0400
1FC0
3FE0
70E0
6070
E030
E030
E030
E030
E030
6070
6060
70E0
3FC0
1F80
ENDCHAR
STARTCHAR 022E
ENCODING 558
SWIDTH 682 0
DWIDTH 18 0
BBX 16 24 1 0
BITMAP
0180
0180
0180
0000
0000
07F0
1FF8
3C1C
380E
7006
6007
6007
E003
E003
E003
E003
E003
6007
6007
7006
300E
3C1C
1FF8
07F0
ENDCHAR
STARTCHAR 022F
ENCODING 559
SWIDTH 530 0
DWIDTH 14 0
BBX 12 20 1 0
BITMAP
0600
0600
0600
0000
0000
0400
1FC0
3FE0
70E0
6070
E030
E030
E030
E030
E030
6070
6060
70E0
3FC0
1F80
ENDCHAR
STARTCHAR 0230
ENCODING 560
SWIDTH 682 0
DWIDTH 18 0
BBX 16 26 1 0
BITMAP
07F0
07F0
0000
0180
0180
0180
0000
07F0
1FF8
3C1C
380E
7006
6007
6007
E003
E003
E003
E003
E003
6007
6007
7006
300E
3C1C
1FF8
07F0
ENDCHAR
STARTCHAR 0231
ENCODING 561
SWIDTH 530 0
DWIDTH 14 0
BBX 12 23 1 0
BITMAP
1FC0
1FC0
0000
0600
0600
0600
0000
0000
0400
1FC0
3FE0
70E0
6070
E030
E030
E030
E030
E030
6070
6060
70E0
3FC0
1F80
ENDCHAR
STARTCHAR 0232
ENCODING 562
SWIDTH 530 0
DWIDTH 14 0
BBX 14 23 0 0
BITMAP
0FE0
0FE0
0000
0000
E00C
6018
7038
3830
1870
1C60
0CC0
07C0
0780
0380
0300
0300
0300
0300
0300
0300
0300
0300
0300
ENDCHAR
STARTCHAR 0233
ENCODING 563
SWIDTH 530 0
DWIDTH 14 0
BBX 12 24 1 -5
BITMAP
1F80
1F80
0000
0000
0000
C030
E070
6060
6060
70C0
30C0
31C0
1980
1980
1B80
0F00
0F00
0F00
0600
0600
0C00
0C00
7C00
7800
ENDCHAR
STARTCHAR 0234
ENCODING 564
SWIDTH 416 0
DWIDTH 11 0
BBX 8 22 2 -2
BITMAP
C0
C0
C0
C0
C0
C0
C0
C0
C0
C0
C0
C0
C0
C0
DE
DF
F3
F7
FE
FE
C0
C0
ENDCHAR
STARTCHAR 0235
ENCODING 565
SWIDTH 757 0
DWIDTH 20 0
BBX 16 17 2 -2
BITMAP
0200
DF80
DFC0
E0C0
E0E0
C060
C060
C060
C060
C06F
C07F
C07B
C073
C07F
C07E
0060
00E0
ENDCHAR
STARTCHAR 0236
ENCODING 566
SWIDTH 416 0
DWIDTH 11 0
BBX 9 20 1 -2
BITMAP
6000
6000
6000
6000
FF00
FF00
6000
6000
6000
6000
6000
6000
6F00
6F80
7980
7980
7F00
3F00
6000
6000
ENDCHAR
STARTCHAR 0237
ENCODING 567
SWIDTH 265 0
DWIDTH 7 0
BBX 4 19 0 -5
BITMAP
30
30
30
30
30
30
30
30
30
30
30
30
30
30
30
30
30
F0
E0
ENDCHAR
STARTCHAR 0238
ENCODING 568
SWIDTH 871 0
DWIDTH 23 0
BBX 21 20 1 0
BITMAP
003000
003000
003000
003000
003000
043100
1FB7E0
3FBEF0
70F830
607038
E07018
E03018
C03018
C03018
E07018
607018
607038
70F870
3FBFE0
1F37C0
ENDCHAR
STARTCHAR 0239
ENCODING 569
SWIDTH 871 0
DWIDTH 23 0
BBX 21 20 1 -5
BITMAP
040100
1FB7E0
3FBEF0
70F830
607038
E07018
E03018
C03018
C03018
E07018
607018
607038
70F870
3FBFE0
1F37C0
003000
003000
003000
003000
003000
ENDCHAR
STARTCHAR 023A
ENCODING 570
SWIDTH 606 0
DWIDTH 16 0
BBX 16 19 0 0
BITMAP
0183
03C6
03CC
07EC
0678
0670
0E70
0C70
0CF0
1DB8
1B18
1F18
3FFC
3FFC
380C
780E
7006
6006
E007
ENDCHAR
STARTCHAR 023B
ENCODING 571
SWIDTH 606 0
DWIDTH 16 0
BBX 16 20 0 0
BITMAP
03FB
0FFE
1E06
1C0E
3818
3030
3070
7060
70C0
7180
7300
7300
3600
3C00
3800
1C02
3E06
6FFE
C3F8
4000
ENDCHAR
STARTCHAR 023C
ENCODING 572
SWIDTH 492 0
DWIDTH 13 0
BBX 13 16 0 -1
BITMAP
0118
0FF0
1EE0
3860
30C0
3180
7100
7300
7600
7C00
3800
3800
3800
7FE0
4FE0
C000
ENDCHAR
STARTCHAR 023D
ENCODING 573
SWIDTH 492 0
DWIDTH 13 0
BBX 13 19 0 0
BITMAP
3800
3800
3800
3800
3800
3800
3800
3800
FE00
FE00
3800
3800
3800
3800
3800
3800
3800
3FF8
3FF8
ENDCHAR
STARTCHAR 023E
ENCODING 574
SWIDTH 530 0
DWIDTH 14 0
BBX 16 20 -1 0
BITMAP
7FFF
7FFE
0186
018C
0198
01B0
01F0
01E0
01C0
0180
0380
0380
0780
0D80
1980
1980
3180
6180
C180
4000
ENDCHAR
STARTCHAR 023F
ENCODING 575
SWIDTH 454 0
DWIDTH 12 0
BBX 11 21 1 -6
BITMAP
0400
3F80
7380
E000
C000
E000
7800
3F00
0F80
01C0
00C0
00C0
81C0
FF80
FF00
1C00
0E00
0700
0380
01E0
00E0
ENDCHAR
STARTCHAR 0240
ENCODING 576
SWIDTH 454 0
DWIDTH 12 0
BBX 11 20 1 -6
BITMAP
FFC0
FFC0
01C0
0380
0300
0700
0E00
1C00
1800
3000
7000
E000
E000
F800
3800
1C00
0E00
0700
03E0
01E0
ENDCHAR
STARTCHAR 0241
ENCODING 577
SWIDTH 530 0
DWIDTH 14 0
BBX 12 19 1 0
BITMAP
7F80
FFE0
C0F0
0070
0030
0030
0030
0030
0070
0FE0
0FC0
0C00
0C00
0C00
0C00
0C00
0C00
0C00
0C00
ENDCHAR
STARTCHAR 0242
ENCODING 578
SWIDTH 416 0
DWIDTH 11 0
BBX 9 15 1 0
BITMAP
1000
FF00
FF00
0380
0180
0180
0180
0180
0380
0780
3F00
3C00
3800
3800
3800
ENDCHAR
STARTCHAR 0243
ENCODING 579
SWIDTH 606 0
DWIDTH 16 0
BBX 14 19 0 0
BITMAP
3FE0
3FF0
3838
381C
381C
381C
3818
3838
3FF0
3FF0
3818
380C
3F8C
FF8C
380C
381C
383C
3FF8
3FE0
ENDCHAR
STARTCHAR 0244
ENCODING 580
SWIDTH 644 0
DWIDTH 17 0
BBX 17 19 0 0
BITMAP
300600
300600
300600
300600
300600
300600
300600
300600
FFFF80
FFFF80
300600
300600
300600
300600
380E00
180E00
1C1C00
0FF800
07F000
ENDCHAR
STARTCHAR 0245
ENCODING 581
SWIDTH 606 0
DWIDTH 16 0
BBX 16 19 0 0
BITMAP
0180
03C0
03C0
07C0
0660
0660
0E70
0C30
0C30
1C38
1818
1818
381C
300C
300C
700E
6006
6006
E007
ENDCHAR
STARTCHAR 0246
ENCODING 582
SWIDTH 568 0
DWIDTH 15 0
BBX 11 23 2 -2
BITMAP
0060
00C0
FFE0
FFE0
E180
E180
E180
E300
E300
E300
FFE0
FFE0
E600
E600
EC00
EC00
EC00
F800
F800
FFE0
FFE0
3000
3000
ENDCHAR
STARTCHAR 0247
ENCODING 583
SWIDTH 530 0
DWIDTH 14 0
BBX 12 19 1 -2
BITMAP
0040
00C0
02C0
1FC0
3DE0
71E0
6330
6330
E330
FFF0
C600
EC00
6C00
6C00
7810
3FF0
1FE0
3000
3000
ENDCHAR
STARTCHAR 0248
ENCODING 584
SWIDTH 265 0
DWIDTH 7 0
BBX 8 24 -1 -5
BITMAP
1C
1C
1C
1C
1C
1C
1C
1C
1C
7F
7F
1C
1C
1C
1C
1C
1C
1C
1C
1C
18
38
F8
E0
ENDCHAR
STARTCHAR 0249
ENCODING 585
SWIDTH 265 0
DWIDTH 7 0
BBX 6 25 0 -5
BITMAP
30
30
30
00
00
00
30
30
30
30
30
30
FC
FC
30
30
30
30
30
30
30
30
30
F0
E0
ENDCHAR
STARTCHAR 024A
ENCODING 586
SWIDTH 682 0
DWIDTH 18 0
BBX 19 24 1 -5
BITMAP
0FE600
1FF600
383600
301E00
700E00
600E00
600E00
E00600
E00600
E00600
E00600
E00600
600E00
600E00
700E00
301E00
383600
1FF600
0FE600
000600
000600
000700
0003E0
0001E0
ENDCHAR
STARTCHAR 024B
ENCODING 587
SWIDTH 568 0
DWIDTH 15 0
BBX 14 20 1 -5
BITMAP
0400
1FB0
3FB0
70F0
6070
E070
E030
C030
C030
E070
6070
6070
70F0
3FB0
1F30
0030
0030
0030
003C
001C
ENDCHAR
STARTCHAR 024C
ENCODING 588
SWIDTH 606 0
DWIDTH 16 0
BBX 15 19 0 0
BITMAP
3FC0
3FF0
3878
3838
3818
3818
3818
3838
3878
FFF0
FFE0
3870
3838
3818
381C
380C
380C
380E
3806
ENDCHAR
STARTCHAR 024D
ENCODING 589
SWIDTH 378 0
DWIDTH 10 0
BBX 10 15 0 0
BITMAP
0080
37C0
3FC0
3800
3800
3000
3000
FC00
FC00
3000
3000
3000
3000
3000
3000
ENDCHAR
STARTCHAR 024E
ENCODING 590
SWIDTH 530 0
DWIDTH 14 0
BBX 14 19 0 0
BITMAP
E00C
6018
7038
FFFC
FFFC
1C60
0CC0
0FC0
0780
0380
0300
0300
0300
0300
0300
0300
0300
0300
0300
ENDCHAR
STARTCHAR 024F
ENCODING 591
SWIDTH 530 0
DWIDTH 14 0
BBX 14 19 0 -5
BITMAP
6018
7038
3030
3030
3860
1860
FFFC
0CC0
0CC0
0DC0
0780
0780
0780
0300
0300
0600
0600
3E00
3C00
ENDCHAR
STARTCHAR 0250
ENCODING 592
SWIDTH 530 0
DWIDTH 14 0
BBX 11 15 2 0
BITMAP
0200
DF80
F9C0
E0E0
E060
C060
C0E0
C1C0
FF80
FE00
C000
C000
6040
7FC0
3FC0
ENDCHAR
STARTCHAR 0251
ENCODING 593
SWIDTH 568 0
DWIDTH 15 0
BBX 12 15 1 0
BITMAP
0400
1FB0
3FB0
70F0
6070
E070
E030
C030
C030
E070
6070
6070
70F0
3FB0
1F30
ENDCHAR
STARTCHAR 0252
ENCODING 594
SWIDTH 568 0
DWIDTH 15 0
BBX 12 15 2 0
BITMAP
0200
DF80
FBC0
E0E0
E060
E060
C060
C070
C070
C060
E060
E060
F0E0
DFC0
CF80
ENDCHAR
STARTCHAR 0253
ENCODING 595
SWIDTH 568 0
DWIDTH 15 0
BBX 12 20 2 0
BITMAP
1E00
7E00
6000
E000
C000
C200
DF80
FBC0
E0E0
E060
E060
C070
C070
C070
C060
E060
E060
F0E0
DFC0
CF80
ENDCHAR
STARTCHAR 0254
ENCODING 596
SWIDTH 492 0
DWIDTH 13 0
BBX 11 15 1 0
BITMAP
0800
FF00
FF80
01C0
00C0
00C0
00C0
00E0
00E0
00C0
00C0
01C0
8180
FF80
FF00
ENDCHAR
STARTCHAR 0255
ENCODING 597
SWIDTH 492 0
DWIDTH 13 0
BBX 10 17 1 -2
BITMAP
0200
1FC0
3DC0
7000
6000
6000
E000
E000
E000
E000
6780
6FC0
7CC0
3FC0
1FC0
1800
1800
ENDCHAR
STARTCHAR 0256
ENCODING 598
SWIDTH 568 0
DWIDTH 15 0
BBX 14 25 1 -5
BITMAP
0030
0030
0030
0030
0030
0430
1FB0
3FB0
70F0
6070
E070
E030
C030
C030
E070
6070
6070
70F0
3FB0
1F30
0030
0030
0030
003C
001C
ENDCHAR
STARTCHAR 0257
ENCODING 599
SWIDTH 606 0
DWIDTH 16 0
BBX 16 20 1 0
BITMAP
000F
001F
0038
0030
0030
0430
1FB0
3FB0
70F0
6070
E070
E030
C030
C030
E070
6070
6070
70F0
3FB0
1F30
ENDCHAR
STARTCHAR 0258
ENCODING 600
SWIDTH 530 0
DWIDTH 14 0
BBX 12 15 1 0
BITMAP
0200
1F80
3BC0
6060
6070
E030
C030
FFF0
0030
0030
0030
0070
40E0
7FC0
7F80
ENDCHAR
STARTCHAR 0259
ENCODING 601
SWIDTH 530 0
DWIDTH 14 0
BBX 12 15 1 0
BITMAP
0400
7F80
7BC0
00E0
0070
0030
0030
FFF0
FFF0
C030
E030
6070
70E0
3FC0
1F80
ENDCHAR
STARTCHAR 025A
ENCODING 602
SWIDTH 720 0
DWIDTH 19 0
BBX 18 15 1 0
BITMAP
040000
7F8000
7BCF00
007F00
007F00
00F700
03F300
0733C0
1C31C0
383000
E07000
607000
70E000
3FC000
1F8000
ENDCHAR
STARTCHAR 025B
ENCODING 603
SWIDTH 492 0
DWIDTH 13 0
BBX 9 15 2 0
BITMAP
0C00
7F80
F780
C000
C000
C000
7E00
3E00
F000
C000
C000
C000
C000
FF80
7F80
ENDCHAR
STARTCHAR 025C
ENCODING 604
SWIDTH 454 0
DWIDTH 12 0
BBX 9 15 2 0
BITMAP
1800
FF00
EF00
0380
0180
0300
3F00
3E00
0700
0180
0180
0180
0380
FF00
FE00
ENDCHAR
STARTCHAR 025D
ENCODING 605
SWIDTH 682 0
DWIDTH 18 0
BBX 16 15 2 0
BITMAP
1800
FF00
EF38
03F8
01F8
039C
3F0C
3E0F
0707
0180
0180
0180
0380
FF00
FE00
ENDCHAR
STARTCHAR 025E
ENCODING 606
SWIDTH 606 0
DWIDTH 16 0
BBX 13 15 1 0
BITMAP
0100
1FE0
3EF0
7038
6018
6030
E3F0
E3C0
E0F0
E038
6018
6018
7038
3FF0
1FE0
ENDCHAR
STARTCHAR 025F
ENCODING 607
SWIDTH 265 0
DWIDTH 7 0
BBX 6 19 0 -5
BITMAP
30
30
30
30
30
30
FC
FC
30
30
30
30
30
30
30
30
30
F0
E0
ENDCHAR
STARTCHAR 0260
ENCODING 608
SWIDTH 606 0
DWIDTH 16 0
BBX 16 25 1 -5
BITMAP
000F
001F
0038
0030
0030
0430
1FB0
3FB0
70F0
6070
E070
E030
C030
C030
E070
6070
6070
70F0
3FB0
1F30
0070
0060
00E0
3FC0
3F80
ENDCHAR
STARTCHAR 0261
ENCODING 609
SWIDTH 568 0
DWIDTH 15 0
BBX 12 19 1 -5
BITMAP
1FF0
3FF0
7030
6030
E030
E030
C030
C030
E070
6070
6070
70F0
3FB0
1F30
0070
0060
00E0
3FC0
3F80
ENDCHAR
STARTCHAR 0262
ENCODING 610
SWIDTH 568 0
DWIDTH 15 0
BBX 12 15 1 0
BITMAP
0200
1FE0
3DE0
7020
6000
6000
E000
E000
E0F0
E0F0
6030
6030
7030
3FF0
1FE0
ENDCHAR
STARTCHAR 0263
ENCODING 611
SWIDTH 530 0
DWIDTH 14 0
BBX 12 19 1 -5
BITMAP
E070
6060
70E0
30C0
31C0
1980
1980
0F00
0F00
0600
0600
0F00
0F00
1980
1980
1980
1980
1F80
1F80
ENDCHAR
STARTCHAR 0264
ENCODING 612
SWIDTH 530 0
DWIDTH 14 0
BBX 10 14 2 0
BITMAP
C0C0
E1C0
6180
3300
3F00
1E00
0C00
1E00
3E00
3300
3300
3300
3F00
3F00
ENDCHAR
STARTCHAR 0265
ENCODING 613
SWIDTH 568 0
DWIDTH 15 0
BBX 11 19 2 -5
BITMAP
C060
C060
C060
C060
C060
C060
C060
C060
C060
C0E0
C0E0
E1E0
7F60
3E60
0060
0060
0060
0060
0060
ENDCHAR
STARTCHAR 0266
ENCODING 614
SWIDTH 568 0
DWIDTH 15 0
BBX 11 20 2 0
BITMAP
1E00
7E00
E000
C000
C000
C200
DF80
DFC0
E0C0
E0E0
C060
C060
C060
C060
C060
C060
C060
C060
C060
C060
ENDCHAR
STARTCHAR 0267
ENCODING 615
SWIDTH 568 0
DWIDTH 15 0
BBX 11 25 2 -5
BITMAP
1E00
7E00
E000
C000
C000
C200
DF80
DFC0
E0C0
E0E0
C060
C060
C060
C060
C060
C060
C060
C060
C060
C060
0060
0060
00E0
0FC0
0FC0
ENDCHAR
STARTCHAR 0268
ENCODING 616
SWIDTH 265 0
DWIDTH 7 0
BBX 6 20 0 0
BITMAP
30
30
30
00
00
00
30
30
30
30
30
30
FC
FC
30
30
30
30
30
30
ENDCHAR
STARTCHAR 0269
ENCODING 617
SWIDTH 303 0
DWIDTH 8 0
BBX 5 14 2 0
BITMAP
C0
C0
C0
C0
C0
C0
C0
C0
C0
C0
C0
E0
78
38
ENDCHAR
STARTCHAR 026A
ENCODING 618
SWIDTH 341 0
DWIDTH 9 0
BBX 6 14 1 0
BITMAP
FC
FC
30
30
30
30
30
30
30
30
30
30
FC
FC
ENDCHAR
STARTCHAR 026B
ENCODING 619
SWIDTH 341 0
DWIDTH 9 0
BBX 7 20 1 0
BITMAP
18
18
18
18
18
18
18
18
3A
FA
DE
9C
18
18
18
18
18
18
18
18
ENDCHAR
STARTCHAR 026C
ENCODING 620
SWIDTH 416 0
DWIDTH 11 0
BBX 9 20 1 0
BITMAP
0C00
0C00
0C00
0C00
0C00
0C00
0C00
FC00
DC00
DC00
FF80
7F80
0C00
0C00
0C00
0C00
0C00
0C00
0C00
0C00
ENDCHAR
STARTCHAR 026D
ENCODING 621
SWIDTH 265 0
DWIDTH 7 0
BBX 5 25 2 -5
BITMAP
C0
C0
C0
C0
C0
C0
C0
C0
C0
C0
C0
C0
C0
C0
C0
C0
C0
C0
C0
C0
C0
C0
E0
78
78
ENDCHAR
STARTCHAR 026E
ENCODING 622
SWIDTH 644 0
DWIDTH 17 0
BBX 13 26 2 -6
BITMAP
C000
C000
C000
C000
C000
C000
FFF0
FFF0
C070
C0E0
C0C0
C180
C380
C700
C7C0
C7E0
C070
C038
C018
C018
0018
0018
2038
3FF0
3FE0
0200
ENDCHAR
STARTCHAR 026F
ENCODING 623
SWIDTH 871 0
DWIDTH 23 0
BBX 19 14 2 0
BITMAP
C0E060
C0E060
C0E060
C0E060
C0E060
C0E060
C0E060
C0E060
C0E060
C0E0E0
E0E0E0
61E1E0
7F7F60
3E3E60
ENDCHAR
STARTCHAR 0270
ENCODING 624
SWIDTH 871 0
DWIDTH 23 0
BBX 19 19 2 -5
BITMAP
C0E060
C0E060
C0E060
C0E060
C0E060
C0E060
C0E060
C0E060
C0E060
C0E0E0
E0E0E0
61E1E0
7F7F60
3E3E60
000060
000060
000060
000060
000060
ENDCHAR
STARTCHAR 0271
ENCODING 625
SWIDTH 871 0
DWIDTH 23 0
BBX 19 20 2 -5
BITMAP
020200
DF8F80
DFDFC0
E0F0C0
E0E0E0
C0E060
C0E060
C0E060
C0E060
C0E060
C0E060
C0E060
C0E060
C0E060
C0E060
000060
000060
0000E0
000FC0
000FC0
ENDCHAR
STARTCHAR 0272
ENCODING 626
SWIDTH 568 0
DWIDTH 15 0
BBX 13 20 0 -5
BITMAP
0080
33E0
37F0
3838
3818
3018
3018
3018
3018
3018
3018
3018
3018
3018
3018
3000
3000
3000
F000
E000
ENDCHAR
STARTCHAR 0273
ENCODING 627
SWIDTH 568 0
DWIDTH 15 0
BBX 13 20 2 -5
BITMAP
0200
DF80
DFC0
E0C0
E0E0
C060
C060
C060
C060
C060
C060
C060
C060
C060
C060
0060
0060
0060
0078
0038
ENDCHAR
STARTCHAR 0274
ENCODING 628
SWIDTH 568 0
DWIDTH 15 0
BBX 11 14 2 0
BITMAP
F060
F060
F060
D860
D860
CC60
CC60
C660
C660
C360
C360
C1E0
C1E0
C1E0
ENDCHAR
STARTCHAR 0275
ENCODING 629
SWIDTH 530 0
DWIDTH 14 0
BBX 12 15 1 0
BITMAP
0400
1FC0
3DE0
7060
6070
E030
FFF0
FFF0
FFF0
E030
6070
6060
70E0
3FC0
1F80
ENDCHAR
STARTCHAR 0276
ENCODING 630
SWIDTH 757 0
DWIDTH 20 0
BBX 17 14 1 0
BITMAP
0FFF80
3EFF80
70C000
60C000
60C000
E0FF80
C0FF80
C0C000
E0C000
60C000
60C000
30C000
1FFF80
0FFF80
ENDCHAR
STARTCHAR 0277
ENCODING 631
SWIDTH 644 0
DWIDTH 17 0
BBX 13 15 2 0
BITMAP
0200
1FC0
3DE0
7070
E038
E018
C018
C718
C718
C718
C718
C718
E518
7DF0
78F0
ENDCHAR
STARTCHAR 0278
ENCODING 632
SWIDTH 568 0
DWIDTH 15 0
BBX 13 25 1 -5
BITMAP
0300
0300
0300
0300
0300
0700
1FE0
3FF0
7330
6338
E318
E318
C318
C318
E318
6318
6338
7370
3FE0
1FC0
0300
0300
0300
0300
0300
ENDCHAR
STARTCHAR 0279
ENCODING 633
SWIDTH 378 0
DWIDTH 10 0
BBX 7 14 0 0
BITMAP
06
06
06
06
06
06
06
06
06
06
06
0E
FE
F6
ENDCHAR
STARTCHAR 027A
ENCODING 634
SWIDTH 378 0
DWIDTH 10 0
BBX 7 20 0 0
BITMAP
06
06
06
06
06
06
06
06
06
06
06
06
06
06
06
06
06
0E
FE
F6
ENDCHAR
STARTCHAR 027B
ENCODING 635
SWIDTH 378 0
DWIDTH 10 0
BBX 10 19 0 -5
BITMAP
0600
0600
0600
0600
0600
0600
0600
0600
0600
0600
0600
0E00
FE00
F600
0600
0700
0300
03C0
01C0
ENDCHAR
STARTCHAR 027C
ENCODING 636
SWIDTH 378 0
DWIDTH 10 0
BBX 8 20 2 -5
BITMAP
02
DF
FF
E0
E0
C0
C0
C0
C0
C0
C0
C0
C0
C0
C0
C0
C0
C0
C0
C0
ENDCHAR
STARTCHAR 027D
ENCODING 637
SWIDTH 378 0
DWIDTH 10 0
BBX 8 20 2 -5
BITMAP
02
DF
FF
E0
E0
C0
C0
C0
C0
C0
C0
C0
C0
C0
C0
C0
C0
E0
7E
7E
ENDCHAR
STARTCHAR 027E
ENCODING 638
SWIDTH 454 0
DWIDTH 12 0
BBX 8 15 2 0
BITMAP
07
3F
38
30
70
60
60
60
60
60
60
60
60
F8
F8
ENDCHAR
STARTCHAR 027F
ENCODING 639
SWIDTH 454 0
DWIDTH 12 0
BBX 9 15 1 0
BITMAP
F000
FC00
1E00
0600
0600
0600
0600
0600
0600
0600
0600
0600
0600
1F80
1F80
ENDCHAR
STARTCHAR 0280
ENCODING 640
SWIDTH 530 0
DWIDTH 14 0
BBX 11 14 2 0
BITMAP
FF00
FF80
C180
C180
C180
C180
FF00
FE00
C300
C180
C1C0
C0C0
C0E0
C060
ENDCHAR
STARTCHAR 0281
ENCODING 641
SWIDTH 530 0
DWIDTH 14 0
BBX 11 14 2 0
BITMAP
C060
C0E0
C0C0
C1C0
C180
C700
FE00
FF80
C180
C180
C180
C380
FF80
FE00
ENDCHAR
STARTCHAR 0282
ENCODING 642
SWIDTH 454 0
DWIDTH 12 0
BBX 10 20 1 -5
BITMAP
0400
3F80
7380
E000
C000
E000
7800
3F00
0F80
01C0
00C0
00C0
81C0
FF80
FF00
C000
C000
E000
7E00
7E00
ENDCHAR
STARTCHAR 0283
ENCODING 643
SWIDTH 303 0
DWIDTH 8 0
BBX 8 25 0 -5
BITMAP
07
1F
18
30
30
30
30
30
30
30
30
30
30
30
30
30
30
30
30
30
30
30
30
F0
E0
ENDCHAR
STARTCHAR 0284
ENCODING 644
SWIDTH 303 0
DWIDTH 8 0
BBX 8 25 0 -5
BITMAP
07
1F
18
30
30
30
F0
F0
30
30
30
30
FC
FC
30
30
30
30
30
30
30
30
30
F0
E0
ENDCHAR
STARTCHAR 0285
ENCODING 645
SWIDTH 416 0
DWIDTH 11 0
BBX 8 19 1 -5
BITMAP
F0
F8
1C
0C
0C
0C
0C
0C
0C
0C
0C
0C
0C
0C
0C
0C
0C
0F
07
ENDCHAR
STARTCHAR 0286
ENCODING 646
SWIDTH 303 0
DWIDTH 8 0
BBX 11 25 -3 -5
BITMAP
00E0
03E0
0700
0600
0600
0600
0600
0600
0600
0600
0600
0600
0600
0600
0600
0600
0600
0600
0600
0600
7F80
FF80
C600
FE00
7C00
ENDCHAR
STARTCHAR 0287
ENCODING 647
SWIDTH 341 0
DWIDTH 9 0
BBX 8 18 1 -4
BITMAP
F8
FC
0C
0C
0C
0C
0C
0C
0C
0C
0C
0C
FF
FF
0C
0C
0C
0C
ENDCHAR
STARTCHAR 0288
ENCODING 648
SWIDTH 341 0
DWIDTH 9 0
BBX 8 23 1 -5
BITMAP
60
60
60
60
FF
FF
60
60
60
60
60
60
60
60
60
60
60
60
60
60
70
3F
3F
ENDCHAR
STARTCHAR 0289
ENCODING 649
SWIDTH 568 0
DWIDTH 15 0
BBX 15 14 0 0
BITMAP
3018
3018
3018
3018
3018
3018
FFFE
FFFE
3018
3038
3038
3878
1FD8
0F98
ENDCHAR
STARTCHAR 028A
ENCODING 650
SWIDTH 530 0
DWIDTH 14 0
BBX 12 14 1 0
BITMAP
F9F0
F9F0
39C0
30E0
7060
6070
E030
E030
E030
6030
6070
7060
3FC0
1F80
ENDCHAR
STARTCHAR 028B
ENCODING 651
SWIDTH 530 0
DWIDTH 14 0
BBX 11 14 2 0
BITMAP
C300
C380
C1C0
C0C0
C0E0
C0E0
C060
C060
C060
C0C0
C0C0
61C0
7F80
3E00
ENDCHAR
STARTCHAR 028C
ENCODING 652
SWIDTH 530 0
DWIDTH 14 0
BBX 12 14 1 0
BITMAP
0F00
0F00
0F00
1B80
1980
1980
31C0
30C0
30C0
60E0
6060
6060
C070
C030
ENDCHAR
STARTCHAR 028D
ENCODING 653
SWIDTH 720 0
DWIDTH 19 0
BBX 17 14 1 0
BITMAP
1C1C00
1C1C00
1C1C00
3E3600
363600
363600
323600
336300
636300
636300
636300
61C380
C1C180
C1C180
ENDCHAR
STARTCHAR 028E
ENCODING 654
SWIDTH 530 0
DWIDTH 14 0
BBX 12 20 1 0
BITMAP
00E0
01E0
0380
0300
0600
0600
0600
0F00
0F00
1F00
1B80
1980
3980
30C0
30C0
70C0
6060
6060
C070
C030
ENDCHAR
STARTCHAR 028F
ENCODING 655
SWIDTH 530 0
DWIDTH 14 0
BBX 10 14 2 0
BITMAP
C0C0
E1C0
6180
7380
3300
1E00
1E00
0C00
0C00
0C00
0C00
0C00
0C00
0C00
ENDCHAR
STARTCHAR 0290
ENCODING 656
SWIDTH 454 0
DWIDTH 12 0
BBX 13 19 1 -5
BITMAP
FFC0
FFC0
01C0
0380
0300
0700
0E00
1C00
1800
3000
7000
E000
FFC0
FFC0
00C0
00C0
00E0
0078
0078
ENDCHAR
STARTCHAR 0291
ENCODING 657
SWIDTH 454 0
DWIDTH 12 0
BBX 10 15 1 -1
BITMAP
FFC0
FFC0
01C0
0380
0300
0700
0E00
1C00
1900
37C0
76C0
ECC0
FFC0
FF80
0C00
ENDCHAR
STARTCHAR 0292
ENCODING 658
SWIDTH 530 0
DWIDTH 14 0
BBX 11 20 1 -6
BITMAP
FFC0
FFC0
01C0
0380
0300
0600
0E00
1C00
1F00
1F80
01C0
00E0
0060
0060
0060
0060
80E0
FFC0
FF80
0800
ENDCHAR
STARTCHAR 0293
ENCODING 659
SWIDTH 530 0
DWIDTH 14 0
BBX 12 20 1 -6
BITMAP
FFC0
FFC0
01C0
0380
0300
0600
0E00
1C00
1F00
1F80
01C0
00E0
0060
0060
3F60
7FE0
60E0
7FF0
7FB0
0830
ENDCHAR
STARTCHAR 0294
ENCODING 660
SWIDTH 454 0
DWIDTH 12 0
BBX 10 20 1 0
BITMAP
3C00
FF00
C780
0180
0180
01C0
01C0
01C0
0180
0380
1F00
1C00
1800
1800
1800
1800
1800
1800
1800
1800
ENDCHAR
STARTCHAR 0295
ENCODING 661
SWIDTH 454 0
DWIDTH 12 0
BBX 10 20 1 0
BITMAP
0F00
3FC0
78C0
6000
C000
C000
C000
C000
E000
7000
3E00
0E00
0E00
0E00
0E00
0E00
0E00
0E00
0E00
0E00
ENDCHAR
STARTCHAR 0296
ENCODING 662
SWIDTH 454 0
DWIDTH 12 0
BBX 10 20 1 0
BITMAP
1800
1800
1800
1800
1800
1800
1800
1800
1800
1E00
0F00
0380
0180
01C0
01C0
01C0
0180
8380
FF00
7C00
ENDCHAR
STARTCHAR 0297
ENCODING 663
SWIDTH 454 0
DWIDTH 12 0
BBX 10 25 1 -6
BITMAP
0F00
3FC0
78C0
E000
C000
C000
C000
C000
C000
C000
C000
C000
C000
C000
C000
C000
C000
C000
C000
C000
C000
E000
6000
7FC0
3FC0
ENDCHAR
STARTCHAR 0298
ENCODING 664
SWIDTH 682 0
DWIDTH 18 0
BBX 16 19 1 0
BITMAP
07F0
1FF8
3C1C
380E
7006
6007
6007
E003
E183
E183
E183
E003
6007
6007
7006
300E
3C1C
1FF8
07F0
ENDCHAR
STARTCHAR 0299
ENCODING 665
SWIDTH 530 0
DWIDTH 14 0
BBX 10 14 2 0
BITMAP
FF00
FF80
C1C0
C0C0
C1C0
C380
FF00
C380
C0C0
C0C0
C0C0
C1C0
FFC0
FF00
ENDCHAR
STARTCHAR 029A
ENCODING 666
SWIDTH 606 0
DWIDTH 16 0
BBX 13 15 1 0
BITMAP
0600
3FC0
7BE0
6070
6030
6038
3E18
1E18
7818
6018
C038
C030
6070
7FE0
3FC0
ENDCHAR
STARTCHAR 029B
ENCODING 667
SWIDTH 644 0
DWIDTH 17 0
BBX 16 20 1 0
BITMAP
000F
003F
0070
0060
0060
0360
1FE0
3DE0
7020
6000
6000
E000
E000
E0F0
E0F0
6030
6030
7030
3FF0
1FE0
ENDCHAR
STARTCHAR 029C
ENCODING 668
SWIDTH 568 0
DWIDTH 15 0
BBX 11 14 2 0
BITMAP
C060
C060
C060
C060
C060
C060
FFE0
C060
C060
C060
C060
C060
C060
C060
ENDCHAR
STARTCHAR 029D
ENCODING 669
SWIDTH 265 0
DWIDTH 7 0
BBX 9 25 -3 -5
BITMAP
0600
0600
0600
0000
0000
0000
0600
0600
0600
0600
0600
0600
0600
0600
0600
0600
0600
0600
0600
0600
7F80
FF80
C600
FE00
7C00
ENDCHAR
STARTCHAR 029E
ENCODING 670
SWIDTH 606 0
DWIDTH 16 0
BBX 10 20 3 -6
BITMAP
E0C0
60C0
30C0
18C0
0CC0
0EC0
07C0
03C0
07C0
0EC0
1CC0
38C0
70C0
E0C0
00C0
00C0
00C0
00C0
00C0
00C0
ENDCHAR
STARTCHAR 029F
ENCODING 671
SWIDTH 454 0
DWIDTH 12 0
BBX 10 14 2 0
BITMAP
C000
C000
C000
C000
C000
C000
C000
C000
C000
C000
C000
C000
FFC0
FFC0
ENDCHAR
STARTCHAR 02A0
ENCODING 672
SWIDTH 644 0
DWIDTH 17 0
BBX 16 25 1 -5
BITMAP
000F
001F
0038
0030
0030
0430
1FB0
3FB0
70F0
6070
E070
E030
C030
C030
E070
6070
6070
70F0
3FB0
1F30
0030
0030
0030
0030
0030
ENDCHAR
STARTCHAR 02A1
ENCODING 673
SWIDTH 454 0
DWIDTH 12 0
BBX 10 20 1 0
BITMAP
3C00
FF00
C780
0180
0180
01C0
01C0
01C0
0180
0780
1F00
1C00
1800
1800
FF00
FF00
F800
1800
1800
1800
ENDCHAR
STARTCHAR 02A2
ENCODING 674
SWIDTH 454 0
DWIDTH 12 0
BBX 10 20 1 0
BITMAP
0F00
3FC0
78C0
6000
C000
C000
C000
C000
E000
7000
3E00
0E00
0E00
0E00
3F80
3F80
3E00
0E00
0E00
0E00
ENDCHAR
STARTCHAR 02A3
ENCODING 675
SWIDTH 909 0
DWIDTH 24 0
BBX 22 20 1 0
BITMAP
003000
003000
003000
003000
003000
043000
1FBFFC
3FBFFC
70F018
607030
E07070
E030E0
C030C0
C03180
E07380
607700
607E00
70FC00
3FBFFC
1F3FFC
ENDCHAR
STARTCHAR 02A4
ENCODING 676
SWIDTH 947 0
DWIDTH 25 0
BBX 23 25 1 -6
BITMAP
003000
003000
003000
003000
003000
043000
1FBFFC
3FBFFC
70F018
607030
E07070
E030E0
C030C0
C03180
E073E0
6073F8
60703C
70F00C
3FB00E
1F300E
00000E
00000C
00101C
001FF8
001FF0
ENDCHAR
STARTCHAR 02A5
ENCODING 677
SWIDTH 909 0
DWIDTH 24 0
BBX 22 21 1 -1
BITMAP
003000
003000
003000
003000
003000
043000
1FBFFC
3FBFFC
70F018
607030
E07070
E030E0
C030C0
C03180
E07380
607778
607EF8
70FCCC
3FBFF8
1F3FF0
000080
ENDCHAR
STARTCHAR 02A6
ENCODING 678
SWIDTH 720 0
DWIDTH 19 0
BBX 17 18 1 0
BITMAP
600000
600000
600000
600800
FF7F80
FFF380
60C000
60C000
60C000
60F000
607E00
601F00
600380
600180
600180
700380
3FFF80
1FFE00
ENDCHAR
STARTCHAR 02A7
ENCODING 679
SWIDTH 530 0
DWIDTH 14 0
BBX 14 25 1 -5
BITMAP
003C
00FC
60C0
60C0
60C0
60C0
FFC0
FFC0
60C0
60C0
60C0
60C0
60C0
60C0
60C0
60C0
60C0
70C0
3FC0
1FC0
00C0
00C0
01C0
0780
0700
ENDCHAR
STARTCHAR 02A8
ENCODING 680
SWIDTH 682 0
DWIDTH 18 0
BBX 16 20 1 -2
BITMAP
6000
6000
6000
6008
FF7F
FFF7
6180
6380
6300
6300
6300
6300
6300
633E
63FF
71E3
3FFF
1FFE
0040
0040
ENDCHAR
STARTCHAR 02A9
ENCODING 681
SWIDTH 757 0
DWIDTH 20 0
BBX 18 25 1 -5
BITMAP
0F0000
3F0000
300000
300000
300000
300400
FFBF00
FFBF80
31C180
31C1C0
3180C0
3180C0
3180C0
3180C0
3180C0
3180C0
3180C0
3180C0
3180C0
3180C0
0000C0
0000C0
0001C0
001F80
001F80
ENDCHAR
STARTCHAR 02AA
ENCODING 682
SWIDTH 644 0
DWIDTH 17 0
BBX 13 20 2 0
BITMAP
C000
C000
C000
C000
C000
C080
C7F8
CF38
CC00
CC00
CC00
CF00
C7E0
C1F8
C038
C018
C018
C038
FFF8
FFE0
ENDCHAR
STARTCHAR 02AB
ENCODING 683
SWIDTH 568 0
DWIDTH 15 0
BBX 12 20 2 0
BITMAP
C000
C000
C000
C000
C000
C000
FFF0
FFF0
C070
C0E0
C0C0
C1C0
C380
C700
C600
CC00
DC00
F800
FFF0
FFF0
ENDCHAR
STARTCHAR 02AC
ENCODING 684
SWIDTH 454 0
DWIDTH 12 0
BBX 10 17 1 0
BITMAP
8C40
8C40
CC40
DEC0
5280
5280
7380
3180
0000
8C40
8C40
8C40
DEC0
5280
5280
7380
7180
ENDCHAR
STARTCHAR 02AD
ENCODING 685
SWIDTH 454 0
DWIDTH 12 0
BBX 10 15 1 2
BITMAP
FFC0
FFC0
8040
8040
8040
8040
0000
0000
0000
FFC0
FFC0
8040
8040
8040
8040
ENDCHAR
STARTCHAR 02AE
ENCODING 686
SWIDTH 568 0
DWIDTH 15 0
BBX 13 26 0 -6
BITMAP
C000
F000
3000
3800
1800
1800
1818
1818
1818
1818
1818
1818
1818
1818
1818
1818
1818
1C38
0FF8
0FD8
0018
0018
0018
0018
0018
0018
ENDCHAR
STARTCHAR 02AF
ENCODING 687
SWIDTH 606 0
DWIDTH 16 0
BBX 16 25 0 -5
BITMAP
C000
F000
3000
3800
1800
1800
1818
1818
1818
1818
1818
1818
1818
1818
1818
1818
1818
1C38
0FF8
0FD8
0018
0018
001C
000F
000F
ENDCHAR
STARTCHAR 02B0
ENCODING 688
SWIDTH 341 0
DWIDTH 9 0
BBX 7 12 1 8
BITMAP
C0
C0
C0
C8
FE
C2
C2
C2
C2
C2
C2
C2
ENDCHAR
STARTCHAR 02B1
ENCODING 689
SWIDTH 341 0
DWIDTH 9 0
BBX 7 12 1 8
BITMAP
18
78
C0
C8
FE
C2
C2
C2
C2
C2
C2
C2
ENDCHAR
STARTCHAR 02B2
ENCODING 690
SWIDTH 151 0
DWIDTH 4 0
BBX 3 15 0 5
BITMAP
60
60
00
00
60
60
60
60
60
60
60
60
60
C0
80
ENDCHAR
STARTCHAR 02B3
ENCODING 691
SWIDTH 227 0
DWIDTH 6 0
BBX 5 9 1 8
BITMAP
08
F8
C0
C0
C0
C0
C0
C0
C0
ENDCHAR
STARTCHAR 02B4
ENCODING 692
SWIDTH 265 0
DWIDTH 7 0
BBX 5 8 1 8
BITMAP
18
18
18
18
18
18
78
98
ENDCHAR
STARTCHAR 02B5
ENCODING 693
SWIDTH 265 0
DWIDTH 7 0
BBX 6 11 1 5
BITMAP
18
18
18
18
18
18
78
98
18
0C
04
ENDCHAR
STARTCHAR 02B6
ENCODING 694
SWIDTH 341 0
DWIDTH 9 0
BBX 7 8 0 8
BITMAP
C2
C4
CC
F8
C4
C4
FC
E0
ENDCHAR
STARTCHAR 02B7
ENCODING 695
SWIDTH 454 0
DWIDTH 12 0
BBX 10 8 1 8
BITMAP
8C40
8C40
DEC0
5280
5280
7280
7380
2100
ENDCHAR
STARTCHAR 02B8
ENCODING 696
SWIDTH 341 0
DWIDTH 9 0
BBX 7 11 1 5
BITMAP
86
C6
44
4C
68
38
30
10
30
E0
80
ENDCHAR
STARTCHAR 02B9
ENCODING 697
SWIDTH 265 0
DWIDTH 7 0
BBX 3 7 2 14
BITMAP
60
E0
C0
C0
C0
C0
C0
ENDCHAR
STARTCHAR 02BA
ENCODING 698
SWIDTH 416 0
DWIDTH 11 0
BBX 7 7 2 14
BITMAP
66
E6
C6
CC
CC
CC
CC
ENDCHAR
STARTCHAR 02BB
ENCODING 699
SWIDTH 265 0
DWIDTH 7 0
BBX 3 6 2 13
BITMAP
20
60
60
E0
C0
C0
ENDCHAR
STARTCHAR 02BC
ENCODING 700
SWIDTH 265 0
DWIDTH 7 0
BBX 3 6 2 13
BITMAP
60
60
60
60
C0
C0
ENDCHAR
STARTCHAR 02BD
ENCODING 701
SWIDTH 265 0
DWIDTH 7 0
BBX 3 6 2 16
BITMAP
E0
E0
60
60
60
20
ENDCHAR
STARTCHAR 02BE
ENCODING 702
SWIDTH 265 0
DWIDTH 7 0
BBX 3 7 1 13
BITMAP
C0
E0
20
20
20
60
C0
ENDCHAR
STARTCHAR 02BF
ENCODING 703
SWIDTH 265 0
DWIDTH 7 0
BBX 3 7 1 13
BITMAP
20
60
C0
C0
C0
60
20
ENDCHAR
STARTCHAR 02C0
ENCODING 704
SWIDTH 341 0
DWIDTH 9 0
BBX 6 12 1 8
BITMAP
20
FC
04
04
04
0C
38
30
30
30
30
30
ENDCHAR
STARTCHAR 02C1
ENCODING 705
SWIDTH 341 0
DWIDTH 9 0
BBX 6 11 1 9
BITMAP
7C
40
C0
C0
60
38
18
18
18
18
18
ENDCHAR
STARTCHAR 02C2
ENCODING 706
SWIDTH 454 0
DWIDTH 12 0
BBX 6 8 3 14
BITMAP
04
1C
38
E0
C0
F0
38
0C
ENDCHAR
STARTCHAR 02C3
ENCODING 707
SWIDTH 454 0
DWIDTH 12 0
BBX 6 7 3 15
BITMAP
C0
70
1C
0C
38
E0
C0
ENDCHAR
STARTCHAR 02C4
ENCODING 708
SWIDTH 454 0
DWIDTH 12 0
BBX 6 6 3 15
BITMAP
30
70
78
48
CC
8C
ENDCHAR
STARTCHAR 02C5
ENCODING 709
SWIDTH 454 0
DWIDTH 12 0
BBX 7 6 2 15
BITMAP
C2
46
64
2C
3C
18
ENDCHAR
STARTCHAR 02C6
ENCODING 710
SWIDTH 454 0
DWIDTH 12 0
BBX 7 5 2 16
BITMAP
18
38
2C
66
C2
ENDCHAR
STARTCHAR 02C7
ENCODING 711
SWIDTH 454 0
DWIDTH 12 0
BBX 7 5 2 16
BITMAP
C2
66
2C
3C
18
ENDCHAR
STARTCHAR 02C8
ENCODING 712
SWIDTH 227 0
DWIDTH 6 0
BBX 2 7 2 13
BITMAP
C0
C0
C0
C0
C0
C0
C0
ENDCHAR
STARTCHAR 02C9
ENCODING 713
SWIDTH 454 0
DWIDTH 12 0
BBX 7 2 2 17
BITMAP
FE
FE
ENDCHAR
STARTCHAR 02CA
ENCODING 714
SWIDTH 454 0
DWIDTH 12 0
BBX 4 5 5 16
BITMAP
30
30
60
C0
80
ENDCHAR
STARTCHAR 02CB
ENCODING 715
SWIDTH 454 0
DWIDTH 12 0
BBX 5 5 2 16
BITMAP
C0
60
30
10
18
ENDCHAR
STARTCHAR 02CC
ENCODING 716
SWIDTH 227 0
DWIDTH 6 0
BBX 2 7 2 -4
BITMAP
C0
C0
C0
C0
C0
C0
C0
ENDCHAR
STARTCHAR 02CD
ENCODING 717
SWIDTH 454 0
DWIDTH 12 0
BBX 7 2 2 -5
BITMAP
FE
FE
ENDCHAR
STARTCHAR 02CE
ENCODING 718
SWIDTH 454 0
DWIDTH 12 0
BBX 5 5 2 -6
BITMAP
C0
60
30
30
18
ENDCHAR
STARTCHAR 02CF
ENCODING 719
SWIDTH 454 0
DWIDTH 12 0
BBX 5 5 5 -6
BITMAP
38
30
60
C0
C0
ENDCHAR
STARTCHAR 02D0
ENCODING 720
SWIDTH 303 0
DWIDTH 8 0
BBX 3 13 2 0
BITMAP
E0
C0
40
00
00
00
00
00
00
40
C0
E0
E0
ENDCHAR
STARTCHAR 02D1
ENCODING 721
SWIDTH 303 0
DWIDTH 8 0
BBX 3 3 2 9
BITMAP
E0
C0
40
ENDCHAR
STARTCHAR 02D2
ENCODING 722
SWIDTH 265 0
DWIDTH 7 0
BBX 3 7 1 7
BITMAP
C0
E0
20
20
20
60
C0
ENDCHAR
STARTCHAR 02D3
ENCODING 723
SWIDTH 265 0
DWIDTH 7 0
BBX 3 7 1 7
BITMAP
20
60
C0
C0
C0
60
20
ENDCHAR
STARTCHAR 02D4
ENCODING 724
SWIDTH 454 0
DWIDTH 12 0
BBX 5 6 3 6
BITMAP
30
30
30
30
F8
F8
ENDCHAR
STARTCHAR 02D5
ENCODING 725
SWIDTH 454 0
DWIDTH 12 0
BBX 5 6 3 6
BITMAP
F8
F8
30
30
30
30
ENDCHAR
STARTCHAR 02D6
ENCODING 726
SWIDTH 341 0
DWIDTH 9 0
BBX 7 8 1 3
BITMAP
10
10
10
FE
FE
10
10
10
ENDCHAR
STARTCHAR 02D7
ENCODING 727
SWIDTH 265 0
DWIDTH 7 0
BBX 5 2 1 6
BITMAP
F8
F8
ENDCHAR
STARTCHAR 02D8
ENCODING 728
SWIDTH 454 0
DWIDTH 12 0
BBX 7 3 2 17
BITMAP
C2
7E
7C
ENDCHAR
STARTCHAR 02D9
ENCODING 729
SWIDTH 454 0
DWIDTH 12 0
BBX 2 3 5 17
BITMAP
C0
C0
C0
ENDCHAR
STARTCHAR 02DA
ENCODING 730
SWIDTH 454 0
DWIDTH 12 0
BBX 6 7 3 16
BITMAP
30
F8
8C
84
8C
DC
78
ENDCHAR
STARTCHAR 02DB
ENCODING 731
SWIDTH 454 0
DWIDTH 12 0
BBX 4 5 4 -5
BITMAP
40
C0
80
F0
70
ENDCHAR
STARTCHAR 02DC
ENCODING 732
SWIDTH 454 0
DWIDTH 12 0
BBX 8 3 2 17
BITMAP
73
DA
CE
ENDCHAR
STARTCHAR 02DD
ENCODING 733
SWIDTH 454 0
DWIDTH 12 0
BBX 8 5 3 16
BITMAP
33
66
64
CC
C8
ENDCHAR
STARTCHAR 02DE
ENCODING 734
SWIDTH 265 0
DWIDTH 7 0
BBX 8 7 0 6
BITMAP
38
78
D8
98
1C
0F
07
ENDCHAR
STARTCHAR 02DF
ENCODING 735
SWIDTH 454 0
DWIDTH 12 0
BBX 6 5 3 16
BITMAP
CC
78
30
78
DC
ENDCHAR
STARTCHAR 02E0
ENCODING 736
SWIDTH 378 0
DWIDTH 10 0
BBX 6 11 2 5
BITMAP
CC
48
38
30
78
48
48
CC
8C
FC
10
ENDCHAR
STARTCHAR 02E1
ENCODING 737
SWIDTH 151 0
DWIDTH 4 0
BBX 2 12 1 8
BITMAP
C0
C0
C0
C0
C0
C0
C0
C0
C0
C0
C0
C0
ENDCHAR
STARTCHAR 02E2
ENCODING 738
SWIDTH 341 0
DWIDTH 9 0
BBX 6 8 1 8
BITMAP
3C
44
C0
60
3C
04
04
FC
ENDCHAR
STARTCHAR 02E3
ENCODING 739
SWIDTH 378 0
DWIDTH 10 0
BBX 8 8 1 8
BITMAP
63
36
1C
18
1C
26
62
C1
ENDCHAR
STARTCHAR 02E4
ENCODING 740
SWIDTH 341 0
DWIDTH 9 0
BBX 6 11 1 9
BITMAP
7C
40
C0
C0
60
38
18
18
18
18
18
ENDCHAR
STARTCHAR 02E5
ENCODING 741
SWIDTH 454 0
DWIDTH 12 0
BBX 7 17 2 0
BITMAP
FE
02
02
02
02
02
02
02
02
02
02
02
02
02
02
02
02
ENDCHAR
STARTCHAR 02E6
ENCODING 742
SWIDTH 454 0
DWIDTH 12 0
BBX 7 17 2 0
BITMAP
02
02
02
02
FE
02
02
02
02
02
02
02
02
02
02
02
02
ENDCHAR
STARTCHAR 02E7
ENCODING 743
SWIDTH 454 0
DWIDTH 12 0
BBX 7 17 2 0
BITMAP
02
02
02
02
02
02
02
FE
FE
02
02
02
02
02
02
02
02
ENDCHAR
STARTCHAR 02E8
ENCODING 744
SWIDTH 454 0
DWIDTH 12 0
BBX 7 17 2 0
BITMAP
02
02
02
02
02
02
02
02
02
02
02
FE
FE
02
02
02
02
ENDCHAR
STARTCHAR 02E9
ENCODING 745
SWIDTH 454 0
DWIDTH 12 0
BBX 7 17 2 0
BITMAP
02
02
02
02
02
02
02
02
02
02
02
02
02
02
02
FE
FE
ENDCHAR
STARTCHAR 02EC
ENCODING 748
SWIDTH 454 0
DWIDTH 12 0
BBX 7 6 2 -6
BITMAP
C2
46
64
2C
3C
18
ENDCHAR
STARTCHAR 02ED
ENCODING 749
SWIDTH 454 0
DWIDTH 12 0
BBX 7 6 2 15
BITMAP
FE
FE
00
00
FE
FE
ENDCHAR
STARTCHAR 02EE
ENCODING 750
SWIDTH 454 0
DWIDTH 12 0
BBX 8 6 2 13
BITMAP
63
63
63
66
C6
C6
ENDCHAR
STARTCHAR 02F3
ENCODING 755
SWIDTH 454 0
DWIDTH 12 0
BBX 6 7 3 -6
BITMAP
30
F8
8C
84
8C
DC
78
ENDCHAR
STARTCHAR 02F7
ENCODING 759
SWIDTH 454 0
DWIDTH 12 0
BBX 8 4 2 -5
BITMAP
23
73
DE
CE
ENDCHAR
STARTCHAR 0300
ENCODING 768
SWIDTH 0 0
DWIDTH 0 0
BBX 5 5 -10 15
BITMAP
E0
60
30
18
08
ENDCHAR
STARTCHAR 0301
ENCODING 769
SWIDTH 0 0
DWIDTH 0 0
BBX 5 5 -7 15
BITMAP
18
30
60
40
C0
ENDCHAR
STARTCHAR 0302
ENCODING 770
SWIDTH 0 0
DWIDTH 0 0
BBX 7 5 -9 15
BITMAP
30
38
68
CC
86
ENDCHAR
STARTCHAR 0303
ENCODING 771
SWIDTH 0 0
DWIDTH 0 0
BBX 8 3 -10 17
BITMAP
73
7B
CE
ENDCHAR
STARTCHAR 0304
ENCODING 772
SWIDTH 0 0
DWIDTH 0 0
BBX 7 2 -9 17
BITMAP
FE
FE
ENDCHAR
STARTCHAR 0305
ENCODING 773
SWIDTH 0 0
DWIDTH 0 0
BBX 12 2 -12 18
BITMAP
FFF0
FFF0
ENDCHAR
STARTCHAR 0306
ENCODING 774
SWIDTH 0 0
DWIDTH 0 0
BBX 7 3 -9 17
BITMAP
86
FC
78
ENDCHAR
STARTCHAR 0307
ENCODING 775
SWIDTH 0 0
DWIDTH 0 0
BBX 2 3 -7 15
BITMAP
C0
C0
C0
ENDCHAR
STARTCHAR 0308
ENCODING 776
SWIDTH 0 0
DWIDTH 0 0
BBX 7 3 -9 15
BITMAP
CE
CE
CE
ENDCHAR
STARTCHAR 0309
ENCODING 777
SWIDTH 0 0
DWIDTH 0 0
BBX 5 5 -8 16
BITMAP
F0
18
18
30
20
ENDCHAR
STARTCHAR 030A
ENCODING 778
SWIDTH 0 0
DWIDTH 0 0
BBX 6 7 -9 16
BITMAP
30
7C
C4
84
C4
EC
78
ENDCHAR
STARTCHAR 030B
ENCODING 779
SWIDTH 0 0
DWIDTH 0 0
BBX 8 5 -9 16
BITMAP
33
36
66
4C
CC
ENDCHAR
STARTCHAR 030C
ENCODING 780
SWIDTH 0 0
DWIDTH 0 0
BBX 7 5 -9 15
BITMAP
86
CC
6C
78
30
ENDCHAR
STARTCHAR 030D
ENCODING 781
SWIDTH 0 0
DWIDTH 0 0
BBX 2 6 -7 16
BITMAP
C0
C0
C0
C0
C0
C0
ENDCHAR
STARTCHAR 030E
ENCODING 782
SWIDTH 0 0
DWIDTH 0 0
BBX 6 6 -9 16
BITMAP
C4
C4
C4
C4
C4
C4
ENDCHAR
STARTCHAR 030F
ENCODING 783
SWIDTH 0 0
DWIDTH 0 0
BBX 7 5 -10 16
BITMAP
D8
CC
64
66
32
ENDCHAR
STARTCHAR 0310
ENCODING 784
SWIDTH 0 0
DWIDTH 0 0
BBX 7 7 -9 17
BITMAP
30
30
30
00
86
FC
78
ENDCHAR
STARTCHAR 0311
ENCODING 785
SWIDTH 0 0
DWIDTH 0 0
BBX 7 3 -9 17
BITMAP
7C
EC
86
ENDCHAR
STARTCHAR 0312
ENCODING 786
SWIDTH 0 0
DWIDTH 0 0
BBX 3 4 -5 13
BITMAP
60
60
C0
C0
ENDCHAR
STARTCHAR 0313
ENCODING 787
SWIDTH 0 0
DWIDTH 0 0
BBX 3 6 -7 15
BITMAP
E0
E0
E0
60
60
C0
ENDCHAR
STARTCHAR 0314
ENCODING 788
SWIDTH 0 0
DWIDTH 0 0
BBX 3 7 -7 15
BITMAP
E0
E0
E0
80
C0
E0
20
ENDCHAR
STARTCHAR 0315
ENCODING 789
SWIDTH 0 0
DWIDTH 0 0
BBX 3 5 -1 15
BITMAP
E0
C0
C0
C0
80
ENDCHAR
STARTCHAR 0316
ENCODING 790
SWIDTH 0 0
DWIDTH 0 0
BBX 5 5 -10 -7
BITMAP
E0
60
30
18
08
ENDCHAR
STARTCHAR 0317
ENCODING 791
SWIDTH 0 0
DWIDTH 0 0
BBX 5 5 -7 -7
BITMAP
18
30
60
40
C0
ENDCHAR
STARTCHAR 0318
ENCODING 792
SWIDTH 0 0
DWIDTH 0 0
BBX 3 5 -8 -6
BITMAP
60
60
E0
60
60
ENDCHAR
STARTCHAR 0319
ENCODING 793
SWIDTH 0 0
DWIDTH 0 0
BBX 4 5 -7 -6
BITMAP
C0
C0
F0
C0
C0
ENDCHAR
STARTCHAR 031A
ENCODING 794
SWIDTH 0 0
DWIDTH 0 0
BBX 6 6 -5 18
BITMAP
FC
FC
0C
0C
0C
0C
ENDCHAR
STARTCHAR 031B
ENCODING 795
SWIDTH 0 0
DWIDTH 0 0
BBX 4 5 -3 11
BITMAP
10
10
90
F0
70
ENDCHAR
STARTCHAR 031C
ENCODING 796
SWIDTH 0 0
DWIDTH 0 0
BBX 2 5 -7 -6
BITMAP
40
C0
80
C0
C0
ENDCHAR
STARTCHAR 031D
ENCODING 797
SWIDTH 0 0
DWIDTH 0 0
BBX 6 4 -9 -6
BITMAP
30
30
30
FC
ENDCHAR
STARTCHAR 031E
ENCODING 798
SWIDTH 0 0
DWIDTH 0 0
BBX 6 4 -9 -6
BITMAP
FC
FC
30
30
ENDCHAR
STARTCHAR 031F
ENCODING 799
SWIDTH 0 0
DWIDTH 0 0
BBX 5 5 -8 -6
BITMAP
60
60
F8
60
60
ENDCHAR
STARTCHAR 0320
ENCODING 800
SWIDTH 0 0
DWIDTH 0 0
BBX 6 2 -9 -5
BITMAP
FC
FC
ENDCHAR
STARTCHAR 0321
ENCODING 801
SWIDTH 0 0
DWIDTH 0 0
BBX 6 7 -7 -5
BITMAP
0C
0C
0C
0C
0C
FC
F8
ENDCHAR
STARTCHAR 0322
ENCODING 802
SWIDTH 0 0
DWIDTH 0 0
BBX 6 7 -7 -5
BITMAP
C0
C0
C0
C0
C0
FC
7C
ENDCHAR
STARTCHAR 0323
ENCODING 803
SWIDTH 0 0
DWIDTH 0 0
BBX 2 3 -7 -5
BITMAP
C0
C0
C0
ENDCHAR
STARTCHAR 0324
ENCODING 804
SWIDTH 0 0
DWIDTH 0 0
BBX 7 3 -9 -5
BITMAP
CE
CE
CE
ENDCHAR
STARTCHAR 0325
ENCODING 805
SWIDTH 0 0
DWIDTH 0 0
BBX 5 5 -8 -6
BITMAP
70
F0
98
D0
F0
ENDCHAR
STARTCHAR 0326
ENCODING 806
SWIDTH 0 0
DWIDTH 0 0
BBX 3 4 -7 -6
BITMAP
E0
C0
C0
80
ENDCHAR
STARTCHAR 0327
ENCODING 807
SWIDTH 0 0
DWIDTH 0 0
BBX 4 5 -8 -5
BITMAP
20
10
10
F0
F0
ENDCHAR
STARTCHAR 0328
ENCODING 808
SWIDTH 0 0
DWIDTH 0 0
BBX 4 5 -8 -5
BITMAP
40
C0
C0
F0
70
ENDCHAR
STARTCHAR 0329
ENCODING 809
SWIDTH 0 0
DWIDTH 0 0
BBX 2 5 -7 -6
BITMAP
C0
C0
C0
C0
C0
ENDCHAR
STARTCHAR 032A
ENCODING 810
SWIDTH 0 0
DWIDTH 0 0
BBX 6 4 -9 -5
BITMAP
FC
FC
C4
C4
ENDCHAR
STARTCHAR 032B
ENCODING 811
SWIDTH 0 0
DWIDTH 0 0
BBX 10 4 -11 -6
BITMAP
CCC0
4CC0
7F80
3300
ENDCHAR
STARTCHAR 032C
ENCODING 812
SWIDTH 0 0
DWIDTH 0 0
BBX 7 5 -9 -6
BITMAP
86
CC
6C
78
30
ENDCHAR
STARTCHAR 032D
ENCODING 813
SWIDTH 0 0
DWIDTH 0 0
BBX 7 5 -9 -6
BITMAP
30
38
68
CC
86
ENDCHAR
STARTCHAR 032E
ENCODING 814
SWIDTH 0 0
DWIDTH 0 0
BBX 7 3 -9 -6
BITMAP
86
FC
78
ENDCHAR
STARTCHAR 032F
ENCODING 815
SWIDTH 0 0
DWIDTH 0 0
BBX 7 4 -9 -6
BITMAP
78
FC
84
86
ENDCHAR
STARTCHAR 0330
ENCODING 816
SWIDTH 0 0
DWIDTH 0 0
BBX 8 3 -10 -5
BITMAP
73
7B
CE
ENDCHAR
STARTCHAR 0331
ENCODING 817
SWIDTH 0 0
DWIDTH 0 0
BBX 7 2 -9 -5
BITMAP
FE
FE
ENDCHAR
STARTCHAR 0332
ENCODING 818
SWIDTH 0 0
DWIDTH 0 0
BBX 12 2 -12 -6
BITMAP
FFF0
FFF0
ENDCHAR
STARTCHAR 0333
ENCODING 819
SWIDTH 0 0
DWIDTH 0 0
BBX 12 6 -12 -6
BITMAP
FFF0
FFF0
0000
0000
FFF0
FFF0
ENDCHAR
STARTCHAR 0334
ENCODING 820
SWIDTH 0 0
DWIDTH 0 0
BBX 12 4 -13 6
BITMAP
3800
FF70
C7F0
01C0
ENDCHAR
STARTCHAR 0335
ENCODING 821
SWIDTH 0 0
DWIDTH 0 0
BBX 6 2 -7 6
BITMAP
FC
FC
ENDCHAR
STARTCHAR 0336
ENCODING 822
SWIDTH 0 0
DWIDTH 0 0
BBX 15 2 -15 6
BITMAP
FFFE
FFFE
ENDCHAR
STARTCHAR 0337
ENCODING 823
SWIDTH 0 0
DWIDTH 0 0
BBX 12 16 -13 -1
BITMAP
0030
0030
0060
00C0
0080
0180
0300
0600
0400
0C00
1800
3000
2000
6000
C000
8000
ENDCHAR
STARTCHAR 0338
ENCODING 824
SWIDTH 0 0
DWIDTH 0 0
BBX 16 21 -17 -1
BITMAP
0002
0003
0006
000C
0018
0018
0030
0060
00C0
01C0
0180
0300
0600
0C00
0C00
1800
3000
6000
6000
C000
8000
ENDCHAR
STARTCHAR 0339
ENCODING 825
SWIDTH 0 0
DWIDTH 0 0
BBX 3 5 -7 -6
BITMAP
C0
C0
60
60
C0
ENDCHAR
STARTCHAR 033A
ENCODING 826
SWIDTH 0 0
DWIDTH 0 0
BBX 6 4 -9 -5
BITMAP
C4
C4
C4
FC
ENDCHAR
STARTCHAR 033B
ENCODING 827
SWIDTH 0 0
DWIDTH 0 0
BBX 5 5 -8 -6
BITMAP
F8
98
98
98
F8
ENDCHAR
STARTCHAR 033C
ENCODING 828
SWIDTH 0 0
DWIDTH 0 0
BBX 10 4 -11 -6
BITMAP
3300
7F80
4CC0
CCC0
ENDCHAR
STARTCHAR 033D
ENCODING 829
SWIDTH 0 0
DWIDTH 0 0
BBX 5 6 -8 16
BITMAP
10
D8
70
70
F8
90
ENDCHAR
STARTCHAR 033E
ENCODING 830
SWIDTH 0 0
DWIDTH 0 0
BBX 3 7 -6 15
BITMAP
60
C0
C0
60
20
E0
80
ENDCHAR
STARTCHAR 033F
ENCODING 831
SWIDTH 0 0
DWIDTH 0 0
BBX 12 6 -12 14
BITMAP
FFF0
FFF0
0000
0000
FFF0
FFF0
ENDCHAR
STARTCHAR 0340
ENCODING 832
SWIDTH 0 0
DWIDTH 0 0
BBX 5 5 -10 16
BITMAP
E0
60
30
18
08
ENDCHAR
STARTCHAR 0341
ENCODING 833
SWIDTH 0 0
DWIDTH 0 0
BBX 5 5 -7 16
BITMAP
18
30
60
40
C0
ENDCHAR
STARTCHAR 0342
ENCODING 834
SWIDTH 0 0
DWIDTH 0 0
BBX 8 3 -10 17
BITMAP
73
7B
CE
ENDCHAR
STARTCHAR 0343
ENCODING 835
SWIDTH 0 0
DWIDTH 0 0
BBX 3 6 -7 15
BITMAP
E0
E0
E0
60
60
C0
ENDCHAR
STARTCHAR 0344
ENCODING 836
SWIDTH 0 0
DWIDTH 0 0
BBX 7 9 -9 17
BITMAP
06
0C
18
18
30
00
CE
CE
CE
ENDCHAR
STARTCHAR 0345
ENCODING 837
SWIDTH 0 0
DWIDTH 0 0
BBX 3 4 -7 -5
BITMAP
C0
C0
C0
60
ENDCHAR
STARTCHAR 0346
ENCODING 838
SWIDTH 0 0
DWIDTH 0 0
BBX 7 3 -9 17
BITMAP
FE
86
86
ENDCHAR
STARTCHAR 0347
ENCODING 839
SWIDTH 0 0
DWIDTH 0 0
BBX 5 5 -8 -6
BITMAP
F8
00
00
F8
F8
ENDCHAR
STARTCHAR 0348
ENCODING 840
SWIDTH 0 0
DWIDTH 0 0
BBX 6 5 -9 -6
BITMAP
CC
CC
CC
CC
CC
ENDCHAR
STARTCHAR 0349
ENCODING 841
SWIDTH 0 0
DWIDTH 0 0
BBX 5 5 -8 -6
BITMAP
F8
18
18
18
18
ENDCHAR
STARTCHAR 034A
ENCODING 842
SWIDTH 0 0
DWIDTH 0 0
BBX 8 5 -10 16
BITMAP
04
7B
7B
DE
30
ENDCHAR
STARTCHAR 034B
ENCODING 843
SWIDTH 0 0
DWIDTH 0 0
BBX 8 7 -10 15
BITMAP
0C
0C
73
7F
CE
30
30
ENDCHAR
STARTCHAR 034C
ENCODING 844
SWIDTH 0 0
DWIDTH 0 0
BBX 8 6 -10 15
BITMAP
7B
DE
00
7B
DE
C0
ENDCHAR
STARTCHAR 034D
ENCODING 845
SWIDTH 0 0
DWIDTH 0 0
BBX 9 5 -10 -6
BITMAP
4200
C100
FF80
C100
6200
ENDCHAR
STARTCHAR 034E
ENCODING 846
SWIDTH 0 0
DWIDTH 0 0
BBX 5 5 -8 -6
BITMAP
20
70
B8
28
20
ENDCHAR
STARTCHAR 034F
ENCODING 847
SWIDTH 0 0
DWIDTH 0 0
BBX 0 0 0 0
BITMAP
ENDCHAR
STARTCHAR 0351
ENCODING 849
SWIDTH 0 0
DWIDTH 0 0
BBX 3 7 -7 16
BITMAP
60
E0
80
80
80
C0
60
ENDCHAR
STARTCHAR 0352
ENCODING 850
SWIDTH 0 0
DWIDTH 0 0
BBX 7 5 -9 15
BITMAP
7C
EC
B6
30
30
ENDCHAR
STARTCHAR 0353
ENCODING 851
SWIDTH 0 0
DWIDTH 0 0
BBX 5 6 -8 -6
BITMAP
10
D8
70
70
F8
90
ENDCHAR
STARTCHAR 0357
ENCODING 855
SWIDTH 0 0
DWIDTH 0 0
BBX 3 7 -7 16
BITMAP
80
C0
60
60
60
C0
80
ENDCHAR
STARTCHAR 0358
ENCODING 856
SWIDTH 0 0
DWIDTH 0 0
BBX 2 3 -2 17
BITMAP
C0
C0
C0
ENDCHAR
STARTCHAR 035A
ENCODING 858
SWIDTH 0 0
DWIDTH 0 0
BBX 8 5 -10 -6
BITMAP
7E
DF
99
DB
7F
ENDCHAR
STARTCHAR 035C
ENCODING 860
SWIDTH 0 0
DWIDTH 0 0
BBX 20 4 -10 -6
BITMAP
C00030
F801F0
3FFFC0
07FE00
ENDCHAR
STARTCHAR 035D
ENCODING 861
SWIDTH 0 0
DWIDTH 0 0
BBX 20 4 -10 21
BITMAP
C00030
F801F0
3FFFC0
07FE00
ENDCHAR
STARTCHAR 035E
ENCODING 862
SWIDTH 0 0
DWIDTH 0 0
BBX 20 2 -10 22
BITMAP
FFFFF0
FFFFF0
ENDCHAR
STARTCHAR 035F
ENCODING 863
SWIDTH 0 0
DWIDTH 0 0
BBX 20 2 -10 -4
BITMAP
FFFFF0
FFFFF0
ENDCHAR
STARTCHAR 0360
ENCODING 864
SWIDTH 0 0
DWIDTH 0 0
BBX 16 3 -8 20
BITMAP
7F03
F7E7
C0FE
ENDCHAR
STARTCHAR 0361
ENCODING 865
SWIDTH 0 0
DWIDTH 0 0
BBX 20 4 -10 20
BITMAP
07FE00
3FFFC0
F801F0
C00030
ENDCHAR
STARTCHAR 0362
ENCODING 866
SWIDTH 0 0
DWIDTH 0 0
BBX 20 5 -10 -6
BITMAP
000020
000030
FFFFF0
000030
000060
ENDCHAR
STARTCHAR 0370
ENCODING 880
SWIDTH 568 0
DWIDTH 15 0
BBX 11 19 2 0
BITMAP
E000
E000
E000
E000
E000
E000
E000
E000
FFE0
FFE0
E000
E000
E000
E000
E000
E000
E000
E000
E000
ENDCHAR
STARTCHAR 0371
ENCODING 881
SWIDTH 492 0
DWIDTH 13 0
BBX 9 14 2 0
BITMAP
C000
C000
C000
C000
C000
C000
FF80
C000
C000
C000
C000
C000
C000
C000
ENDCHAR
STARTCHAR 0372
ENCODING 882
SWIDTH 757 0
DWIDTH 20 0
BBX 16 19 2 0
BITMAP
FFFF
FFFF
E183
E183
E183
E183
E183
E183
E183
E183
0180
0180
0180
0180
0180
0180
0180
0180
0180
ENDCHAR
STARTCHAR 0373
ENCODING 883
SWIDTH 568 0
DWIDTH 15 0
BBX 11 19 2 0
BITMAP
FFE0
FFE0
C660
C660
C660
C660
C660
C660
C660
C660
0600
0600
0600
0600
0600
0600
0600
0600
0600
ENDCHAR
STARTCHAR 0374
ENCODING 884
SWIDTH 265 0
DWIDTH 7 0
BBX 3 7 2 14
BITMAP
60
E0
C0
C0
C0
C0
C0
ENDCHAR
STARTCHAR 0375
ENCODING 885
SWIDTH 265 0
DWIDTH 7 0
BBX 3 6 2 -5
BITMAP
60
60
40
C0
C0
C0
ENDCHAR
STARTCHAR 0376
ENCODING 886
SWIDTH 682 0
DWIDTH 18 0
BBX 13 19 2 0
BITMAP
E038
E078
E078
E0F8
E0D8
E1D8
E198
E198
E318
E318
E618
E618
EE18
EC18
FC18
F818
F818
F018
F018
ENDCHAR
STARTCHAR 0377
ENCODING 887
SWIDTH 568 0
DWIDTH 15 0
BBX 11 14 2 0
BITMAP
C0E0
C1E0
C1E0
C3E0
C360
C660
C660
CC60
CC60
D860
D860
F060
F060
E060
ENDCHAR
STARTCHAR 037A
ENCODING 890
SWIDTH 454 0
DWIDTH 12 0
BBX 2 4 5 -5
BITMAP
C0
C0
C0
C0
ENDCHAR
STARTCHAR 037B
ENCODING 891
SWIDTH 492 0
DWIDTH 13 0
BBX 11 15 1 0
BITMAP
0800
FF00
FF80
01C0
00C0
00C0
00C0
00E0
00E0
00C0
00C0
01C0
8180
FF80
FF00
ENDCHAR
STARTCHAR 037C
ENCODING 892
SWIDTH 492 0
DWIDTH 13 0
BBX 10 15 1 0
BITMAP
0200
1FC0
3DC0
7000
6000
6000
E700
E700
E700
E700
6000
6000
7000
3FC0
1FC0
ENDCHAR
STARTCHAR 037D
ENCODING 893
SWIDTH 492 0
DWIDTH 13 0
BBX 11 15 1 0
BITMAP
0800
FF00
FF80
01C0
00C0
00C0
1CC0
1CE0
1CE0
1CC0
00C0
01C0
8180
FF80
FF00
ENDCHAR
STARTCHAR 037E
ENCODING 894
SWIDTH 303 0
DWIDTH 8 0
BBX 3 16 2 -3
BITMAP
60
60
60
00
00
00
00
00
00
00
60
60
60
C0
C0
C0
ENDCHAR
STARTCHAR 037F
ENCODING 895
SWIDTH 265 0
DWIDTH 7 0
BBX 6 24 -1 -5
BITMAP
1C
1C
1C
1C
1C
1C
1C
1C
1C
1C
1C
1C
1C
1C
1C
1C
1C
1C
1C
1C
18
38
F8
E0
ENDCHAR
STARTCHAR 0384
ENCODING 900
SWIDTH 454 0
DWIDTH 12 0
BBX 4 5 5 16
BITMAP
30
30
60
C0
80
ENDCHAR
STARTCHAR 0385
ENCODING 901
SWIDTH 454 0
DWIDTH 12 0
BBX 7 9 2 17
BITMAP
06
06
0C
18
10
00
E6
E6
E6
ENDCHAR
STARTCHAR 0386
ENCODING 902
SWIDTH 606 0
DWIDTH 16 0
BBX 16 21 0 0
BITMAP
0C00
1800
1980
33C0
63C0
07C0
0660
0660
0E70
0C30
0C30
1C38
1818
1818
3FFC
3FFC
300C
700E
6006
6006
E007
ENDCHAR
STARTCHAR 0387
ENCODING 903
SWIDTH 265 0
DWIDTH 7 0
BBX 3 4 2 7
BITMAP
E0
E0
E0
E0
ENDCHAR
STARTCHAR 0388
ENCODING 904
SWIDTH 644 0
DWIDTH 17 0
BBX 16 21 0 0
BITMAP
1800
3000
67FF
67FF
C600
0600
0600
0600
0600
0600
07FE
07FE
0600
0600
0600
0600
0600
0600
0600
07FF
07FF
ENDCHAR
STARTCHAR 0389
ENCODING 905
SWIDTH 757 0
DWIDTH 20 0
BBX 18 21 0 0
BITMAP
180000
300000
3600C0
6600C0
C600C0
0600C0
0600C0
0600C0
0600C0
0600C0
07FFC0
07FFC0
0600C0
0600C0
0600C0
0600C0
0600C0
0600C0
0600C0
0600C0
0600C0
ENDCHAR
STARTCHAR 038A
ENCODING 906
SWIDTH 378 0
DWIDTH 10 0
BBX 7 21 0 0
BITMAP
18
30
76
66
C6
06
06
06
06
06
06
06
06
06
06
06
06
06
06
06
06
ENDCHAR
STARTCHAR 038C
ENCODING 908
SWIDTH 720 0
DWIDTH 19 0
BBX 18 21 0 0
BITMAP
180000
300000
33F800
67FE00
CE0F00
1C0700
180380
380380
380180
300180
3001C0
3001C0
3001C0
300180
380180
380180
180380
1C0700
0E0F00
07FE00
03F800
ENDCHAR
STARTCHAR 038E
ENCODING 910
SWIDTH 720 0
DWIDTH 19 0
BBX 19 21 0 0
BITMAP
180000
300000
6700E0
6300C0
C381C0
018180
00C380
00E700
006600
007E00
003C00
001800
001800
001800
001800
001800
001800
001800
001800
001800
001800
ENDCHAR
STARTCHAR 038F
ENCODING 911
SWIDTH 720 0
DWIDTH 19 0
BBX 18 21 0 0
BITMAP
180000
300000
63F800
67FC00
CE0E00
1C0700
180380
380380
300180
300180
300180
300180
300180
300180
380380
180300
1C0700
0E0E00
071C00
3F1FC0
3F1FC0
ENDCHAR
STARTCHAR 0390
ENCODING 912
SWIDTH 303 0
DWIDTH 8 0
BBX 7 26 0 0
BITMAP
06
0C
1C
18
30
00
C6
C6
C6
00
00
00
30
30
30
30
30
30
30
30
30
30
30
38
1E
0E
ENDCHAR
STARTCHAR 0391
ENCODING 913
SWIDTH 606 0
DWIDTH 16 0
BBX 16 19 0 0
BITMAP
0180
03C0
03C0
07C0
0660
0660
0E70
0C30
0C30
1C38
1818
1818
3FFC
3FFC
300C
700E
6006
6006
E007
ENDCHAR
STARTCHAR 0392
ENCODING 914
SWIDTH 606 0
DWIDTH 16 0
BBX 12 19 2 0
BITMAP
FF80
FFC0
E0E0
E070
E070
E070
E060
E0E0
FFC0
FFC0
E060
E030
E030
E030
E030
E070
E0F0
FFE0
FF80
ENDCHAR
STARTCHAR 0393
ENCODING 915
SWIDTH 492 0
DWIDTH 13 0
BBX 11 19 2 0
BITMAP
FFE0
FFE0
E000
E000
E000
E000
E000
E000
E000
E000
E000
E000
E000
E000
E000
E000
E000
E000
E000
ENDCHAR
STARTCHAR 0394
ENCODING 916
SWIDTH 606 0
DWIDTH 16 0
BBX 16 19 0 0
BITMAP
0180
03C0
03C0
07C0
0660
0660
0E70
0C30
0C30
1C38
1818
1818
381C
300C
300C
700E
6006
7FFE
FFFF
ENDCHAR
STARTCHAR 0395
ENCODING 917
SWIDTH 568 0
DWIDTH 15 0
BBX 11 19 2 0
BITMAP
FFE0
FFE0
E000
E000
E000
E000
E000
E000
FFE0
FFE0
E000
E000
E000
E000
E000
E000
E000
FFE0
FFE0
ENDCHAR
STARTCHAR 0396
ENCODING 918
SWIDTH 606 0
DWIDTH 16 0
BBX 14 19 1 0
BITMAP
FFFC
FFFC
0018
0038
0070
00E0
00C0
01C0
0380
0300
0700
0E00
1C00
1800
3800
7000
E000
FFFC
FFFC
ENDCHAR
STARTCHAR 0397
ENCODING 919
SWIDTH 682 0
DWIDTH 18 0
BBX 13 19 2 0
BITMAP
E018
E018
E018
E018
E018
E018
E018
E018
FFF8
FFF8
E018
E018
E018
E018
E018
E018
E018
E018
E018
ENDCHAR
STARTCHAR 0398
ENCODING 920
SWIDTH 682 0
DWIDTH 18 0
BBX 16 19 1 0
BITMAP
07F0
1FF8
3C1C
380E
7006
6007
6007
E003
EFF3
EFF3
E003
E003
6007
6007
7006
300E
3C1C
1FF8
07F0
ENDCHAR
STARTCHAR 0399
ENCODING 921
SWIDTH 265 0
DWIDTH 7 0
BBX 3 19 2 0
BITMAP
E0
E0
E0
E0
E0
E0
E0
E0
E0
E0
E0
E0
E0
E0
E0
E0
E0
E0
E0
ENDCHAR
STARTCHAR 039A
ENCODING 922
SWIDTH 568 0
DWIDTH 15 0
BBX 13 19 2 0
BITMAP
E038
E070
E0E0
E1C0
E380
E700
EE00
FC00
F800
F800
FC00
EE00
E700
E380
E1C0
E0E0
E070
E070
E038
ENDCHAR
STARTCHAR 039B
ENCODING 923
SWIDTH 606 0
DWIDTH 16 0
BBX 16 19 0 0
BITMAP
0180
03C0
03C0
07C0
0660
0660
0E70
0C30
0C30
1C38
1818
1818
381C
300C
300C
700E
6006
6006
E007
ENDCHAR
STARTCHAR 039C
ENCODING 924
SWIDTH 757 0
DWIDTH 20 0
BBX 16 19 2 0
BITMAP
F00F
F00F
F80F
F81B
F81B
EC1B
EC33
EC33
E633
E663
E663
E363
E3C3
E3C3
E1C3
E003
E003
E003
E003
ENDCHAR
STARTCHAR 039D
ENCODING 925
SWIDTH 682 0
DWIDTH 18 0
BBX 13 19 2 0
BITMAP
F018
F018
F818
F818
FC18
EC18
EC18
E618
E618
E318
E318
E198
E198
E1D8
E0D8
E0F8
E078
E078
E038
ENDCHAR
STARTCHAR 039E
ENCODING 926
SWIDTH 568 0
DWIDTH 15 0
BBX 11 19 2 0
BITMAP
FFE0
FFE0
0000
0000
0000
0000
0000
0000
7FC0
7FC0
0000
0000
0000
0000
0000
0000
0000
FFE0
FFE0
ENDCHAR
STARTCHAR 039F
ENCODING 927
SWIDTH 682 0
DWIDTH 18 0
BBX 16 19 1 0
BITMAP
07F0
1FF8
3C1C
380E
7006
6007
6007
E003
E003
E003
E003
E003
6007
6007
7006
300E
3C1C
1FF8
07F0
ENDCHAR
STARTCHAR 03A0
ENCODING 928
SWIDTH 682 0
DWIDTH 18 0
BBX 13 19 2 0
BITMAP
FFF8
FFF8
E018
E018
E018
E018
E018
E018
E018
E018
E018
E018
E018
E018
E018
E018
E018
E018
E018
ENDCHAR
STARTCHAR 03A1
ENCODING 929
SWIDTH 530 0
DWIDTH 14 0
BBX 11 19 2 0
BITMAP
FF00
FFC0
E1E0
E0E0
E060
E060
E060
E060
E0E0
FFC0
FF80
E000
E000
E000
E000
E000
E000
E000
E000
ENDCHAR
STARTCHAR 03A3
ENCODING 931
SWIDTH 568 0
DWIDTH 15 0
BBX 11 19 2 0
BITMAP
FFE0
FFE0
6000
7000
3800
1C00
0C00
0600
0700
0700
0600
0E00
1C00
1800
3800
7000
6000
FFE0
FFE0
ENDCHAR
STARTCHAR 03A4
ENCODING 932
SWIDTH 530 0
DWIDTH 14 0
BBX 14 19 0 0
BITMAP
FFFC
FFFC
0300
0300
0300
0300
0300
0300
0300
0300
0300
0300
0300
0300
0300
0300
0300
0300
0300
ENDCHAR
STARTCHAR 03A5
ENCODING 933
SWIDTH 530 0
DWIDTH 14 0
BBX 14 19 0 0
BITMAP
E00C
6018
7038
3830
1870
1C60
0CC0
07C0
0780
0380
0300
0300
0300
0300
0300
0300
0300
0300
0300
ENDCHAR
STARTCHAR 03A6
ENCODING 934
SWIDTH 682 0
DWIDTH 18 0
BBX 16 19 1 0
BITMAP
0180
0180
07E0
1FF8
3DBC
718E
7187
6187
E183
E183
E183
6187
6187
718E
3D9C
1FF8
07F0
0180
0180
ENDCHAR
STARTCHAR 03A7
ENCODING 935
SWIDTH 606 0
DWIDTH 16 0
BBX 14 19 1 0
BITMAP
601C
7018
3030
1870
1C60
0CE0
0EC0
0780
0380
0780
0780
0FC0
0CC0
1C60
3870
3030
7038
6018
C00C
ENDCHAR
STARTCHAR 03A8
ENCODING 936
SWIDTH 682 0
DWIDTH 18 0
BBX 16 19 1 0
BITMAP
E183
E183
E183
E183
E183
E183
E183
E187
6187
6186
718E
398E
1DBC
1FF8
07F0
0180
0180
0180
0180
ENDCHAR
STARTCHAR 03A9
ENCODING 937
SWIDTH 682 0
DWIDTH 18 0
BBX 16 19 1 0
BITMAP
07E0
1FF8
3C3C
700C
600E
6006
E007
E007
C007
C007
E007
E006
6006
700E
300C
3818
1C78
FE7F
FE7F
ENDCHAR
STARTCHAR 03AA
ENCODING 938
SWIDTH 265 0
DWIDTH 7 0
BBX 7 24 0 0
BITMAP
C6
C6
C6
00
00
38
38
38
38
38
38
38
38
38
38
38
38
38
38
38
38
38
38
38
ENDCHAR
STARTCHAR 03AB
ENCODING 939
SWIDTH 530 0
DWIDTH 14 0
BBX 14 24 0 0
BITMAP
0CE0
0CE0
0CE0
0000
0000
E00C
6018
7038
3830
1870
1C60
0CC0
07C0
0780
0380
0300
0300
0300
0300
0300
0300
0300
0300
0300
ENDCHAR
STARTCHAR 03AC
ENCODING 940
SWIDTH 568 0
DWIDTH 15 0
BBX 13 21 1 0
BITMAP
01C0
0180
0300
0600
0600
0000
0400
1F18
3BB0
71F0
60F0
E0E0
E0E0
E060
E060
E0E0
E0E0
60E0
71F0
3FB8
1F18
ENDCHAR
STARTCHAR 03AD
ENCODING 941
SWIDTH 492 0
DWIDTH 13 0
BBX 9 21 2 0
BITMAP
0300
0700
0600
0C00
1800
0000
0C00
7F80
F780
C000
C000
C000
7E00
3E00
F000
C000
C000
C000
C000
FF80
7F80
ENDCHAR
STARTCHAR 03AE
ENCODING 942
SWIDTH 568 0
DWIDTH 15 0
BBX 11 26 2 -5
BITMAP
01C0
0180
0300
0600
0600
0000
0200
DF80
DFC0
E0C0
E0E0
C060
C060
C060
C060
C060
C060
C060
C060
C060
C060
0060
0060
0060
0060
0060
ENDCHAR
STARTCHAR 03AF
ENCODING 943
SWIDTH 303 0
DWIDTH 8 0
BBX 5 21 2 0
BITMAP
18
38
30
60
C0
00
00
C0
C0
C0
C0
C0
C0
C0
C0
C0
C0
C0
E0
78
38
ENDCHAR
STARTCHAR 03B0
ENCODING 944
SWIDTH 530 0
DWIDTH 14 0
BBX 10 26 2 0
BITMAP
0300
0600
0C00
0800
1800
0000
6700
6700
6700
0000
0000
0000
C180
C180
C0C0
C0C0
C0C0
C0C0
C0C0
C0C0
C0C0
C1C0
C180
C380
7F00
7E00
ENDCHAR
STARTCHAR 03B1
ENCODING 945
SWIDTH 568 0
DWIDTH 15 0
BBX 13 15 1 0
BITMAP
0400
1F18
3BB0
71F0
60F0
E0E0
E0E0
E060
E060
E0E0
E0E0
60E0
71F0
3FB8
1F18
ENDCHAR
STARTCHAR 03B2
ENCODING 946
SWIDTH 568 0
DWIDTH 15 0
BBX 11 25 2 -5
BITMAP
1F00
7F80
71C0
E0C0
C0C0
C0C0
C0C0
C1C0
C380
CF00
CFC0
C1E0
C060
C060
C060
C060
E060
F0E0
FFC0
DF80
C000
C000
C000
C000
C000
ENDCHAR
STARTCHAR 03B3
ENCODING 947
SWIDTH 530 0
DWIDTH 14 0
BBX 13 19 0 -5
BITMAP
E018
F038
3030
1830
1860
1860
0CE0
0CC0
0CC0
0FC0
0780
0780
0780
0300
0300
0300
0300
0300
0300
ENDCHAR
STARTCHAR 03B4
ENCODING 948
SWIDTH 530 0
DWIDTH 14 0
BBX 12 19 1 0
BITMAP
1FC0
3FC0
3000
3000
3800
1F80
1FC0
30E0
6060
6070
E030
E030
E030
E030
6070
6060
70E0
3FC0
1F80
ENDCHAR
STARTCHAR 03B5
ENCODING 949
SWIDTH 492 0
DWIDTH 13 0
BBX 9 15 2 0
BITMAP
0C00
7F80
F780
C000
C000
C000
7E00
3E00
F000
C000
C000
C000
C000
FF80
7F80
ENDCHAR
STARTCHAR 03B6
ENCODING 950
SWIDTH 492 0
DWIDTH 13 0
BBX 11 25 1 -5
BITMAP
7FE0
7FE0
7FE0
0780
0F00
1C00
3800
3000
7000
6000
6000
E000
C000
C000
C000
E000
6000
7000
3F00
1FC0
00C0
00E0
00C0
01C0
01C0
ENDCHAR
STARTCHAR 03B7
ENCODING 951
SWIDTH 568 0
DWIDTH 15 0
BBX 11 20 2 -5
BITMAP
0200
DF80
DFC0
E0C0
E0E0
C060
C060
C060
C060
C060
C060
C060
C060
C060
C060
0060
0060
0060
0060
0060
ENDCHAR
STARTCHAR 03B8
ENCODING 952
SWIDTH 530 0
DWIDTH 14 0
BBX 12 20 1 0
BITMAP
0F00
1FC0
38C0
7060
6060
6070
6070
E030
E030
FFF0
FFF0
E030
E030
6030
6070
6060
7060
30E0
3FC0
0F80
ENDCHAR
STARTCHAR 03B9
ENCODING 953
SWIDTH 303 0
DWIDTH 8 0
BBX 5 14 2 0
BITMAP
C0
C0
C0
C0
C0
C0
C0
C0
C0
C0
C0
E0
78
38
ENDCHAR
STARTCHAR 03BA
ENCODING 954
SWIDTH 530 0
DWIDTH 14 0
BBX 11 14 2 0
BITMAP
C1C0
C380
C700
CE00
DC00
DC00
FC00
EE00
C700
C300
C380
C1C0
C0C0
C0E0
ENDCHAR
STARTCHAR 03BB
ENCODING 955
SWIDTH 530 0
DWIDTH 14 0
BBX 12 20 1 0
BITMAP
3000
3C00
1C00
0E00
0600
0600
0700
0700
0F00
0F80
0D80
1D80
19C0
38C0
30C0
30E0
6060
6060
E070
C030
ENDCHAR
STARTCHAR 03BC
ENCODING 956
SWIDTH 568 0
DWIDTH 15 0
BBX 12 19 2 -5
BITMAP
C060
C060
C060
C060
C060
C060
C060
C060
C060
C0E0
C0E0
E0E0
FFF0
DF70
C000
C000
C000
C000
C000
ENDCHAR
STARTCHAR 03BD
ENCODING 957
SWIDTH 492 0
DWIDTH 13 0
BBX 11 14 1 0
BITMAP
C0C0
E0C0
60C0
6060
6060
7060
3060
30E0
38C0
19C0
1B80
1B00
1E00
0C00
ENDCHAR
STARTCHAR 03BE
ENCODING 958
SWIDTH 492 0
DWIDTH 13 0
BBX 11 25 1 -5
BITMAP
7FC0
7FC0
7FC0
3800
6000
6000
6000
6000
7C00
1F80
1F80
7800
6000
E000
C000
C000
E000
7000
7F00
1FC0
00C0
0060
0060
00C0
01C0
ENDCHAR
STARTCHAR 03BF
ENCODING 959
SWIDTH 530 0
DWIDTH 14 0
BBX 12 15 1 0
BITMAP
0400
1FC0
3FE0
70E0
6070
E030
E030
E030
E030
E030
6070
6060
70E0
3FC0
1F80
ENDCHAR
STARTCHAR 03C0
ENCODING 960
SWIDTH 530 0
DWIDTH 14 0
BBX 12 14 1 -1
BITMAP
FFF0
FFF0
70C0
70C0
70C0
70C0
70C0
70C0
70C0
70C0
70C0
70E0
70F0
7070
ENDCHAR
STARTCHAR 03C1
ENCODING 961
SWIDTH 568 0
DWIDTH 15 0
BBX 12 20 2 -5
BITMAP
0200
1F80
3BC0
60E0
6060
E060
C070
C070
C070
C060
E060
E060
F0E0
DFC0
CF80
C000
C000
C000
C000
C000
ENDCHAR
STARTCHAR 03C2
ENCODING 962
SWIDTH 530 0
DWIDTH 14 0
BBX 10 20 1 -5
BITMAP
0200
1FC0
3DC0
7000
6000
6000
E000
E000
E000
E000
6000
6000
7000
3E00
1F80
01C0
00C0
00C0
01C0
0180
ENDCHAR
STARTCHAR 03C3
ENCODING 963
SWIDTH 568 0
DWIDTH 15 0
BBX 13 14 1 0
BITMAP
1FF8
3FF8
70E0
6060
E070
E030
E030
E030
E030
6070
6060
70E0
3FC0
1F80
ENDCHAR
STARTCHAR 03C4
ENCODING 964
SWIDTH 530 0
DWIDTH 14 0
BBX 12 14 1 0
BITMAP
FFF0
FFF0
0600
0600
0600
0600
0600
0600
0600
0600
0600
0700
03C0
01C0
ENDCHAR
STARTCHAR 03C5
ENCODING 965
SWIDTH 530 0
DWIDTH 14 0
BBX 10 14 2 0
BITMAP
C180
C180
C0C0
C0C0
C0C0
C0C0
C0C0
C0C0
C0C0
C1C0
C180
C380
7F00
7E00
ENDCHAR
STARTCHAR 03C6
ENCODING 966
SWIDTH 568 0
DWIDTH 15 0
BBX 13 19 1 -5
BITMAP
1BE0
3BF0
7330
6338
E318
E318
E318
C318
E318
6318
6338
7370
3FE0
1FC0
0300
0300
0300
0300
0300
ENDCHAR
STARTCHAR 03C7
ENCODING 967
SWIDTH 530 0
DWIDTH 14 0
BBX 12 19 1 -5
BITMAP
E060
F0E0
30E0
18C0
19C0
1980
0F80
0F00
0F00
0600
0E00
0E00
1F00
1B00
3B80
3180
7180
61F0
E0F0
ENDCHAR
STARTCHAR 03C8
ENCODING 968
SWIDTH 568 0
DWIDTH 15 0
BBX 13 19 1 -5
BITMAP
C318
C318
C318
C318
C318
C318
C318
C318
C318
E318
6338
7330
3FF0
1FC0
0300
0300
0300
0300
0300
ENDCHAR
STARTCHAR 03C9
ENCODING 969
SWIDTH 757 0
DWIDTH 20 0
BBX 16 14 2 0
BITMAP
600E
6006
E006
C007
C007
C007
C183
C183
C187
C387
C387
E3C6
7EFE
3E7C
ENDCHAR
STARTCHAR 03CA
ENCODING 970
SWIDTH 303 0
DWIDTH 8 0
BBX 7 20 0 0
BITMAP
C6
C6
C6
00
00
00
30
30
30
30
30
30
30
30
30
30
30
38
1E
0E
ENDCHAR
STARTCHAR 03CB
ENCODING 971
SWIDTH 530 0
DWIDTH 14 0
BBX 10 20 2 0
BITMAP
6700
6700
6700
0000
0000
0000
C180
C180
C0C0
C0C0
C0C0
C0C0
C0C0
C0C0
C0C0
C1C0
C180
C380
7F00
7E00
ENDCHAR
STARTCHAR 03CC
ENCODING 972
SWIDTH 530 0
DWIDTH 14 0
BBX 12 21 1 0
BITMAP
00C0
0180
0300
0300
0600
0000
0400
1FC0
3FE0
70E0
6070
E030
E030
E030
E030
E030
6070
6060
70E0
3FC0
1F80
ENDCHAR
STARTCHAR 03CD
ENCODING 973
SWIDTH 530 0
DWIDTH 14 0
BBX 10 21 2 0
BITMAP
0300
0600
0C00
0C00
1800
0000
0000
C180
C180
C0C0
C0C0
C0C0
C0C0
C0C0
C0C0
C0C0
C1C0
C180
C380
7F00
7E00
ENDCHAR
STARTCHAR 03CE
ENCODING 974
SWIDTH 757 0
DWIDTH 20 0
BBX 16 21 2 0
BITMAP
0060
00E0
00C0
0180
0300
0000
0000
600E
6006
E006
C007
C007
C007
C183
C183
C187
C387
C387
E3C6
7EFE
3E7C
ENDCHAR
STARTCHAR 03CF
ENCODING 975
SWIDTH 568 0
DWIDTH 15 0
BBX 13 24 2 -5
BITMAP
E038
E070
E0E0
E1C0
E380
E700
EE00
FC00
F800
F800
FC00
EE00
E700
E380
E1C0
E0E0
E070
E070
E038
0018
0018
0030
0060
0040
ENDCHAR
STARTCHAR 03D0
ENCODING 976
SWIDTH 530 0
DWIDTH 14 0
BBX 11 20 2 0
BITMAP
1E00
3F00
7180
6180
60C0
C1C0
C180
C180
C780
FF00
FF80
C1C0
C0C0
C0C0
C060
E0E0
60C0
70C0
3F80
1F00
ENDCHAR
STARTCHAR 03D1
ENCODING 977
SWIDTH 530 0
DWIDTH 14 0
BBX 12 20 1 0
BITMAP
0780
0FC0
18E0
1860
3060
3030
3830
1830
1E30
CFF0
C3F0
C030
E030
6030
6070
6060
7060
30E0
3FC0
1F80
ENDCHAR
STARTCHAR 03D2
ENCODING 978
SWIDTH 606 0
DWIDTH 16 0
BBX 15 19 1 0
BITMAP
F01C
F87C
1CFE
0ECC
07C0
0780
0780
0380
0300
0300
0300
0300
0300
0300
0300
0300
0300
0300
0300
ENDCHAR
STARTCHAR 03D3
ENCODING 979
SWIDTH 757 0
DWIDTH 20 0
BBX 19 21 0 0
BITMAP
180000
300000
6781E0
67C3E0
C1E7E0
006660
007C00
003C00
003C00
003800
001800
001800
001800
001800
001800
001800
001800
001800
001800
001800
001800
ENDCHAR
STARTCHAR 03D4
ENCODING 980
SWIDTH 606 0
DWIDTH 16 0
BBX 15 24 1 0
BITMAP
0CC0
0CC0
0CC0
0000
0000
F01C
F87C
1CFE
0ECC
07C0
0780
0780
0380
0300
0300
0300
0300
0300
0300
0300
0300
0300
0300
0300
ENDCHAR
STARTCHAR 03D5
ENCODING 981
SWIDTH 568 0
DWIDTH 15 0
BBX 13 25 1 -5
BITMAP
0300
0300
0300
0300
0300
0700
1FE0
3FF0
7330
6338
E318
E318
C318
C318
E318
6318
6338
7370
3FE0
1FC0
0300
0300
0300
0300
0300
ENDCHAR
STARTCHAR 03D6
ENCODING 982
SWIDTH 757 0
DWIDTH 20 0
BBX 18 14 1 0
BITMAP
FFFFC0
FFFFC0
700300
600380
600380
600380
60C180
60C180
60C380
61C380
61C380
71E300
3F7F00
1F3E00
ENDCHAR
STARTCHAR 03D7
ENCODING 983
SWIDTH 606 0
DWIDTH 16 0
BBX 13 19 1 -5
BITMAP
7818
7C38
8C70
0C70
0CE0
0DC0
0FC0
0F80
1D80
3980
7980
70C8
E0F8
C070
0010
0030
0030
03E0
03E0
ENDCHAR
STARTCHAR 03D8
ENCODING 984
SWIDTH 682 0
DWIDTH 18 0
BBX 16 24 1 -5
BITMAP
07F0
1FF8
3C1C
380E
7006
6007
6007
E003
E003
E003
E003
E003
6007
6007
7006
300E
3C1C
1FF8
07F0
0180
0180
0180
0180
0180
ENDCHAR
STARTCHAR 03D9
ENCODING 985
SWIDTH 530 0
DWIDTH 14 0
BBX 12 20 1 -5
BITMAP
0400
1FC0
3FE0
70E0
6070
E030
E030
E030
E030
E030
6070
6060
70E0
3FC0
1F80
0600
0600
0600
0600
0600
ENDCHAR
STARTCHAR 03DA
ENCODING 986
SWIDTH 568 0
DWIDTH 15 0
BBX 12 24 2 -5
BITMAP
0FF0
3FF0
3C00
7000
E000
E000
C000
C000
C000
C000
C000
C000
C000
C000
E000
6000
7000
3F00
1F80
01C0
00C0
00C0
01C0
0380
ENDCHAR
STARTCHAR 03DB
ENCODING 987
SWIDTH 530 0
DWIDTH 14 0
BBX 12 19 1 -5
BITMAP
1FF0
3FF0
7000
6000
6000
E000
E000
E000
E000
6000
6000
7000
3E00
1F80
0180
0180
0180
0380
0300
ENDCHAR
STARTCHAR 03DC
ENCODING 988
SWIDTH 492 0
DWIDTH 13 0
BBX 10 19 2 0
BITMAP
FFC0
FFC0
E000
E000
E000
E000
E000
E000
FF80
FF80
E000
E000
E000
E000
E000
E000
E000
E000
E000
ENDCHAR
STARTCHAR 03DD
ENCODING 989
SWIDTH 416 0
DWIDTH 11 0
BBX 12 25 -2 -5
BITMAP
00E0
03F0
0310
0600
0600
0600
0600
0600
0600
07E0
07E0
0600
0600
0600
0600
0600
0600
0600
0600
0600
0600
0E00
0C00
FC00
F800
ENDCHAR
STARTCHAR 03DE
ENCODING 990
SWIDTH 568 0
DWIDTH 15 0
BBX 12 19 2 0
BITMAP
E000
F000
7000
3000
3000
3010
3070
31E0
67E0
7F60
7CC0
70C0
C0C0
00C0
0180
0180
01C0
01F0
00F0
ENDCHAR
STARTCHAR 03DF
ENCODING 991
SWIDTH 568 0
DWIDTH 15 0
BBX 11 20 2 0
BITMAP
1800
1800
1800
3800
3000
3000
3000
6000
6000
7FE0
FFE0
00E0
00C0
00C0
00C0
0180
0180
0180
0300
0300
ENDCHAR
STARTCHAR 03E0
ENCODING 992
SWIDTH 757 0
DWIDTH 20 0
BBX 18 24 1 -5
BITMAP
1FE000
7FF800
FC3C00
CC0E00
8C0700
0C0700
0C0F80
0C1980
0C3180
0C3180
007180
0071C0
0071C0
0071C0
0071C0
0071C0
0071C0
007180
007180
000180
000380
000300
000700
000600
ENDCHAR
STARTCHAR 03E1
ENCODING 993
SWIDTH 568 0
DWIDTH 15 0
BBX 12 20 1 -5
BITMAP
8000
F000
FC00
0E00
0700
0300
0380
03C0
06C0
0CC0
0DE0
19E0
3320
7630
6630
0030
0030
0030
0030
0030
ENDCHAR
STARTCHAR 03E2
ENCODING 994
SWIDTH 833 0
DWIDTH 22 0
BBX 20 25 1 -6
BITMAP
1C0380
380180
3801C0
3000C0
7000E0
6000E0
600060
E00060
E06060
E06070
E06070
E06060
E06060
60E060
70F0E0
71F9E0
7FBFE0
3F9FC0
1F0FC0
000780
000F00
003E00
00F800
01E000
010000
ENDCHAR
STARTCHAR 03E3
ENCODING 995
SWIDTH 757 0
DWIDTH 20 0
BBX 16 19 2 -5
BITMAP
600E
E006
E006
C007
C007
C007
C183
C183
C187
C387
E3C7
FFFE
7EFE
3C7C
001C
0038
00F0
03C0
0700
ENDCHAR
STARTCHAR 03E4
ENCODING 996
SWIDTH 682 0
DWIDTH 18 0
BBX 14 24 1 -5
BITMAP
0F0C
1F0C
3C0C
380C
700C
700C
600C
E00C
E00C
E00C
E00C
E00C
600C
601C
701C
783C
3C7C
1FEC
0FCC
000C
000C
000C
000C
000C
ENDCHAR
STARTCHAR 03E5
ENCODING 997
SWIDTH 568 0
DWIDTH 15 0
BBX 12 19 1 -4
BITMAP
1C30
3830
7030
6030
6030
E030
C030
C030
E030
6030
6070
7070
3FF0
1FB0
0030
0030
0030
0030
0030
ENDCHAR
STARTCHAR 03E6
ENCODING 998
SWIDTH 720 0
DWIDTH 19 0
BBX 15 24 2 -6
BITMAP
E000
E000
E000
E000
E100
EFF0
FFF8
F83C
F01C
E00E
E00E
E006
E006
E006
E00E
E00E
E00E
E00C
E01C
0038
00F0
01E0
0FC0
1E00
ENDCHAR
STARTCHAR 03E7
ENCODING 999
SWIDTH 530 0
DWIDTH 14 0
BBX 12 15 1 0
BITMAP
0410
1FB0
3FF0
61E0
60E0
61E0
7FF0
3F30
0030
0030
0030
0070
7060
FFE0
DFC0
ENDCHAR
STARTCHAR 03E8
ENCODING 1000
SWIDTH 606 0
DWIDTH 16 0
BBX 14 24 1 -5
BITMAP
0FE0
3FF0
3878
7038
601C
001C
001C
001C
0018
0038
0038
0070
00E0
01C0
0780
0F00
1E00
3C00
7800
E000
700C
3C3C
1FF8
0FE0
ENDCHAR
STARTCHAR 03E9
ENCODING 1001
SWIDTH 530 0
DWIDTH 14 0
BBX 12 20 1 -5
BITMAP
0600
1FC0
3DE0
7060
6070
0030
0030
0070
0060
00E0
01C0
0380
0700
1E00
3800
F000
6000
3030
1FF0
0FC0
ENDCHAR
STARTCHAR 03EA
ENCODING 1002
SWIDTH 682 0
DWIDTH 18 0
BBX 16 19 1 0
BITMAP
F00F
F81F
181C
0C38
0E70
0660
07E0
03C0
01C0
03C0
03C0
07E0
0660
0C30
1C38
1818
381C
FFFF
FFFF
ENDCHAR
STARTCHAR 03EB
ENCODING 1003
SWIDTH 568 0
DWIDTH 15 0
BBX 13 15 1 0
BITMAP
C010
F078
30E0
18C0
1DC0
0F80
0700
0700
0F00
0D80
19C0
38C0
3060
FFF8
FFF8
ENDCHAR
STARTCHAR 03EC
ENCODING 1004
SWIDTH 606 0
DWIDTH 16 0
BBX 14 20 1 0
BITMAP
0004
07FC
1FFC
3C00
7000
6100
6FE0
7FF0
F038
E018
E01C
E01C
E00C
E00C
E01C
601C
7018
7838
3FF0
0FE0
ENDCHAR
STARTCHAR 03ED
ENCODING 1005
SWIDTH 530 0
DWIDTH 14 0
BBX 12 20 1 0
BITMAP
0020
0FE0
3FC0
3000
6000
6200
7F80
5FC0
F0E0
E060
E070
C070
C030
C030
C070
6060
6060
70E0
3FC0
1F80
ENDCHAR
STARTCHAR 03EE
ENCODING 1006
SWIDTH 530 0
DWIDTH 14 0
BBX 13 24 1 -5
BITMAP
0600
0600
0600
0600
0600
FFF8
FFF8
C638
0600
0600
0600
0600
0600
0600
0600
0600
0600
0600
0600
0600
0600
0600
0600
0600
ENDCHAR
STARTCHAR 03EF
ENCODING 1007
SWIDTH 492 0
DWIDTH 13 0
BBX 11 24 1 -5
BITMAP
0C00
0C00
0C00
0C00
0C00
FFE0
FFE0
CC60
0C00
0C00
0C00
0C00
0C00
0C00
0C00
0C00
0C00
0C00
0C00
0C00
0C00
0C00
0C00
0C00
ENDCHAR
STARTCHAR 03F0
ENCODING 1008
SWIDTH 606 0
DWIDTH 16 0
BBX 13 14 1 0
BITMAP
7818
7C38
8C70
0C70
0CE0
0DC0
0FC0
0F80
1D80
3980
7980
71C8
E0F8
C078
ENDCHAR
STARTCHAR 03F1
ENCODING 1009
SWIDTH 568 0
DWIDTH 15 0
BBX 12 20 2 -5
BITMAP
0200
1F80
3BC0
60E0
6060
E060
C070
C070
C070
C060
E060
E060
F0E0
DFC0
CF80
6000
6000
7000
3FE0
1FE0
ENDCHAR
STARTCHAR 03F2
ENCODING 1010
SWIDTH 492 0
DWIDTH 13 0
BBX 10 15 1 0
BITMAP
0200
1FC0
3DC0
7000
6000
6000
E000
E000
E000
E000
6000
6000
7000
3FC0
1FC0
ENDCHAR
STARTCHAR 03F3
ENCODING 1011
SWIDTH 265 0
DWIDTH 7 0
BBX 4 25 0 -5
BITMAP
30
30
30
00
00
00
30
30
30
30
30
30
30
30
30
30
30
30
30
30
30
30
30
F0
E0
ENDCHAR
STARTCHAR 03F4
ENCODING 1012
SWIDTH 682 0
DWIDTH 18 0
BBX 16 19 1 0
BITMAP
07F0
1FF8
3C1C
380E
7006
6007
6007
E003
FFFF
FFFF
E003
E003
6007
6007
7006
300E
3C1C
1FF8
07F0
ENDCHAR
STARTCHAR 03F5
ENCODING 1013
SWIDTH 530 0
DWIDTH 14 0
BBX 10 15 1 0
BITMAP
0200
1FC0
3EC0
7000
6000
6000
E000
FFC0
FFC0
E000
6000
6000
7000
3FC0
1FC0
ENDCHAR
STARTCHAR 03F6
ENCODING 1014
SWIDTH 530 0
DWIDTH 14 0
BBX 10 15 2 0
BITMAP
1000
FE00
EF00
0380
01C0
00C0
00C0
FFC0
FFC0
00C0
00C0
01C0
0380
FF00
FE00
ENDCHAR
STARTCHAR 03F7
ENCODING 1015
SWIDTH 530 0
DWIDTH 14 0
BBX 11 19 2 0
BITMAP
E000
E000
E000
FC00
FF80
E7C0
E0E0
E060
E060
E060
E060
E0E0
E3C0
FFC0
FE00
E000
E000
E000
E000
ENDCHAR
STARTCHAR 03F8
ENCODING 1016
SWIDTH 568 0
DWIDTH 15 0
BBX 12 25 2 -5
BITMAP
C000
C000
C000
C000
C000
C200
DF80
FBC0
E0E0
E060
E060
C070
C070
C070
C060
E060
E060
F0E0
DFC0
CF80
C000
C000
C000
C000
C000
ENDCHAR
STARTCHAR 03F9
ENCODING 1017
SWIDTH 606 0
DWIDTH 16 0
BBX 14 19 1 0
BITMAP
07F0
1FFC
3C0C
3804
7000
6000
6000
E000
E000
E000
E000
E000
6000
6000
7000
3004
3C0C
1FFC
07F0
ENDCHAR
STARTCHAR 03FA
ENCODING 1018
SWIDTH 757 0
DWIDTH 20 0
BBX 16 19 2 0
BITMAP
F00F
F81F
F81F
FC3B
EE73
E763
E7E3
E3C3
E183
E003
E003
E003
E003
E003
E003
E003
E003
E003
E003
ENDCHAR
STARTCHAR 03FB
ENCODING 1019
SWIDTH 568 0
DWIDTH 15 0
BBX 13 19 1 -5
BITMAP
F078
F8F8
F8D8
FDD8
ED98
E798
E718
E018
E018
E018
E018
E018
E018
E018
E000
E000
E000
E000
E000
ENDCHAR
STARTCHAR 03FC
ENCODING 1020
SWIDTH 568 0
DWIDTH 15 0
BBX 13 20 1 -5
BITMAP
0100
0FC0
1DE0
3070
3030
7030
6038
6038
6038
6030
7030
7030
7870
6FE0
67C0
6000
6000
FF80
FF80
6000
ENDCHAR
STARTCHAR 03FD
ENCODING 1021
SWIDTH 606 0
DWIDTH 16 0
BBX 14 19 1 0
BITMAP
3F80
FFE0
E070
8038
0018
001C
001C
001C
000C
000C
000C
001C
001C
001C
0018
8038
C070
FFE0
3FC0
ENDCHAR
STARTCHAR 03FE
ENCODING 1022
SWIDTH 606 0
DWIDTH 16 0
BBX 14 19 1 0
BITMAP
07F0
1FFC
3C0C
3804
7000
6000
6000
E000
E0C0
E0C0
E0C0
E0C0
6000
6000
7000
3004
3C0C
1FFC
07F0
ENDCHAR
STARTCHAR 03FF
ENCODING 1023
SWIDTH 606 0
DWIDTH 16 0
BBX 14 19 1 0
BITMAP
3F80
FFE0
E070
8038
0018
001C
001C
001C
0E0C
0E0C
0E0C
0E1C
001C
001C
0018
8038
C070
FFE0
3FC0
ENDCHAR
STARTCHAR 0400
ENCODING 1024
SWIDTH 568 0
DWIDTH 15 0
BBX 11 24 2 0
BITMAP
0E00
0600
0300
0000
0000
FFE0
FFE0
E000
E000
E000
E000
E000
E000
FFE0
FFE0
E000
E000
E000
E000
E000
E000
E000
FFE0
FFE0
ENDCHAR
STARTCHAR 0401
ENCODING 1025
SWIDTH 568 0
DWIDTH 15 0
BBX 11 24 2 0
BITMAP
3980
3980
3980
0000
0000
FFE0
FFE0
E000
E000
E000
E000
E000
E000
FFE0
FFE0
E000
E000
E000
E000
E000
E000
E000
FFE0
FFE0
ENDCHAR
STARTCHAR 0402
ENCODING 1026
SWIDTH 682 0
DWIDTH 18 0
BBX 17 24 0 -5
BITMAP
FFF800
FFF800
060000
060000
060000
060000
060000
060000
07FC00
07FE00
060700
060300
060380
060380
060380
060380
060380
060380
060380
000380
000300
000700
001F00
001C00
ENDCHAR
STARTCHAR 0403
ENCODING 1027
SWIDTH 530 0
DWIDTH 14 0
BBX 11 24 2 0
BITMAP
0300
0600
0400
0000
0000
FFE0
FFE0
E000
E000
E000
E000
E000
E000
E000
E000
E000
E000
E000
E000
E000
E000
E000
E000
E000
ENDCHAR
STARTCHAR 0404
ENCODING 1028
SWIDTH 606 0
DWIDTH 16 0
BBX 14 19 1 0
BITMAP
07F0
1FFC
3C0C
3004
7000
6000
6000
E000
FFF0
FFF0
FFF0
E000
6000
6000
7000
3004
3C0C
1FFC
07F0
ENDCHAR
STARTCHAR 0405
ENCODING 1029
SWIDTH 568 0
DWIDTH 15 0
BBX 12 19 2 0
BITMAP
3FC0
7FE0
E060
C000
C000
C000
C000
F000
7F00
3FC0
07E0
00E0
0060
0070
0070
0060
80E0
FFC0
FF80
ENDCHAR
STARTCHAR 0406
ENCODING 1030
SWIDTH 265 0
DWIDTH 7 0
BBX 3 19 2 0
BITMAP
E0
E0
E0
E0
E0
E0
E0
E0
E0
E0
E0
E0
E0
E0
E0
E0
E0
E0
E0
ENDCHAR
STARTCHAR 0407
ENCODING 1031
SWIDTH 265 0
DWIDTH 7 0
BBX 7 24 0 0
BITMAP
C6
C6
C6
00
00
38
38
38
38
38
38
38
38
38
38
38
38
38
38
38
38
38
38
38
ENDCHAR
STARTCHAR 0408
ENCODING 1032
SWIDTH 265 0
DWIDTH 7 0
BBX 6 24 -1 -5
BITMAP
1C
1C
1C
1C
1C
1C
1C
1C
1C
1C
1C
1C
1C
1C
1C
1C
1C
1C
1C
1C
18
38
F8
E0
ENDCHAR
STARTCHAR 0409
ENCODING 1033
SWIDTH 985 0
DWIDTH 26 0
BBX 23 19 1 0
BITMAP
0FFC00
0FFC00
0C0C00
0C0C00
0C0C00
0C0C00
0C0C00
0C0C00
0C0FF0
0C0FFC
0C0C1C
0C0C0E
0C0C0E
1C0C0E
180C0E
380C0E
780C1C
F00FFC
C00FF0
ENDCHAR
STARTCHAR 040A
ENCODING 1034
SWIDTH 909 0
DWIDTH 24 0
BBX 21 19 2 0
BITMAP
E03000
E03000
E03000
E03000
E03000
E03000
E03000
E03000
FFFFC0
FFFFF0
E03070
E03038
E03038
E03038
E03038
E03038
E03070
E03FE0
E03FC0
ENDCHAR
STARTCHAR 040B
ENCODING 1035
SWIDTH 682 0
DWIDTH 18 0
BBX 17 19 0 0
BITMAP
FFF800
FFF800
060000
060000
060000
060000
060000
060000
07FC00
07FE00
060700
060300
060380
060380
060380
060380
060380
060380
060380
ENDCHAR
STARTCHAR 040C
ENCODING 1036
SWIDTH 644 0
DWIDTH 17 0
BBX 14 24 2 0
BITMAP
0180
0300
0600
0000
0000
E038
E038
E070
E0E0
E1C0
E380
E700
EE00
FF00
FB00
FB80
F1C0
E0C0
E0E0
E060
E030
E038
E018
E01C
ENDCHAR
STARTCHAR 040D
ENCODING 1037
SWIDTH 682 0
DWIDTH 18 0
BBX 13 24 2 0
BITMAP
0C00
0600
0300
0000
0000
E038
E078
E078
E0F8
E0D8
E1D8
E198
E198
E318
E318
E618
E618
EE18
EC18
FC18
F818
F818
F018
F018
ENDCHAR
STARTCHAR 040E
ENCODING 1038
SWIDTH 530 0
DWIDTH 14 0
BBX 13 24 1 0
BITMAP
10C0
1F80
0600
0000
0000
C038
C030
E070
6070
7060
70E0
30C0
38C0
19C0
1980
1F80
0F00
0F00
0700
0600
0E00
0E00
7C00
7800
ENDCHAR
STARTCHAR 040F
ENCODING 1039
SWIDTH 682 0
DWIDTH 18 0
BBX 13 23 2 -4
BITMAP
E018
E018
E018
E018
E018
E018
E018
E018
E018
E018
E018
E018
E018
E018
E018
E018
E018
FFF8
FFF8
0300
0300
0300
0300
ENDCHAR
STARTCHAR 0410
ENCODING 1040
SWIDTH 606 0
DWIDTH 16 0
BBX 16 19 0 0
BITMAP
0180
03C0
03C0
07C0
0660
0660
0E70
0C30
0C30
1C38
1818
1818
3FFC
3FFC
300C
700E
6006
6006
E007
ENDCHAR
STARTCHAR 0411
ENCODING 1041
SWIDTH 606 0
DWIDTH 16 0
BBX 12 19 2 0
BITMAP
FFE0
FFE0
E000
E000
E000
E000
E000
E000
FFC0
FFE0
E070
E030
E030
E030
E030
E070
E0F0
FFE0
FF80
ENDCHAR
STARTCHAR 0412
ENCODING 1042
SWIDTH 606 0
DWIDTH 16 0
BBX 12 19 2 0
BITMAP
FF80
FFC0
E0E0
E070
E070
E070
E060
E0E0
FFC0
FFC0
E060
E030
E030
E030
E030
E070
E0F0
FFE0
FF80
ENDCHAR
STARTCHAR 0413
ENCODING 1043
SWIDTH 530 0
DWIDTH 14 0
BBX 11 19 2 0
BITMAP
FFE0
FFE0
E000
E000
E000
E000
E000
E000
E000
E000
E000
E000
E000
E000
E000
E000
E000
E000
E000
ENDCHAR
STARTCHAR 0414
ENCODING 1044
SWIDTH 682 0
DWIDTH 18 0
BBX 16 23 1 -4
BITMAP
0FFC
0FFC
0C0C
0C0C
0C0C
0C0C
0C0C
0C0C
0C0C
0C0C
0C0C
0C0C
1C0C
1C0C
180C
380C
780C
FFFF
FFFF
C003
C003
C003
C003
ENDCHAR
STARTCHAR 0415
ENCODING 1045
SWIDTH 568 0
DWIDTH 15 0
BBX 11 19 2 0
BITMAP
FFE0
FFE0
E000
E000
E000
E000
E000
E000
FFE0
FFE0
E000
E000
E000
E000
E000
E000
E000
FFE0
FFE0
ENDCHAR
STARTCHAR 0416
ENCODING 1046
SWIDTH 947 0
DWIDTH 25 0
BBX 23 19 1 0
BITMAP
E0380E
70381C
383838
1C3830
0C3870
0E38E0
0739C0
03BB80
07FBC0
06FEC0
0E7EE0
0C7C60
1C3830
183838
303818
70381C
60380C
E0380E
C03806
ENDCHAR
STARTCHAR 0417
ENCODING 1047
SWIDTH 568 0
DWIDTH 15 0
BBX 11 19 2 0
BITMAP
FF00
FFC0
80E0
00E0
0060
0060
00E0
01C0
3F80
3FC0
00E0
0060
0060
0060
0060
0060
80E0
FFC0
FF00
ENDCHAR
STARTCHAR 0418
ENCODING 1048
SWIDTH 682 0
DWIDTH 18 0
BBX 13 19 2 0
BITMAP
E038
E078
E078
E0F8
E0D8
E1D8
E198
E198
E318
E318
E618
E618
EE18
EC18
FC18
F818
F818
F018
F018
ENDCHAR
STARTCHAR 0419
ENCODING 1049
SWIDTH 682 0
DWIDTH 18 0
BBX 13 24 2 0
BITMAP
18C0
0FC0
0700
0000
0000
E038
E078
E078
E0F8
E0D8
E1D8
E198
E198
E318
E318
E618
E618
EE18
EC18
FC18
F818
F818
F018
F018
ENDCHAR
STARTCHAR 041A
ENCODING 1050
SWIDTH 644 0
DWIDTH 17 0
BBX 14 19 2 0
BITMAP
E038
E038
E070
E0E0
E1C0
E380
E700
EE00
FF00
FB00
FB80
F1C0
E0C0
E0E0
E060
E030
E038
E018
E01C
ENDCHAR
STARTCHAR 041B
ENCODING 1051
SWIDTH 682 0
DWIDTH 18 0
BBX 14 19 1 0
BITMAP
0FFC
0FFC
0C0C
0C0C
0C0C
0C0C
0C0C
0C0C
0C0C
0C0C
0C0C
0C0C
0C0C
1C0C
180C
380C
780C
F00C
C00C
ENDCHAR
STARTCHAR 041C
ENCODING 1052
SWIDTH 757 0
DWIDTH 20 0
BBX 16 19 2 0
BITMAP
F00F
F00F
F80F
F81B
F81B
EC1B
EC33
EC33
E633
E663
E663
E363
E3C3
E3C3
E1C3
E003
E003
E003
E003
ENDCHAR
STARTCHAR 041D
ENCODING 1053
SWIDTH 682 0
DWIDTH 18 0
BBX 13 19 2 0
BITMAP
E018
E018
E018
E018
E018
E018
E018
E018
FFF8
FFF8
E018
E018
E018
E018
E018
E018
E018
E018
E018
ENDCHAR
STARTCHAR 041E
ENCODING 1054
SWIDTH 682 0
DWIDTH 18 0
BBX 16 19 1 0
BITMAP
07F0
1FF8
3C1C
380E
7006
6007
6007
E003
E003
E003
E003
E003
6007
6007
7006
300E
3C1C
1FF8
07F0
ENDCHAR
STARTCHAR 041F
ENCODING 1055
SWIDTH 682 0
DWIDTH 18 0
BBX 13 19 2 0
BITMAP
FFF8
FFF8
E018
E018
E018
E018
E018
E018
E018
E018
E018
E018
E018
E018
E018
E018
E018
E018
E018
ENDCHAR
STARTCHAR 0420
ENCODING 1056
SWIDTH 530 0
DWIDTH 14 0
BBX 11 19 2 0
BITMAP
FF00
FFC0
E1E0
E0E0
E060
E060
E060
E060
E0E0
FFC0
FF80
E000
E000
E000
E000
E000
E000
E000
E000
ENDCHAR
STARTCHAR 0421
ENCODING 1057
SWIDTH 606 0
DWIDTH 16 0
BBX 14 19 1 0
BITMAP
07F0
1FFC
3C0C
3804
7000
6000
6000
E000
E000
E000
E000
E000
6000
6000
7000
3004
3C0C
1FFC
07F0
ENDCHAR
STARTCHAR 0422
ENCODING 1058
SWIDTH 530 0
DWIDTH 14 0
BBX 14 19 0 0
BITMAP
FFFC
FFFC
0300
0300
0300
0300
0300
0300
0300
0300
0300
0300
0300
0300
0300
0300
0300
0300
0300
ENDCHAR
STARTCHAR 0423
ENCODING 1059
SWIDTH 530 0
DWIDTH 14 0
BBX 13 19 1 0
BITMAP
C038
C030
E070
6070
7060
70E0
30C0
38C0
19C0
1980
1F80
0F00
0F00
0700
0600
0E00
0E00
7C00
7800
ENDCHAR
STARTCHAR 0424
ENCODING 1060
SWIDTH 757 0
DWIDTH 20 0
BBX 18 19 1 0
BITMAP
00C000
00C000
07F800
1FFE00
3CCF00
70C380
60C180
60C1C0
E0C1C0
E0C1C0
E0C1C0
60C1C0
70C380
78C780
3EDF00
0FFE00
03F000
00C000
00C000
ENDCHAR
STARTCHAR 0425
ENCODING 1061
SWIDTH 606 0
DWIDTH 16 0
BBX 14 19 1 0
BITMAP
601C
7018
3030
1870
1C60
0CE0
0EC0
0780
0380
0780
0780
0FC0
0CC0
1C60
3870
3030
7038
6018
C00C
ENDCHAR
STARTCHAR 0426
ENCODING 1062
SWIDTH 682 0
DWIDTH 18 0
BBX 15 23 2 -4
BITMAP
E018
E018
E018
E018
E018
E018
E018
E018
E018
E018
E018
E018
E018
E018
E018
E018
E018
FFFE
FFFE
0006
0006
0006
0006
ENDCHAR
STARTCHAR 0427
ENCODING 1063
SWIDTH 606 0
DWIDTH 16 0
BBX 12 19 2 0
BITMAP
C070
C070
C070
C070
C070
C070
C070
E070
6070
7FF0
3FF0
0070
0070
0070
0070
0070
0070
0070
0070
ENDCHAR
STARTCHAR 0428
ENCODING 1064
SWIDTH 947 0
DWIDTH 25 0
BBX 21 19 2 0
BITMAP
E07038
E07038
E07038
E07038
E07038
E07038
E07038
E07038
E07038
E07038
E07038
E07038
E07038
E07038
E07038
E07038
E07038
FFFFF8
FFFFF8
ENDCHAR
STARTCHAR 0429
ENCODING 1065
SWIDTH 985 0
DWIDTH 26 0
BBX 23 23 2 -4
BITMAP
E07038
E07038
E07038
E07038
E07038
E07038
E07038
E07038
E07038
E07038
E07038
E07038
E07038
E07038
E07038
E07038
E07038
FFFFFE
FFFFFE
000006
000006
000006
000006
ENDCHAR
STARTCHAR 042A
ENCODING 1066
SWIDTH 720 0
DWIDTH 19 0
BBX 17 19 1 0
BITMAP
FE0000
FE0000
060000
060000
060000
060000
060000
060000
07FC00
07FF00
060700
060380
060380
060380
060380
060380
060700
07FE00
07FC00
ENDCHAR
STARTCHAR 042B
ENCODING 1067
SWIDTH 795 0
DWIDTH 21 0
BBX 16 19 2 0
BITMAP
E003
E003
E003
E003
E003
E003
E003
E003
FFC3
FFE3
E073
E033
E033
E033
E033
E073
E0F3
FFE3
FF83
ENDCHAR
STARTCHAR 042C
ENCODING 1068
SWIDTH 606 0
DWIDTH 16 0
BBX 12 19 2 0
BITMAP
E000
E000
E000
E000
E000
E000
E000
E000
FFC0
FFE0
E070
E030
E030
E030
E030
E070
E0F0
FFE0
FF80
ENDCHAR
STARTCHAR 042D
ENCODING 1069
SWIDTH 606 0
DWIDTH 16 0
BBX 14 19 1 0
BITMAP
3F80
FFE0
E070
8038
0018
0018
001C
001C
3FFC
3FFC
3FFC
001C
001C
001C
0018
8038
E070
FFE0
3FC0
ENDCHAR
STARTCHAR 042E
ENCODING 1070
SWIDTH 947 0
DWIDTH 25 0
BBX 22 19 2 0
BITMAP
E01FC0
E07FE0
E0E070
E0C038
E1C038
E18018
E3801C
E3801C
FF801C
FF800C
FF801C
E3801C
E3801C
E18018
E1C038
E0C038
E0E070
E07FE0
E03FC0
ENDCHAR
STARTCHAR 042F
ENCODING 1071
SWIDTH 606 0
DWIDTH 16 0
BBX 12 19 2 0
BITMAP
1FF0
3FF0
7030
E030
E030
E030
E030
E030
7030
3FF0
0FF0
0C30
1C30
1830
3830
3030
6030
E030
C030
ENDCHAR
STARTCHAR 0430
ENCODING 1072
SWIDTH 530 0
DWIDTH 14 0
BBX 11 15 1 0
BITMAP
0400
7F80
7BC0
40E0
0060
0060
1FE0
3FE0
6060
6060
E060
E0E0
60E0
7FE0
3F60
ENDCHAR
STARTCHAR 0431
ENCODING 1073
SWIDTH 530 0
DWIDTH 14 0
BBX 12 20 1 0
BITMAP
07E0
1FE0
3C00
7000
6000
6200
DFC0
FDE0
F060
E070
E030
E030
E030
E030
6030
6030
6070
70E0
3FC0
1F80
ENDCHAR
STARTCHAR 0432
ENCODING 1074
SWIDTH 530 0
DWIDTH 14 0
BBX 10 14 2 0
BITMAP
FF00
FF80
C1C0
C0C0
C1C0
C380
FF00
C380
C0C0
C0C0
C0C0
C1C0
FFC0
FF00
ENDCHAR
STARTCHAR 0433
ENCODING 1075
SWIDTH 454 0
DWIDTH 12 0
BBX 9 14 2 0
BITMAP
FF80
FF80
C000
C000
C000
C000
C000
C000
C000
C000
C000
C000
C000
C000
ENDCHAR
STARTCHAR 0434
ENCODING 1076
SWIDTH 606 0
DWIDTH 16 0
BBX 14 18 1 -4
BITMAP
0FF0
0FF0
0C30
0C30
0C30
1C30
1C30
1830
1830
1830
1830
3030
FFFC
FFFC
C00C
C00C
C00C
C00C
ENDCHAR
STARTCHAR 0435
ENCODING 1077
SWIDTH 530 0
DWIDTH 14 0
BBX 12 15 1 0
BITMAP
0200
1FC0
3DE0
7060
6030
6030
E030
FFF0
C000
E000
6000
6000
7010
3FF0
1FE0
ENDCHAR
STARTCHAR 0436
ENCODING 1078
SWIDTH 795 0
DWIDTH 21 0
BBX 19 14 1 0
BITMAP
70E0C0
30E180
18E300
0CE700
0EEE00
07FC00
0FFE00
0DF600
18E300
38E380
30E180
70E0C0
60E0C0
C0E060
ENDCHAR
STARTCHAR 0437
ENCODING 1079
SWIDTH 454 0
DWIDTH 12 0
BBX 9 15 2 0
BITMAP
1800
FF00
EF00
0380
0180
0300
3F00
3E00
0700
0180
0180
0180
0380
FF00
FE00
ENDCHAR
STARTCHAR 0438
ENCODING 1080
SWIDTH 568 0
DWIDTH 15 0
BBX 11 14 2 0
BITMAP
C0E0
C1E0
C1E0
C3E0
C360
C660
C660
CC60
CC60
D860
D860
F060
F060
E060
ENDCHAR
STARTCHAR 0439
ENCODING 1081
SWIDTH 568 0
DWIDTH 15 0
BBX 11 19 2 0
BITMAP
3080
3F80
1F00
0000
0000
C0E0
C1E0
C1E0
C3E0
C360
C660
C660
CC60
CC60
D860
D860
F060
F060
E060
ENDCHAR
STARTCHAR 043A
ENCODING 1082
SWIDTH 530 0
DWIDTH 14 0
BBX 11 14 2 0
BITMAP
C1C0
C180
C300
C600
CE00
DC00
FE00
F600
E300
C380
C180
C1C0
C0C0
C060
ENDCHAR
STARTCHAR 043B
ENCODING 1083
SWIDTH 568 0
DWIDTH 15 0
BBX 12 14 1 0
BITMAP
1FF0
1FF0
1830
1830
1830
1830
1830
1830
1830
1830
3830
7030
E030
C030
ENDCHAR
STARTCHAR 043C
ENCODING 1084
SWIDTH 682 0
DWIDTH 18 0
BBX 14 14 2 0
BITMAP
E03C
F03C
F07C
D87C
D85C
C8DC
CCDC
CC9C
C79C
C79C
C71C
C01C
C01C
C01C
ENDCHAR
STARTCHAR 043D
ENCODING 1085
SWIDTH 568 0
DWIDTH 15 0
BBX 11 14 2 0
BITMAP
C060
C060
C060
C060
C060
C060
FFE0
C060
C060
C060
C060
C060
C060
C060
ENDCHAR
STARTCHAR 043E
ENCODING 1086
SWIDTH 530 0
DWIDTH 14 0
BBX 12 15 1 0
BITMAP
0400
1FC0
3FE0
70E0
6070
E030
E030
E030
E030
E030
6070
6060
70E0
3FC0
1F80
ENDCHAR
STARTCHAR 043F
ENCODING 1087
SWIDTH 568 0
DWIDTH 15 0
BBX 11 14 2 0
BITMAP
FFE0
FFE0
C060
C060
C060
C060
C060
C060
C060
C060
C060
C060
C060
C060
ENDCHAR
STARTCHAR 0440
ENCODING 1088
SWIDTH 568 0
DWIDTH 15 0
BBX 12 20 2 -5
BITMAP
0200
DF80
FBC0
E0E0
E060
E060
C070
C070
C070
C060
E060
E060
F0E0
DFC0
CF80
C000
C000
C000
C000
C000
ENDCHAR
STARTCHAR 0441
ENCODING 1089
SWIDTH 492 0
DWIDTH 13 0
BBX 10 15 1 0
BITMAP
0200
1FC0
3DC0
7000
6000
6000
E000
E000
E000
E000
6000
6000
7000
3FC0
1FC0
ENDCHAR
STARTCHAR 0442
ENCODING 1090
SWIDTH 530 0
DWIDTH 14 0
BBX 12 14 1 0
BITMAP
FFF0
FFF0
0600
0600
0600
0600
0600
0600
0600
0600
0600
0600
0600
0600
ENDCHAR
STARTCHAR 0443
ENCODING 1091
SWIDTH 530 0
DWIDTH 14 0
BBX 12 19 1 -5
BITMAP
C030
E070
6060
6060
70C0
30C0
31C0
1980
1980
1B80
0F00
0F00
0F00
0600
0600
0C00
0C00
7C00
7800
ENDCHAR
STARTCHAR 0444
ENCODING 1092
SWIDTH 757 0
DWIDTH 20 0
BBX 18 24 1 -5
BITMAP
00C000
00C000
00C000
00C000
08C400
3EDF00
3BF700
61E180
60C180
E0C1C0
E0C1C0
C0C0C0
C0C0C0
E0C1C0
E0C180
60C180
71E380
3FFF00
1EDE00
00C000
00C000
00C000
00C000
00C000
ENDCHAR
STARTCHAR 0445
ENCODING 1093
SWIDTH 530 0
DWIDTH 14 0
BBX 12 14 1 0
BITMAP
6060
70E0
30C0
1980
1F80
0F00
0600
0F00
1F00
1980
31C0
70C0
6060
E070
ENDCHAR
STARTCHAR 0446
ENCODING 1094
SWIDTH 606 0
DWIDTH 16 0
BBX 13 18 2 -4
BITMAP
C060
C060
C060
C060
C060
C060
C060
C060
C060
C060
C060
C060
FFF8
FFF8
0018
0018
0018
0018
ENDCHAR
STARTCHAR 0447
ENCODING 1095
SWIDTH 530 0
DWIDTH 14 0
BBX 10 14 2 0
BITMAP
C0C0
C0C0
C0C0
C0C0
C0C0
E0C0
FFC0
3FC0
00C0
00C0
00C0
00C0
00C0
00C0
ENDCHAR
STARTCHAR 0448
ENCODING 1096
SWIDTH 795 0
DWIDTH 21 0
BBX 17 14 2 0
BITMAP
C0C180
C0C180
C0C180
C0C180
C0C180
C0C180
C0C180
C0C180
C0C180
C0C180
C0C180
C0C180
FFFF80
FFFF80
ENDCHAR
STARTCHAR 0449
ENCODING 1097
SWIDTH 833 0
DWIDTH 22 0
BBX 19 18 2 -4
BITMAP
C0C180
C0C180
C0C180
C0C180
C0C180
C0C180
C0C180
C0C180
C0C180
C0C180
C0C180
C0C180
FFFFE0
FFFFE0
000060
000060
000060
000060
ENDCHAR
STARTCHAR 044A
ENCODING 1098
SWIDTH 644 0
DWIDTH 17 0
BBX 14 14 1 0
BITMAP
FC00
FC00
0C00
0C00
0C00
0C00
0FF8
0C7C
0C0C
0C0C
0C0C
0C1C
0FF8
0FF0
ENDCHAR
STARTCHAR 044B
ENCODING 1099
SWIDTH 682 0
DWIDTH 18 0
BBX 14 14 2 1
BITMAP
C00C
C00C
C00C
C00C
C00C
C00C
FF8C
C3CC
C0CC
C0CC
C0CC
C1CC
FFCC
FF0C
ENDCHAR
STARTCHAR 044C
ENCODING 1100
SWIDTH 530 0
DWIDTH 14 0
BBX 10 14 2 0
BITMAP
C000
C000
C000
C000
C000
C000
FF80
C3C0
C0C0
C0C0
C0C0
C1C0
FFC0
FF00
ENDCHAR
STARTCHAR 044D
ENCODING 1101
SWIDTH 492 0
DWIDTH 13 0
BBX 10 15 1 0
BITMAP
1800
FF00
EF80
0180
01C0
00C0
00C0
3FC0
00C0
00C0
00C0
01C0
8180
FF80
FE00
ENDCHAR
STARTCHAR 044E
ENCODING 1102
SWIDTH 757 0
DWIDTH 20 0
BBX 16 15 2 0
BITMAP
0020
C1FC
C3DE
C307
C703
C603
FE03
FE03
C603
C603
C603
C707
C306
C3FE
C1FC
ENDCHAR
STARTCHAR 044F
ENCODING 1103
SWIDTH 530 0
DWIDTH 14 0
BBX 10 14 2 0
BITMAP
3FC0
7FC0
E0C0
C0C0
C0C0
E0C0
7FC0
1FC0
18C0
30C0
30C0
60C0
E0C0
C0C0
ENDCHAR
STARTCHAR 0450
ENCODING 1104
SWIDTH 530 0
DWIDTH 14 0
BBX 12 21 1 0
BITMAP
3000
1800
0C00
0400
0600
0000
0200
1FC0
3DE0
7060
6030
6030
E030
FFF0
C000
E000
6000
6000
7010
3FF0
1FE0
ENDCHAR
STARTCHAR 0451
ENCODING 1105
SWIDTH 530 0
DWIDTH 14 0
BBX 12 20 1 0
BITMAP
1CC0
1CC0
1CC0
0000
0000
0200
1FC0
3DE0
7060
6030
6030
E030
FFF0
C000
E000
6000
6000
7010
3FF0
1FE0
ENDCHAR
STARTCHAR 0452
ENCODING 1106
SWIDTH 568 0
DWIDTH 15 0
BBX 12 25 1 -5
BITMAP
3000
3000
3000
3000
3000
3000
FFC0
FFC0
3000
3000
33C0
37E0
3C70
3830
3030
3030
3030
3030
3030
3030
0060
0060
00C0
0380
0300
ENDCHAR
STARTCHAR 0453
ENCODING 1107
SWIDTH 454 0
DWIDTH 12 0
BBX 9 21 2 0
BITMAP
0180
0300
0600
0600
0C00
0000
0000
FF80
FF80
C000
C000
C000
C000
C000
C000
C000
C000
C000
C000
C000
C000
ENDCHAR
STARTCHAR 0454
ENCODING 1108
SWIDTH 492 0
DWIDTH 13 0
BBX 10 15 1 0
BITMAP
0200
1FC0
3DC0
7000
6000
6000
E000
FF80
E000
E000
6000
6000
7000
3FC0
1FC0
ENDCHAR
STARTCHAR 0455
ENCODING 1109
SWIDTH 454 0
DWIDTH 12 0
BBX 10 15 1 0
BITMAP
0400
3F80
7380
E000
C000
E000
7800
3F00
0F80
01C0
00C0
00C0
81C0
FF80
FF00
ENDCHAR
STARTCHAR 0456
ENCODING 1110
SWIDTH 265 0
DWIDTH 7 0
BBX 2 20 2 0
BITMAP
C0
C0
C0
00
00
00
C0
C0
C0
C0
C0
C0
C0
C0
C0
C0
C0
C0
C0
C0
ENDCHAR
STARTCHAR 0457
ENCODING 1111
SWIDTH 265 0
DWIDTH 7 0
BBX 7 20 0 0
BITMAP
CE
CE
CE
00
00
00
30
30
30
30
30
30
30
30
30
30
30
30
30
30
ENDCHAR
STARTCHAR 0458
ENCODING 1112
SWIDTH 265 0
DWIDTH 7 0
BBX 4 25 0 -5
BITMAP
30
30
30
00
00
00
30
30
30
30
30
30
30
30
30
30
30
30
30
30
30
30
30
F0
E0
ENDCHAR
STARTCHAR 0459
ENCODING 1113
SWIDTH 795 0
DWIDTH 21 0
BBX 19 14 1 0
BITMAP
1FF000
1FF000
183000
183000
183000
183000
183F80
1833C0
1830E0
1830E0
3830E0
7030C0
E03FC0
C03F00
ENDCHAR
STARTCHAR 045A
ENCODING 1114
SWIDTH 795 0
DWIDTH 21 0
BBX 18 14 2 0
BITMAP
C0E000
C0E000
C0E000
C0E000
C0E000
C0E000
FFFF00
C0E780
C0E180
C0E1C0
C0E1C0
C0E180
C0FF80
C0FE00
ENDCHAR
STARTCHAR 045B
ENCODING 1115
SWIDTH 568 0
DWIDTH 15 0
BBX 12 20 1 0
BITMAP
3000
3000
3000
3000
3000
3000
FFC0
FFC0
3000
3000
33C0
37E0
3C70
3830
3030
3030
3030
3030
3030
3030
ENDCHAR
STARTCHAR 045C
ENCODING 1116
SWIDTH 530 0
DWIDTH 14 0
BBX 11 21 2 0
BITMAP
0380
0300
0600
0C00
0C00
0000
0000
C1C0
C180
C300
C600
CE00
DC00
FE00
F600
E300
C380
C180
C1C0
C0C0
C060
ENDCHAR
STARTCHAR 045D
ENCODING 1117
SWIDTH 568 0
DWIDTH 15 0
BBX 11 21 2 0
BITMAP
6000
3000
1800
0800
0C00
0000
0000
C0E0
C1E0
C1E0
C3E0
C360
C660
C660
CC60
CC60
D860
D860
F060
F060
E060
ENDCHAR
STARTCHAR 045E
ENCODING 1118
SWIDTH 530 0
DWIDTH 14 0
BBX 12 24 1 -5
BITMAP
3080
1F80
0F00
0000
0000
C030
E070
6060
6060
70C0
30C0
31C0
1980
1980
1B80
0F00
0F00
0F00
0600
0600
0C00
0C00
7C00
7800
ENDCHAR
STARTCHAR 045F
ENCODING 1119
SWIDTH 568 0
DWIDTH 15 0
BBX 11 18 2 -4
BITMAP
C060
C060
C060
C060
C060
C060
C060
C060
C060
C060
C060
C060
FFE0
FFE0
0600
0600
0600
0600
ENDCHAR
STARTCHAR 0460
ENCODING 1120
SWIDTH 833 0
DWIDTH 22 0
BBX 20 19 1 0
BITMAP
1C0380
380180
3801C0
3000C0
7000E0
6000E0
600060
E00060
E06060
E06070
E06070
E06060
E06060
60E060
70F0E0
71F9E0
7FBFC0
3F9FC0
1F0F80
ENDCHAR
STARTCHAR 0461
ENCODING 1121
SWIDTH 757 0
DWIDTH 20 0
BBX 16 14 2 0
BITMAP
600E
6006
E006
C007
C007
C007
C183
C183
C187
C387
C387
E3C6
7EFE
3E7C
ENDCHAR
STARTCHAR 0462
ENCODING 1122
SWIDTH 682 0
DWIDTH 18 0
BBX 17 19 0 0
BITMAP
060000
060000
060000
FFE000
FFE000
060000
060000
060000
07FC00
07FE00
060700
060300
060380
060380
060380
060300
060700
07FE00
07FC00
ENDCHAR
STARTCHAR 0463
ENCODING 1123
SWIDTH 606 0
DWIDTH 16 0
BBX 14 20 0 0
BITMAP
0C00
0C00
0C00
0C00
0C00
0C00
FFE0
FFE0
0C00
0C00
0C00
0C00
0FF8
0C3C
0C0C
0C0C
0C0C
0C1C
0FF8
0FF0
ENDCHAR
STARTCHAR 0464
ENCODING 1124
SWIDTH 833 0
DWIDTH 22 0
BBX 19 19 2 0
BITMAP
E03F80
E0FFE0
E1E0E0
E38020
E38000
E30000
E70000
E70000
FFFE00
FFFE00
E60000
E70000
E70000
E30000
E38000
E38020
E1C060
E0FFE0
E07F80
ENDCHAR
STARTCHAR 0465
ENCODING 1125
SWIDTH 682 0
DWIDTH 18 0
BBX 14 15 2 0
BITMAP
0020
C1FC
C3DC
C700
C600
CE00
CC00
FFF0
CC00
CC00
CE00
C600
C700
C3FC
C1FC
ENDCHAR
STARTCHAR 0466
ENCODING 1126
SWIDTH 795 0
DWIDTH 21 0
BBX 20 19 0 0
BITMAP
007000
00F000
00F800
01D800
019C00
038C00
038E00
070E00
070700
060700
0FFF00
0FFF80
1C6180
1861C0
3860C0
3060E0
706060
606070
E06030
ENDCHAR
STARTCHAR 0467
ENCODING 1127
SWIDTH 682 0
DWIDTH 18 0
BBX 16 14 1 0
BITMAP
01C0
03C0
03E0
0660
0630
0C30
0C18
1FF8
3FFC
318C
7186
6186
E183
C183
ENDCHAR
STARTCHAR 0468
ENCODING 1128
SWIDTH 1023 0
DWIDTH 27 0
BBX 24 19 2 0
BITMAP
E00700
E00F00
E00F80
E00D80
E01DC0
E018C0
E038E0
E03060
FFF070
FFE030
E0FFF8
E0FFF8
E1C71C
E1871C
E3870C
E3870E
E70706
E70707
E60703
ENDCHAR
STARTCHAR 0469
ENCODING 1129
SWIDTH 871 0
DWIDTH 23 0
BBX 21 14 2 0
BITMAP
C01C00
C03C00
C03600
C06600
C06300
C0C300
FFC180
FFFF80
C1FFC0
C318C0
C31860
C61870
CE1830
CC1838
ENDCHAR
STARTCHAR 046A
ENCODING 1130
SWIDTH 682 0
DWIDTH 18 0
BBX 16 19 1 0
BITMAP
7FFE
3FFE
380C
181C
1C18
0C38
0E30
0670
0760
03E0
0FF8
1FBC
399C
718E
7186
6187
E187
E183
E183
ENDCHAR
STARTCHAR 046B
ENCODING 1131
SWIDTH 530 0
DWIDTH 14 0
BBX 12 14 1 0
BITMAP
7FF0
7FE0
30E0
38C0
19C0
1D80
0F80
1F80
3FC0
76E0
6670
6670
E630
E630
ENDCHAR
STARTCHAR 046C
ENCODING 1132
SWIDTH 909 0
DWIDTH 24 0
BBX 21 19 2 0
BITMAP
E3FFF0
E3FFF0
E180E0
E1C0E0
E0C1C0
E0E180
E06380
E07300
FFFF00
FFFE00
E0FF80
E1EFC0
E1CCE0
E38C70
E30C70
E70C30
E70C38
E60C38
E60C38
ENDCHAR
STARTCHAR 046D
ENCODING 1133
SWIDTH 720 0
DWIDTH 19 0
BBX 16 14 2 0
BITMAP
C7FF
C7FE
C30E
C38C
C19C
C1D8
FFF8
FFF8
C3FC
C76E
C666
CE67
CE63
CC63
ENDCHAR
STARTCHAR 046E
ENCODING 1134
SWIDTH 568 0
DWIDTH 15 0
BBX 12 29 1 -5
BITMAP
10C0
1980
0900
0B00
0E00
7F80
7FE0
40E0
0070
0070
0070
0060
01E0
0F80
0FC0
00E0
0070
0030
0030
0030
0070
00E0
7FC0
7F80
C000
C000
E000
7FE0
3FE0
ENDCHAR
STARTCHAR 046F
ENCODING 1135
SWIDTH 492 0
DWIDTH 13 0
BBX 10 25 1 -5
BITMAP
0080
2180
3200
1200
1E00
0C00
7F80
7780
01C0
00C0
0180
1F80
1F00
0380
00C0
00C0
00C0
01C0
7F80
FF00
C000
C000
C000
7F80
3F80
ENDCHAR
STARTCHAR 0470
ENCODING 1136
SWIDTH 757 0
DWIDTH 20 0
BBX 20 19 0 0
BITMAP
00C000
E0C0F0
60C1C0
60C180
70C380
30C300
30C300
38C700
18C600
18C600
1CCE00
0CCC00
0CCC00
0FFC00
07F800
00C000
00C000
00C000
00C000
ENDCHAR
STARTCHAR 0471
ENCODING 1137
SWIDTH 795 0
DWIDTH 21 0
BBX 19 25 1 -5
BITMAP
018000
018000
018000
018000
018000
018040
C181E0
C18380
E18300
618700
618600
318600
318E00
318C00
198C00
199C00
199800
0D9800
0FF800
0FF000
018000
018000
018000
018000
018000
ENDCHAR
STARTCHAR 0472
ENCODING 1138
SWIDTH 682 0
DWIDTH 18 0
BBX 16 19 1 0
BITMAP
07F0
1FF8
3C1C
380E
7006
6007
6007
E003
FFFF
FFFF
E003
E003
6007
6007
7006
300E
3C1C
1FF8
07F0
ENDCHAR
STARTCHAR 0473
ENCODING 1139
SWIDTH 530 0
DWIDTH 14 0
BBX 12 15 1 0
BITMAP
0400
1FC0
3DE0
7060
6070
E030
FFF0
FFF0
FFF0
E030
6070
6060
70E0
3FC0
1F80
ENDCHAR
STARTCHAR 0474
ENCODING 1140
SWIDTH 682 0
DWIDTH 18 0
BBX 18 19 0 0
BITMAP
E003C0
6007C0
600700
700E00
300C00
300C00
381C00
181800
181800
1C3800
0C3000
0C3000
0E7000
066000
06E000
07E000
03C000
03C000
01C000
ENDCHAR
STARTCHAR 0475
ENCODING 1141
SWIDTH 606 0
DWIDTH 16 0
BBX 14 15 1 0
BITMAP
0008
C03C
C070
E060
6060
60C0
30C0
30C0
3180
1980
1980
1B00
0F00
0F00
0E00
ENDCHAR
STARTCHAR 0476
ENCODING 1142
SWIDTH 682 0
DWIDTH 18 0
BBX 18 24 0 0
BITMAP
0CC000
066000
032000
000000
000000
E003C0
6007C0
600700
700E00
300C00
300C00
381C00
181800
181800
1C3800
0C3000
0C3000
0E7000
066000
06E000
07E000
03C000
03C000
01C000
ENDCHAR
STARTCHAR 0477
ENCODING 1143
SWIDTH 606 0
DWIDTH 16 0
BBX 14 21 1 0
BITMAP
3300
1980
0980
0CC0
04C0
0000
0008
C03C
C070
E060
6060
60C0
30C0
30C0
3180
1980
1980
1B00
0F00
0F00
0E00
ENDCHAR
STARTCHAR 0478
ENCODING 1144
SWIDTH 871 0
DWIDTH 23 0
BBX 21 24 1 -5
BITMAP
1F0000
3F8000
31C000
60C000
60E000
606C18
606C18
E06E38
E06630
E06630
E06760
E06360
6063E0
6063C0
60E1C0
60C1C0
30C180
3F8180
1F0380
000300
000300
000600
003E00
003C00
ENDCHAR
STARTCHAR 0479
ENCODING 1145
SWIDTH 795 0
DWIDTH 21 0
BBX 19 20 1 -5
BITMAP
040000
3F7060
3F3060
61B0C0
6198C0
E1D8C0
E1DD80
E0CD80
E0CF80
E1CF00
61C700
618700
618600
3F0600
1E0E00
000C00
000C00
001800
00F800
00F000
ENDCHAR
STARTCHAR 047A
ENCODING 1146
SWIDTH 833 0
DWIDTH 22 0
BBX 20 19 1 0
BITMAP
007000
0FFF00
1FFFC0
3801C0
7000E0
700060
600070
E00070
E00030
E00030
E00070
E00070
600070
700060
7000E0
3801C0
1F7FC0
0FFF00
007000
ENDCHAR
STARTCHAR 047B
ENCODING 1147
SWIDTH 682 0
DWIDTH 18 0
BBX 15 14 1 1
BITMAP
0FF0
3FFC
710C
600E
6006
E006
E006
E006
E006
6006
600E
319C
3FF8
07C0
ENDCHAR
STARTCHAR 047C
ENCODING 1148
SWIDTH 1061 0
DWIDTH 28 0
BBX 25 24 1 0
BITMAP
001F0000
00F18000
00C08000
000C0000
000C0000
00040000
00040000
1C0C0E00
38000600
30000700
30000300
70000300
60000380
60000180
60000180
E0000180
E0000180
E0000180
E01C0180
E07F0180
70FFC380
7FE1FF80
3F80FF00
1F003E00
ENDCHAR
STARTCHAR 047D
ENCODING 1149
SWIDTH 909 0
DWIDTH 24 0
BBX 20 19 2 0
BITMAP
00F800
03CC00
030400
007000
007000
003000
002000
606060
600060
E00070
C00030
C00030
C00030
C00030
C00030
C1F830
C3FC30
7E07F0
7C03E0
ENDCHAR
STARTCHAR 047E
ENCODING 1150
SWIDTH 833 0
DWIDTH 22 0
BBX 20 23 1 0
BITMAP
07FE00
066400
000000
000000
1C0380
380180
3801C0
3000C0
7000E0
6000E0
600060
E00060
E06060
E06070
E06070
E06060
E06060
60E060
70F0E0
71F9E0
7FBFC0
3F9FC0
1F0F80
ENDCHAR
STARTCHAR 047F
ENCODING 1151
SWIDTH 757 0
DWIDTH 20 0
BBX 16 19 2 0
BITMAP
1FF8
1990
0000
0000
0000
600E
6006
E006
C007
C007
C007
C183
C183
C187
C387
C387
E3C6
7EFE
3E7C
ENDCHAR
STARTCHAR 0480
ENCODING 1152
SWIDTH 606 0
DWIDTH 16 0
BBX 14 24 1 -5
BITMAP
07F0
1FFC
3C0C
3804
7000
6000
6000
E000
E000
E000
E000
E000
6000
6000
7000
3800
1E00
0FF8
03F8
0018
0018
0018
0018
0018
ENDCHAR
STARTCHAR 0481
ENCODING 1153
SWIDTH 492 0
DWIDTH 13 0
BBX 10 20 1 -5
BITMAP
0200
1FC0
3DC0
7000
6000
6000
E000
E000
E000
E000
6000
6000
3800
3FC0
0FC0
01C0
01C0
01C0
01C0
01C0
ENDCHAR
STARTCHAR 0482
ENCODING 1154
SWIDTH 454 0
DWIDTH 12 0
BBX 10 12 1 0
BITMAP
1380
3F00
1F00
0F80
0FC0
ED80
FC00
7C00
3E00
7E00
7200
2000
ENDCHAR
STARTCHAR 0483
ENCODING 1155
SWIDTH 0 0
DWIDTH 0 0
BBX 10 5 -12 16
BITMAP
0180
01C0
FFC0
E000
E000
ENDCHAR
STARTCHAR 0484
ENCODING 1156
SWIDTH 0 0
DWIDTH 0 0
BBX 9 3 -9 17
BITMAP
1F00
F180
C080
ENDCHAR
STARTCHAR 0485
ENCODING 1157
SWIDTH 0 0
DWIDTH 0 0
BBX 3 5 -7 15
BITMAP
E0
E0
C0
C0
60
ENDCHAR
STARTCHAR 0486
ENCODING 1158
SWIDTH 0 0
DWIDTH 0 0
BBX 3 5 -7 15
BITMAP
E0
E0
20
20
C0
ENDCHAR
STARTCHAR 0487
ENCODING 1159
SWIDTH 0 0
DWIDTH 0 0
BBX 18 4 -18 16
BITMAP
3FC000
79F000
E03F80
C007C0
ENDCHAR
STARTCHAR 0488
ENCODING 1160
SWIDTH 378 0
DWIDTH 10 0
BBX 33 29 -24 -5
BITMAP
0001E00000
0003F00000
0006100000
0006100000
07C000F800
0EE001F800
0C20010C00
0000000000
0000000000
0000000000
0000000000
0000000000
0000000000
7C00001F80
EE00001980
C200003080
0000000000
0000000000
0000000000
0000000000
0000000000
0100006000
07C001F800
0C60019800
0820010C00
0001E00000
0003F00000
0006100000
0006100000
ENDCHAR
STARTCHAR 0489
ENCODING 1161
SWIDTH 378 0
DWIDTH 10 0
BBX 30 34 -22 -7
BITMAP
00018000
00018000
00018000
00030000
04030000
06030000
060300E0
070003C0
03800780
03000700
00000200
00000000
00000000
00000000
00000000
C0000000
F80000E0
780000F8
180000FC
00000004
00000000
00000000
00000000
00000000
01000200
03800700
0F000700
1E000300
10030180
00030180
00030080
00060000
00060000
00060000
ENDCHAR
STARTCHAR 048A
ENCODING 1162
SWIDTH 682 0
DWIDTH 18 0
BBX 16 29 2 -5
BITMAP
18C0
0FC0
0700
0000
0000
E038
E078
E078
E0F8
E0D8
E1D8
E198
E198
E318
E318
E618
E618
EE18
EC18
FC18
F818
F818
F01F
F01F
0006
000C
000C
0018
0030
ENDCHAR
STARTCHAR 048B
ENCODING 1163
SWIDTH 606 0
DWIDTH 16 0
BBX 13 24 2 -5
BITMAP
3080
1F80
1F00
0000
0000
C0E0
C0E0
C1E0
C3E0
C360
C760
C660
CC60
CC60
D860
D860
F060
F078
E078
0018
0030
0030
0060
0060
ENDCHAR
STARTCHAR 048C
ENCODING 1164
SWIDTH 606 0
DWIDTH 16 0
BBX 14 19 0 0
BITMAP
3800
3800
3800
FE00
FE00
3800
3800
3800
3FF0
3FF8
381C
380C
380C
380C
380C
381C
383C
3FF8
3FE0
ENDCHAR
STARTCHAR 048D
ENCODING 1165
SWIDTH 530 0
DWIDTH 14 0
BBX 12 18 0 0
BITMAP
3000
3000
3000
3000
FC00
FC00
3000
3000
3000
3000
3FE0
30F0
3030
3030
3030
3070
3FF0
3FC0
ENDCHAR
STARTCHAR 048E
ENCODING 1166
SWIDTH 530 0
DWIDTH 14 0
BBX 12 19 2 0
BITMAP
FF00
FFC0
E1E0
E0E0
E060
E260
E760
E3E0
E1E0
FFE0
FFB0
E000
E000
E000
E000
E000
E000
E000
E000
ENDCHAR
STARTCHAR 048F
ENCODING 1167
SWIDTH 568 0
DWIDTH 15 0
BBX 12 20 2 -5
BITMAP
0200
DF80
FBC0
E0E0
E060
E060
C070
C070
C070
C060
E260
E360
F1E0
DFC0
CFC0
C060
C020
C000
C000
C000
ENDCHAR
STARTCHAR 0490
ENCODING 1168
SWIDTH 530 0
DWIDTH 14 0
BBX 11 23 2 0
BITMAP
0060
0060
0060
0060
FFE0
FFE0
E000
E000
E000
E000
E000
E000
E000
E000
E000
E000
E000
E000
E000
E000
E000
E000
E000
ENDCHAR
STARTCHAR 0491
ENCODING 1169
SWIDTH 454 0
DWIDTH 12 0
BBX 9 18 2 0
BITMAP
0180
0180
0180
0180
FF80
FF80
C000
C000
C000
C000
C000
C000
C000
C000
C000
C000
C000
C000
ENDCHAR
STARTCHAR 0492
ENCODING 1170
SWIDTH 606 0
DWIDTH 16 0
BBX 13 19 1 0
BITMAP
1FF8
1FF8
1800
1800
1800
1800
1800
1800
FFE0
FFE0
FFE0
1800
1800
1800
1800
1800
1800
1800
1800
ENDCHAR
STARTCHAR 0493
ENCODING 1171
SWIDTH 530 0
DWIDTH 14 0
BBX 12 14 1 0
BITMAP
1FF0
1FF0
1800
1800
1800
1FC0
FFC0
FFC0
1800
1800
1800
1800
1800
1800
ENDCHAR
STARTCHAR 0494
ENCODING 1172
SWIDTH 568 0
DWIDTH 15 0
BBX 12 24 2 -5
BITMAP
FFE0
FFE0
E000
E000
E000
E000
E000
E000
FFC0
FFE0
E060
E070
E030
E030
E030
E030
E030
E030
E030
0030
0070
0060
03E0
03C0
ENDCHAR
STARTCHAR 0495
ENCODING 1173
SWIDTH 454 0
DWIDTH 12 0
BBX 10 19 2 -5
BITMAP
FF80
FF80
C000
C000
C000
C000
FF00
FF80
C1C0
C0C0
C0C0
C0C0
C0C0
C0C0
00C0
00C0
01C0
0F80
0F80
ENDCHAR
STARTCHAR 0496
ENCODING 1174
SWIDTH 947 0
DWIDTH 25 0
BBX 24 23 1 -4
BITMAP
E0380E
70381C
383838
1C3830
0C3870
0E38E0
0739C0
03BB80
07FBC0
06FEC0
0E7EE0
0C7C60
1C3830
183838
303818
70381C
60380C
E0380F
C03807
000003
000003
000003
000003
ENDCHAR
STARTCHAR 0497
ENCODING 1175
SWIDTH 795 0
DWIDTH 21 0
BBX 20 18 1 -4
BITMAP
70E0C0
30E180
18E300
0CE700
0EEE00
07FC00
0FFE00
0DF600
18E300
38E380
30E180
70E0C0
60E0F0
C0E070
000070
000070
000070
000070
ENDCHAR
STARTCHAR 0498
ENCODING 1176
SWIDTH 568 0
DWIDTH 15 0
BBX 11 24 2 -5
BITMAP
FF00
FFC0
80E0
00E0
0060
0060
00E0
01C0
3F80
3FC0
00E0
0060
0060
0060
0060
0060
80E0
FFC0
FF00
0C00
0400
0600
3E00
3C00
ENDCHAR
STARTCHAR 0499
ENCODING 1177
SWIDTH 454 0
DWIDTH 12 0
BBX 9 20 2 -5
BITMAP
1800
FF00
EF00
0380
0180
0300
3F00
3E00
0700
0180
0180
0180
0380
FF00
FE00
1800
0800
0800
7800
7800
ENDCHAR
STARTCHAR 049A
ENCODING 1178
SWIDTH 644 0
DWIDTH 17 0
BBX 15 23 2 -4
BITMAP
E038
E038
E070
E0E0
E1C0
E380
E700
EE00
FF00
FB00
FB80
F1C0
E0C0
E0E0
E060
E030
E038
E01E
E01E
000E
000E
000E
000E
ENDCHAR
STARTCHAR 049B
ENCODING 1179
SWIDTH 530 0
DWIDTH 14 0
BBX 12 18 2 -4
BITMAP
C1C0
C180
C300
C600
CE00
DC00
FE00
F600
E300
C380
C180
C1C0
C0F0
C070
0030
0030
0030
0030
ENDCHAR
STARTCHAR 049C
ENCODING 1180
SWIDTH 644 0
DWIDTH 17 0
BBX 14 19 2 0
BITMAP
E038
E038
E070
E4E0
E5C0
E780
E700
EE00
FF00
FF00
FF80
F5C0
E4C0
E4E0
E460
E030
E038
E018
E01C
ENDCHAR
STARTCHAR 049D
ENCODING 1181
SWIDTH 530 0
DWIDTH 14 0
BBX 11 14 2 0
BITMAP
C1C0
C180
D300
D600
DE00
DC00
FE00
F600
F300
D380
D180
C1C0
C0C0
C060
ENDCHAR
STARTCHAR 049E
ENCODING 1182
SWIDTH 644 0
DWIDTH 17 0
BBX 16 19 0 0
BITMAP
380E
380E
381C
FE38
FE70
38E0
39C0
3B80
3FC0
3EC0
3EE0
3C70
3830
3838
3818
380C
380E
3806
3807
ENDCHAR
STARTCHAR 049F
ENCODING 1183
SWIDTH 530 0
DWIDTH 14 0
BBX 12 20 1 0
BITMAP
6000
6000
FE00
6000
6000
6000
60E0
60C0
6180
6300
6700
6E00
7F00
7B00
7180
61C0
60C0
60E0
6060
6030
ENDCHAR
STARTCHAR 04A0
ENCODING 1184
SWIDTH 757 0
DWIDTH 20 0
BBX 18 19 1 0
BITMAP
FE01C0
FE0380
060700
060E00
061C00
063800
063800
067000
06F000
07F800
079800
070C00
060E00
060600
060700
060300
060180
0601C0
0600C0
ENDCHAR
STARTCHAR 04A1
ENCODING 1185
SWIDTH 720 0
DWIDTH 19 0
BBX 16 14 0 0
BITMAP
FE0E
FE1C
0638
0630
0660
06E0
07E0
07B0
0738
0618
060C
060E
0606
0607
ENDCHAR
STARTCHAR 04A2
ENCODING 1186
SWIDTH 682 0
DWIDTH 18 0
BBX 16 23 2 -4
BITMAP
E018
E018
E018
E018
E018
E018
E018
E018
FFF8
FFF8
E018
E018
E018
E018
E018
E018
E018
E01F
E01F
0007
0007
0007
0007
ENDCHAR
STARTCHAR 04A3
ENCODING 1187
SWIDTH 568 0
DWIDTH 15 0
BBX 13 18 2 -4
BITMAP
C060
C060
C060
C060
C060
C060
FFE0
C060
C060
C060
C060
C060
C078
C078
0018
0018
0018
0018
ENDCHAR
STARTCHAR 04A4
ENCODING 1188
SWIDTH 909 0
DWIDTH 24 0
BBX 22 19 2 0
BITMAP
E01FFC
E01FFC
E01800
E01800
E01800
E01800
E01800
E01800
FFF800
FFF800
E01800
E01800
E01800
E01800
E01800
E01800
E01800
E01800
E01800
ENDCHAR
STARTCHAR 04A5
ENCODING 1189
SWIDTH 795 0
DWIDTH 21 0
BBX 18 14 2 0
BITMAP
C07FC0
C07FC0
C06000
C06000
C06000
C06000
FFE000
C06000
C06000
C06000
C06000
C06000
C06000
C06000
ENDCHAR
STARTCHAR 04A6
ENCODING 1190
SWIDTH 947 0
DWIDTH 25 0
BBX 23 24 2 -5
BITMAP
FFF800
FFF800
E01800
E01800
E01800
E01800
E01800
E01800
E01FF8
E01FFC
E0181C
E0180C
E0180E
E0180E
E0180E
E0180E
E0180E
E0180E
E0180E
00000E
00000C
00001C
00007C
000078
ENDCHAR
STARTCHAR 04A7
ENCODING 1191
SWIDTH 795 0
DWIDTH 21 0
BBX 19 19 2 -5
BITMAP
FFE000
FFE000
C06000
C06000
C06000
C06000
C07F80
C07FC0
C060E0
C06060
C06060
C06060
C06060
C06060
000060
000060
0000E0
0007C0
0007C0
ENDCHAR
STARTCHAR 04A8
ENCODING 1192
SWIDTH 795 0
DWIDTH 21 0
BBX 19 19 1 0
BITMAP
070000
0F1E00
1C7F00
387380
70E180
60E180
60C1C0
E0C1C0
E0C1C0
E0C1C0
E0C1C0
E0E180
60E180
606380
707300
383F00
3C1E00
1FFFE0
07F7E0
ENDCHAR
STARTCHAR 04A9
ENCODING 1193
SWIDTH 606 0
DWIDTH 16 0
BBX 15 15 1 0
BITMAP
0200
1E00
3CF0
71F8
6198
6198
E19C
E19C
E198
E198
6198
60F8
70F0
3FFE
1FFE
ENDCHAR
STARTCHAR 04AA
ENCODING 1194
SWIDTH 606 0
DWIDTH 16 0
BBX 14 24 1 -5
BITMAP
07F0
1FFC
3C0C
3804
7000
6000
6000
E000
E000
E000
E000
E000
6000
6000
7000
3004
3C0C
1FFC
07F0
00C0
0040
0040
03C0
03C0
ENDCHAR
STARTCHAR 04AB
ENCODING 1195
SWIDTH 492 0
DWIDTH 13 0
BBX 10 20 1 -5
BITMAP
0200
1FC0
3DC0
7000
6000
6000
E000
E000
E000
E000
6000
6000
7000
3FC0
1FC0
0300
0100
0180
0F80
0F00
ENDCHAR
STARTCHAR 04AC
ENCODING 1196
SWIDTH 530 0
DWIDTH 14 0
BBX 14 23 0 -4
BITMAP
FFFC
FFFC
0300
0300
0300
0300
0300
0300
0300
0300
0300
0300
0300
0300
0300
0300
0300
03E0
03E0
00E0
00E0
00E0
00E0
ENDCHAR
STARTCHAR 04AD
ENCODING 1197
SWIDTH 530 0
DWIDTH 14 0
BBX 12 18 1 -4
BITMAP
FFF0
FFF0
0600
0600
0600
0600
0600
0600
0600
0600
0600
0600
0780
0780
0180
0180
0180
0180
ENDCHAR
STARTCHAR 04AE
ENCODING 1198
SWIDTH 530 0
DWIDTH 14 0
BBX 14 19 0 0
BITMAP
E00C
6018
7038
3830
1870
1C60
0CC0
07C0
0780
0380
0300
0300
0300
0300
0300
0300
0300
0300
0300
ENDCHAR
STARTCHAR 04AF
ENCODING 1199
SWIDTH 530 0
DWIDTH 14 0
BBX 12 19 1 -5
BITMAP
C030
E070
6060
6060
70C0
30C0
31C0
1980
1980
1B80
0F00
0F00
0F00
0600
0600
0600
0600
0600
0600
ENDCHAR
STARTCHAR 04B0
ENCODING 1200
SWIDTH 530 0
DWIDTH 14 0
BBX 14 19 0 0
BITMAP
E00C
6018
7038
3830
1870
1C60
0CC0
07C0
0780
0380
0300
0300
1FE0
1FE0
0300
0300
0300
0300
0300
ENDCHAR
STARTCHAR 04B1
ENCODING 1201
SWIDTH 530 0
DWIDTH 14 0
BBX 12 19 1 -5
BITMAP
C030
E070
6060
6060
70C0
30C0
31C0
1980
1980
1B80
0F00
0F00
0F00
0600
0600
3FC0
3FC0
0600
0600
ENDCHAR
STARTCHAR 04B2
ENCODING 1202
SWIDTH 606 0
DWIDTH 16 0
BBX 14 23 1 -4
BITMAP
601C
7018
3030
1870
1C60
0CE0
0EC0
0780
0380
0780
0780
0FC0
0CC0
1C60
3870
3030
7038
601C
C00C
000C
000C
000C
000C
ENDCHAR
STARTCHAR 04B3
ENCODING 1203
SWIDTH 530 0
DWIDTH 14 0
BBX 12 18 1 -4
BITMAP
6060
70E0
30C0
1980
1F80
0F00
0600
0F00
1F00
1980
31C0
70C0
6070
E070
0030
0030
0030
0030
ENDCHAR
STARTCHAR 04B4
ENCODING 1204
SWIDTH 833 0
DWIDTH 22 0
BBX 21 23 0 -4
BITMAP
FFFC60
FFFC60
030060
030060
030060
030060
030060
030060
030060
030060
030060
030060
030060
030060
030060
030060
030060
03FFF8
03FFF8
000018
000018
000018
000018
ENDCHAR
STARTCHAR 04B5
ENCODING 1205
SWIDTH 720 0
DWIDTH 19 0
BBX 18 18 0 -4
BITMAP
FFF300
FFF300
060300
060300
060300
060300
060300
060300
060300
060300
060300
060300
07FFC0
07FFC0
0000C0
0000C0
0000C0
0000C0
ENDCHAR
STARTCHAR 04B6
ENCODING 1206
SWIDTH 606 0
DWIDTH 16 0
BBX 14 23 2 -4
BITMAP
C070
C070
C070
C070
C070
C070
E070
7070
7FF0
1FF0
0070
0070
0070
0070
0070
0070
0070
007C
007C
000C
000C
000C
000C
ENDCHAR
STARTCHAR 04B7
ENCODING 1207
SWIDTH 530 0
DWIDTH 14 0
BBX 12 18 2 -4
BITMAP
C0C0
C0C0
C0C0
C0C0
C0C0
FFC0
7FC0
00C0
00C0
00C0
00C0
00C0
00F0
00F0
0030
0030
0030
0030
ENDCHAR
STARTCHAR 04B8
ENCODING 1208
SWIDTH 606 0
DWIDTH 16 0
BBX 12 19 2 0
BITMAP
C070
C070
C070
C070
C670
C670
E670
7670
7FF0
1FF0
0670
0670
0670
0670
0070
0070
0070
0070
0070
ENDCHAR
STARTCHAR 04B9
ENCODING 1209
SWIDTH 530 0
DWIDTH 14 0
BBX 10 14 2 0
BITMAP
C0C0
C0C0
C0C0
CCC0
CCC0
FFC0
7FC0
0CC0
0CC0
0CC0
00C0
00C0
00C0
00C0
ENDCHAR
STARTCHAR 04BA
ENCODING 1210
SWIDTH 606 0
DWIDTH 16 0
BBX 12 19 2 0
BITMAP
C000
C000
C000
C000
C000
C000
C000
C000
FFC0
FFE0
C0E0
C060
C070
C070
C070
C070
C070
C070
C070
ENDCHAR
STARTCHAR 04BB
ENCODING 1211
SWIDTH 568 0
DWIDTH 15 0
BBX 11 20 2 0
BITMAP
C000
C000
C000
C000
C000
C200
DF80
DFC0
E0C0
E0E0
C060
C060
C060
C060
C060
C060
C060
C060
C060
C060
ENDCHAR
STARTCHAR 04BC
ENCODING 1212
SWIDTH 833 0
DWIDTH 22 0
BBX 21 19 0 0
BITMAP
007F00
00FFC0
01C1E0
0380E0
C30070
C70030
E70030
660038
7FFFF8
1FFFF8
060000
060000
070000
070000
030000
038020
01C060
00FFE0
007FC0
ENDCHAR
STARTCHAR 04BD
ENCODING 1213
SWIDTH 644 0
DWIDTH 17 0
BBX 16 15 0 0
BITMAP
0020
01F8
03DC
C606
CE06
CC03
7C03
7FFF
0C00
0C00
0C00
0600
0702
03FE
01FE
ENDCHAR
STARTCHAR 04BE
ENCODING 1214
SWIDTH 833 0
DWIDTH 22 0
BBX 21 24 0 -5
BITMAP
007F00
00FFC0
01C1E0
0380E0
C30070
C70030
E70030
660038
7FFFF8
1FFFF8
060000
060000
070000
070000
030000
038020
01C060
00FFE0
007FC0
000C00
000C00
000C00
000C00
000C00
ENDCHAR
STARTCHAR 04BF
ENCODING 1215
SWIDTH 644 0
DWIDTH 17 0
BBX 16 19 0 -4
BITMAP
0020
01F8
03DC
C606
CE06
CC03
7C03
7FFF
0C00
0C00
0C00
0600
0702
03FE
01FE
0060
0060
0060
0060
ENDCHAR
STARTCHAR 04C0
ENCODING 1216
SWIDTH 265 0
DWIDTH 7 0
BBX 3 19 2 0
BITMAP
E0
E0
E0
E0
E0
E0
E0
E0
E0
E0
E0
E0
E0
E0
E0
E0
E0
E0
E0
ENDCHAR
STARTCHAR 04C1
ENCODING 1217
SWIDTH 947 0
DWIDTH 25 0
BBX 23 24 1 0
BITMAP
00C600
007E00
003800
000000
000000
E0380E
70381C
383838
1C3830
0C3870
0E38E0
0739C0
03BB80
07FBC0
06FEC0
0E7EE0
0C7C60
1C3830
183838
303818
70381C
60380C
E0380E
C03806
ENDCHAR
STARTCHAR 04C2
ENCODING 1218
SWIDTH 795 0
DWIDTH 21 0
BBX 19 20 1 0
BITMAP
030800
01F800
01F000
000000
000000
000000
70E0C0
30E180
18E300
0CE700
0EEE00
07FC00
0FFE00
0DF600
18E300
38E380
30E180
70E0C0
60E0C0
C0E060
ENDCHAR
STARTCHAR 04C3
ENCODING 1219
SWIDTH 568 0
DWIDTH 15 0
BBX 13 24 2 -5
BITMAP
E038
E070
E0E0
E1C0
E380
E700
EE00
FC00
FFC0
FFE0
E060
E070
E030
E030
E030
E030
E030
E030
E030
0030
0070
0060
03E0
03C0
ENDCHAR
STARTCHAR 04C4
ENCODING 1220
SWIDTH 530 0
DWIDTH 14 0
BBX 11 19 2 -5
BITMAP
C0E0
C1C0
C300
C600
CC00
D800
FF00
FF80
C1C0
C0C0
C0C0
C0C0
C0C0
C0C0
00C0
00C0
01C0
0F80
0F80
ENDCHAR
STARTCHAR 04C5
ENCODING 1221
SWIDTH 682 0
DWIDTH 18 0
BBX 17 24 1 -5
BITMAP
0FFC00
0FFC00
0C0C00
0C0C00
0C0C00
0C0C00
0C0C00
0C0C00
0C0C00
0C0C00
0C0C00
0C0C00
1C0C00
180C00
180C00
380C00
700C00
F00F80
C00F80
000300
000600
000600
000C00
001800
ENDCHAR
STARTCHAR 04C6
ENCODING 1222
SWIDTH 606 0
DWIDTH 16 0
BBX 14 19 1 -5
BITMAP
1FF0
1FF0
1830
1830
1830
1830
1830
1830
1830
1830
3030
3030
E03C
C03C
000C
0018
0018
0030
0020
ENDCHAR
STARTCHAR 04C7
ENCODING 1223
SWIDTH 682 0
DWIDTH 18 0
BBX 13 24 2 -5
BITMAP
E018
E018
E018
E018
E018
E018
E018
E018
FFF8
FFF8
E018
E018
E018
E018
E018
E018
E018
E018
E018
0018
0018
0038
01F0
01E0
ENDCHAR
STARTCHAR 04C8
ENCODING 1224
SWIDTH 568 0
DWIDTH 15 0
BBX 11 19 2 -5
BITMAP
C060
C060
C060
C060
C060
C060
FFE0
C060
C060
C060
C060
C060
C060
C060
0060
0060
0060
07E0
07C0
ENDCHAR
STARTCHAR 04C9
ENCODING 1225
SWIDTH 682 0
DWIDTH 18 0
BBX 16 24 2 -5
BITMAP
E018
E018
E018
E018
E018
E018
E018
E018
FFF8
FFF8
E018
E018
E018
E018
E018
E018
E018
E01F
E01F
0006
000C
000C
0018
0030
ENDCHAR
STARTCHAR 04CA
ENCODING 1226
SWIDTH 606 0
DWIDTH 16 0
BBX 13 19 2 -5
BITMAP
C060
C060
C060
C060
C060
C060
FFE0
C060
C060
C060
C060
C060
C078
C078
0018
0010
0030
0020
0060
ENDCHAR
STARTCHAR 04CB
ENCODING 1227
SWIDTH 606 0
DWIDTH 16 0
BBX 12 23 2 -4
BITMAP
C070
C070
C070
C070
C070
C070
E070
7070
7FF0
1FF0
0070
0070
0070
0070
0070
0070
0070
01F0
01F0
0180
0180
0180
0180
ENDCHAR
STARTCHAR 04CC
ENCODING 1228
SWIDTH 530 0
DWIDTH 14 0
BBX 10 18 2 -4
BITMAP
C0C0
C0C0
C0C0
C0C0
C0C0
FFC0
7FC0
00C0
00C0
00C0
00C0
00C0
07C0
07C0
0700
0700
0700
0700
ENDCHAR
STARTCHAR 04CD
ENCODING 1229
SWIDTH 795 0
DWIDTH 21 0
BBX 18 24 2 -5
BITMAP
F00F00
F00F00
F80F00
F81B00
F81B00
EC1B00
EC3300
EC3300
E63300
E66300
E66300
E36300
E3C300
E3C300
E1C300
E00300
E00300
E003C0
E003C0
0000C0
000180
000300
000300
000600
ENDCHAR
STARTCHAR 04CE
ENCODING 1230
SWIDTH 682 0
DWIDTH 18 0
BBX 16 19 2 -5
BITMAP
E038
F038
F078
D878
D858
C8D8
CCD8
CC98
C798
C798
C718
C018
C01F
C01F
0006
0006
000C
0008
0018
ENDCHAR
STARTCHAR 04CF
ENCODING 1231
SWIDTH 265 0
DWIDTH 7 0
BBX 2 20 2 0
BITMAP
C0
C0
C0
C0
C0
C0
C0
C0
C0
C0
C0
C0
C0
C0
C0
C0
C0
C0
C0
C0
ENDCHAR
STARTCHAR 04D0
ENCODING 1232
SWIDTH 606 0
DWIDTH 16 0
BBX 16 24 0 0
BITMAP
0430
07E0
03E0
0000
0000
0180
03C0
03C0
07C0
0660
0660
0E70
0C30
0C30
1C38
1818
1818
3FFC
3FFC
300C
700E
6006
6006
E007
ENDCHAR
STARTCHAR 04D1
ENCODING 1233
SWIDTH 530 0
DWIDTH 14 0
BBX 11 19 1 0
BITMAP
3080
1F80
1F00
0000
0400
7F80
7BC0
40E0
0060
0060
1FE0
3FE0
6060
6060
E060
E0E0
60E0
7FE0
3F60
ENDCHAR
STARTCHAR 04D2
ENCODING 1234
SWIDTH 606 0
DWIDTH 16 0
BBX 16 24 0 0
BITMAP
0660
0660
0660
0000
0000
0180
03C0
03C0
07C0
0660
0660
0E70
0C30
0C30
1C38
1818
1818
3FFC
3FFC
300C
700E
6006
6006
E007
ENDCHAR
STARTCHAR 04D3
ENCODING 1235
SWIDTH 530 0
DWIDTH 14 0
BBX 11 20 1 0
BITMAP
3980
3980
3980
0000
0000
0400
7F80
7BC0
40E0
0060
0060
1FE0
3FE0
6060
6060
E060
E0E0
60E0
7FE0
3F60
ENDCHAR
STARTCHAR 04D4
ENCODING 1236
SWIDTH 871 0
DWIDTH 23 0
BBX 21 19 0 0
BITMAP
01FFF8
01FFF8
03B800
033800
033800
073800
063800
0E3800
0C3FF8
0C3FF8
1C3800
183800
1FF800
3FF800
303800
703800
603800
603FF8
E03FF8
ENDCHAR
STARTCHAR 04D5
ENCODING 1237
SWIDTH 871 0
DWIDTH 23 0
BBX 21 15 1 0
BITMAP
040000
7F8FC0
7BDEE0
40F030
007030
006018
1FE018
3FFFF8
606000
606000
E06000
E0F000
60F810
7F9FF0
3F0FF0
ENDCHAR
STARTCHAR 04D6
ENCODING 1238
SWIDTH 568 0
DWIDTH 15 0
BBX 11 24 2 0
BITMAP
3180
1F80
0E00
0000
0000
FFE0
FFE0
E000
E000
E000
E000
E000
E000
FFE0
FFE0
E000
E000
E000
E000
E000
E000
E000
FFE0
FFE0
ENDCHAR
STARTCHAR 04D7
ENCODING 1239
SWIDTH 530 0
DWIDTH 14 0
BBX 12 20 1 0
BITMAP
18C0
1FC0
0F80
0000
0000
0200
1FC0
3DE0
7060
6030
6030
E030
FFF0
C000
E000
6000
6000
7010
3FF0
1FE0
ENDCHAR
STARTCHAR 04D8
ENCODING 1240
SWIDTH 682 0
DWIDTH 18 0
BBX 16 19 1 0
BITMAP
1FE0
3FF8
301C
200E
0006
0007
0007
0003
0003
FFFF
FFFF
E003
6007
6007
7006
300E
3C1C
1FF8
07F0
ENDCHAR
STARTCHAR 04D9
ENCODING 1241
SWIDTH 530 0
DWIDTH 14 0
BBX 12 15 1 0
BITMAP
0400
7F80
7BC0
00E0
0070
0030
0030
FFF0
FFF0
C030
E030
6070
70E0
3FC0
1F80
ENDCHAR
STARTCHAR 04DA
ENCODING 1242
SWIDTH 682 0
DWIDTH 18 0
BBX 16 24 1 0
BITMAP
0670
0670
0670
0000
0000
1FE0
3FF8
301C
200E
0006
0007
0007
0003
0003
FFFF
FFFF
E003
6007
6007
7006
300E
3C1C
1FF8
07F0
ENDCHAR
STARTCHAR 04DB
ENCODING 1243
SWIDTH 530 0
DWIDTH 14 0
BBX 12 20 1 0
BITMAP
3980
3980
3980
0000
0000
0400
7F80
7BC0
00E0
0070
0030
0030
FFF0
FFF0
C030
E030
6070
70E0
3FC0
1F80
ENDCHAR
STARTCHAR 04DC
ENCODING 1244
SWIDTH 947 0
DWIDTH 25 0
BBX 23 24 1 0
BITMAP
00E600
00E600
00E600
000000
000000
E0380E
70381C
383838
1C3830
0C3870
0E38E0
0739C0
03BB80
07FBC0
06FEC0
0E7EE0
0C7C60
1C3830
183838
303818
70381C
60380C
E0380E
C03806
ENDCHAR
STARTCHAR 04DD
ENCODING 1245
SWIDTH 795 0
DWIDTH 21 0
BBX 19 20 1 0
BITMAP
039800
039800
039800
000000
000000
000000
70E0C0
30E180
18E300
0CE700
0EEE00
07FC00
0FFE00
0DF600
18E300
38E380
30E180
70E0C0
60E0C0
C0E060
ENDCHAR
STARTCHAR 04DE
ENCODING 1246
SWIDTH 568 0
DWIDTH 15 0
BBX 11 24 2 0
BITMAP
3380
3380
3380
0000
0000
FF00
FFC0
80E0
00E0
0060
0060
00E0
01C0
3F80
3FC0
00E0
0060
0060
0060
0060
0060
80E0
FFC0
FF00
ENDCHAR
STARTCHAR 04DF
ENCODING 1247
SWIDTH 454 0
DWIDTH 12 0
BBX 9 20 2 0
BITMAP
6300
6300
6300
0000
0000
1800
FF00
EF00
0380
0180
0300
3F00
3E00
0700
0180
0180
0180
0380
FF00
FE00
ENDCHAR
STARTCHAR 04E0
ENCODING 1248
SWIDTH 606 0
DWIDTH 16 0
BBX 13 20 2 -1
BITMAP
FFF0
FFF0
00E0
00C0
01C0
0380
0300
0600
0F00
0FC0
01E0
0070
0030
0038
0038
0030
0070
F1E0
FFC0
1F00
ENDCHAR
STARTCHAR 04E1
ENCODING 1249
SWIDTH 530 0
DWIDTH 14 0
BBX 11 20 1 -6
BITMAP
FFC0
FFC0
01C0
0380
0300
0600
0E00
1C00
1F00
1F80
01C0
00E0
0060
0060
0060
0060
80E0
FFC0
FF80
0800
ENDCHAR
STARTCHAR 04E2
ENCODING 1250
SWIDTH 682 0
DWIDTH 18 0
BBX 13 23 2 0
BITMAP
1FC0
1FC0
0000
0000
E038
E078
E078
E0F8
E0D8
E1D8
E198
E198
E318
E318
E618
E618
EE18
EC18
FC18
F818
F818
F018
F018
ENDCHAR
STARTCHAR 04E3
ENCODING 1251
SWIDTH 568 0
DWIDTH 15 0
BBX 11 19 2 0
BITMAP
3F80
3F80
0000
0000
0000
C0E0
C1E0
C1E0
C3E0
C360
C660
C660
CC60
CC60
D860
D860
F060
F060
E060
ENDCHAR
STARTCHAR 04E4
ENCODING 1252
SWIDTH 682 0
DWIDTH 18 0
BBX 13 24 2 0
BITMAP
1CC0
1CC0
1CC0
0000
0000
E038
E078
E078
E0F8
E0D8
E1D8
E198
E198
E318
E318
E618
E618
EE18
EC18
FC18
F818
F818
F018
F018
ENDCHAR
STARTCHAR 04E5
ENCODING 1253
SWIDTH 568 0
DWIDTH 15 0
BBX 11 20 2 0
BITMAP
3180
3180
3180
0000
0000
0000
C0E0
C1E0
C1E0
C3E0
C360
C660
C660
CC60
CC60
D860
D860
F060
F060
E060
ENDCHAR
STARTCHAR 04E6
ENCODING 1254
SWIDTH 682 0
DWIDTH 18 0
BBX 16 24 1 0
BITMAP
0670
0670
0670
0000
0000
07F0
1FF8
3C1C
380E
7006
6007
6007
E003
E003
E003
E003
E003
6007
6007
7006
300E
3C1C
1FF8
07F0
ENDCHAR
STARTCHAR 04E7
ENCODING 1255
SWIDTH 530 0
DWIDTH 14 0
BBX 12 20 1 0
BITMAP
19C0
19C0
19C0
0000
0000
0400
1FC0
3FE0
70E0
6070
E030
E030
E030
E030
E030
6070
6060
70E0
3FC0
1F80
ENDCHAR
STARTCHAR 04E8
ENCODING 1256
SWIDTH 682 0
DWIDTH 18 0
BBX 16 19 1 0
BITMAP
07F0
1FF8
3C1C
380E
7006
6007
6007
E003
FFFF
FFFF
E003
E003
6007
6007
7006
300E
3C1C
1FF8
07F0
ENDCHAR
STARTCHAR 04E9
ENCODING 1257
SWIDTH 530 0
DWIDTH 14 0
BBX 12 15 1 0
BITMAP
0400
1FC0
3DE0
7060
6070
E030
FFF0
FFF0
FFF0
E030
6070
6060
70E0
3FC0
1F80
ENDCHAR
STARTCHAR 04EA
ENCODING 1258
SWIDTH 682 0
DWIDTH 18 0
BBX 16 24 1 0
BITMAP
0670
0670
0670
0000
0000
07F0
1FF8
3C1C
380E
7006
6007
6007
E003
FFFF
FFFF
E003
E003
6007
6007
7006
300E
3C1C
1FF8
07F0
ENDCHAR
STARTCHAR 04EB
ENCODING 1259
SWIDTH 530 0
DWIDTH 14 0
BBX 12 20 1 0
BITMAP
19C0
19C0
19C0
0000
0000
0400
1FC0
3DE0
7060
6070
E030
FFF0
FFF0
FFF0
E030
6070
6060
70E0
3FC0
1F80
ENDCHAR
STARTCHAR 04EC
ENCODING 1260
SWIDTH 606 0
DWIDTH 16 0
BBX 14 24 1 0
BITMAP
1980
1980
1980
0000
0000
3F80
FFE0
E070
8038
0018
0018
001C
001C
3FFC
3FFC
3FFC
001C
001C
001C
0018
8038
E070
FFE0
3FC0
ENDCHAR
STARTCHAR 04ED
ENCODING 1261
SWIDTH 492 0
DWIDTH 13 0
BBX 10 20 1 0
BITMAP
6300
6300
6300
0000
0000
1800
FF00
EF80
0180
01C0
00C0
00C0
3FC0
00C0
00C0
00C0
01C0
8180
FF80
FE00
ENDCHAR
STARTCHAR 04EE
ENCODING 1262
SWIDTH 530 0
DWIDTH 14 0
BBX 13 23 1 0
BITMAP
1FC0
1FC0
0000
0000
C038
C030
E070
6070
7060
70E0
30C0
38C0
19C0
1980
1F80
0F00
0F00
0700
0600
0E00
0E00
7C00
7800
ENDCHAR
STARTCHAR 04EF
ENCODING 1263
SWIDTH 530 0
DWIDTH 14 0
BBX 12 24 1 -5
BITMAP
1F80
1F80
0000
0000
0000
C030
E070
6060
6060
70C0
30C0
31C0
1980
1980
1B80
0F00
0F00
0F00
0600
0600
0C00
0C00
7C00
7800
ENDCHAR
STARTCHAR 04F0
ENCODING 1264
SWIDTH 530 0
DWIDTH 14 0
BBX 13 24 1 0
BITMAP
19C0
19C0
19C0
0000
0000
C038
C030
E070
6070
7060
70E0
30C0
38C0
19C0
1980
1F80
0F00
0F00
0700
0600
0E00
0E00
7C00
7800
ENDCHAR
STARTCHAR 04F1
ENCODING 1265
SWIDTH 530 0
DWIDTH 14 0
BBX 12 25 1 -5
BITMAP
1980
1980
1980
0000
0000
0000
C030
E070
6060
6060
70C0
30C0
31C0
1980
1980
1B80
0F00
0F00
0F00
0600
0600
0C00
0C00
7C00
7800
ENDCHAR
STARTCHAR 04F2
ENCODING 1266
SWIDTH 530 0
DWIDTH 14 0
BBX 13 24 1 0
BITMAP
06E0
0CC0
1980
0000
0000
C038
C030
E070
6070
7060
70E0
30C0
38C0
19C0
1980
1F80
0F00
0F00
0700
0600
0E00
0E00
7C00
7800
ENDCHAR
STARTCHAR 04F3
ENCODING 1267
SWIDTH 530 0
DWIDTH 14 0
BBX 12 26 1 -5
BITMAP
0660
0CC0
0CC0
1980
1900
0000
0000
C030
E070
6060
6060
70C0
30C0
31C0
1980
1980
1B80
0F00
0F00
0F00
0600
0600
0C00
0C00
7C00
7800
ENDCHAR
STARTCHAR 04F4
ENCODING 1268
SWIDTH 606 0
DWIDTH 16 0
BBX 12 24 2 0
BITMAP
19C0
19C0
19C0
0000
0000
C070
C070
C070
C070
C070
C070
C070
E070
6070
7FF0
3FF0
0070
0070
0070
0070
0070
0070
0070
0070
ENDCHAR
STARTCHAR 04F5
ENCODING 1269
SWIDTH 530 0
DWIDTH 14 0
BBX 10 20 2 0
BITMAP
3300
3300
3300
0000
0000
0000
C0C0
C0C0
C0C0
C0C0
C0C0
E0C0
FFC0
3FC0
00C0
00C0
00C0
00C0
00C0
00C0
ENDCHAR
STARTCHAR 04F6
ENCODING 1270
SWIDTH 530 0
DWIDTH 14 0
BBX 11 23 2 -4
BITMAP
FFE0
FFE0
E000
E000
E000
E000
E000
E000
E000
E000
E000
E000
E000
E000
E000
E000
E000
F800
F800
1800
1800
1800
1800
ENDCHAR
STARTCHAR 04F7
ENCODING 1271
SWIDTH 454 0
DWIDTH 12 0
BBX 9 18 2 -4
BITMAP
FF80
FF80
C000
C000
C000
C000
C000
C000
C000
C000
C000
C000
F000
F000
3000
3000
3000
3000
ENDCHAR
STARTCHAR 04F8
ENCODING 1272
SWIDTH 795 0
DWIDTH 21 0
BBX 16 24 2 0
BITMAP
0730
0730
0730
0000
0000
E003
E003
E003
E003
E003
E003
E003
E003
FFC3
FFE3
E073
E033
E033
E033
E033
E073
E0F3
FFE3
FF83
ENDCHAR
STARTCHAR 04F9
ENCODING 1273
SWIDTH 682 0
DWIDTH 18 0
BBX 14 20 2 0
BITMAP
1CC0
1CC0
1CC0
0000
0000
0000
C00C
C00C
C00C
C00C
C00C
C00C
FF8C
C3CC
C0CC
C0CC
C0CC
C1CC
FFCC
FF0C
ENDCHAR
STARTCHAR 04FA
ENCODING 1274
SWIDTH 606 0
DWIDTH 16 0
BBX 13 24 1 -5
BITMAP
1FF8
1FF8
1800
1800
1800
1800
1800
1800
FFE0
FFE0
FFE0
1800
1800
1800
1800
1800
1800
1F80
1F80
0180
0180
0180
3F80
3F00
ENDCHAR
STARTCHAR 04FB
ENCODING 1275
SWIDTH 530 0
DWIDTH 14 0
BBX 12 19 1 -5
BITMAP
1FF0
1FF0
1800
1800
1800
1FC0
FFC0
FFC0
1800
1800
1800
1800
1F80
1F80
0180
0180
0180
3F00
3F00
ENDCHAR
ENDFONT
